{"glyphs":{"0":{"ha":400,"x_min":66,"x_max":334,"o":"m 254 -520 q 254 -497 250 -480 l 250 -480 l 150 -480 q 146 -497 146 -520 l 146 -520 q 146 -544 150 -560 l 150 -560 l 250 -560 q 254 -544 254 -520 l 254 -520 m 150 -160 q 154 -144 154 -120 l 154 -120 q 154 -97 150 -80 l 150 -80 l 100 -80 q 96 -97 96 -120 l 96 -120 q 96 -144 100 -160 l 100 -160 l 70 -160 q 66 -177 66 -200 l 66 -200 q 66 -224 70 -240 l 70 -240 q 66 -257 66 -280 l 66 -280 q 66 -304 70 -320 l 70 -320 q 66 -337 66 -360 l 66 -360 q 66 -384 70 -400 l 70 -400 l 100 -400 q 96 -417 96 -440 l 96 -440 q 96 -464 100 -480 l 100 -480 l 150 -480 q 154 -464 154 -440 l 154 -440 q 154 -417 150 -400 l 150 -400 q 154 -384 154 -360 l 154 -360 q 154 -337 150 -320 l 150 -320 q 154 -304 154 -280 l 154 -280 q 154 -257 150 -240 l 150 -240 q 154 -224 154 -200 l 154 -200 q 154 -177 150 -160 l 150 -160 m 330 -320 q 334 -304 334 -280 l 334 -280 q 334 -257 330 -240 l 330 -240 q 334 -224 334 -200 l 334 -200 q 334 -177 330 -160 l 330 -160 l 300 -160 q 304 -144 304 -120 l 304 -120 q 304 -97 300 -80 l 300 -80 l 250 -80 q 246 -97 246 -120 l 246 -120 q 246 -144 250 -160 l 250 -160 q 246 -177 246 -200 l 246 -200 q 246 -224 250 -240 l 250 -240 q 246 -257 246 -280 l 246 -280 q 246 -304 250 -320 l 250 -320 q 246 -337 246 -360 l 246 -360 q 246 -384 250 -400 l 250 -400 q 246 -417 246 -440 l 246 -440 q 246 -464 250 -480 l 250 -480 l 300 -480 q 304 -464 304 -440 l 304 -440 q 304 -417 300 -400 l 300 -400 l 330 -400 q 334 -384 334 -360 l 334 -360 q 334 -337 330 -320 l 330 -320 m 146 -40 q 146 -64 150 -80 l 150 -80 l 250 -80 q 254 -64 254 -40 l 254 -40 q 254 -17 250 0 l 250 0 l 150 0 q 146 -17 146 -40 l 146 -40"},"1":{"ha":400,"x_min":76,"x_max":324,"o":"m 320 -80 q 324 -64 324 -40 l 324 -40 q 324 -17 320 0 l 320 0 l 80 0 q 76 -17 76 -40 l 76 -40 q 76 -64 80 -80 l 80 -80 l 160 -80 q 156 -97 156 -120 l 156 -120 q 156 -144 160 -160 l 160 -160 q 156 -177 156 -200 l 156 -200 q 156 -224 160 -240 l 160 -240 q 156 -257 156 -280 l 156 -280 q 156 -304 160 -320 l 160 -320 q 156 -337 156 -360 l 156 -360 q 156 -384 160 -400 l 160 -400 l 100 -400 q 96 -417 96 -440 l 96 -440 q 96 -464 100 -480 l 100 -480 l 160 -480 q 156 -497 156 -520 l 156 -520 q 156 -544 160 -560 l 160 -560 l 240 -560 q 244 -544 244 -520 l 244 -520 q 244 -497 240 -480 l 240 -480 q 244 -464 244 -440 l 244 -440 q 244 -417 240 -400 l 240 -400 q 244 -384 244 -360 l 244 -360 q 244 -337 240 -320 l 240 -320 q 244 -304 244 -280 l 244 -280 q 244 -257 240 -240 l 240 -240 q 244 -224 244 -200 l 244 -200 q 244 -177 240 -160 l 240 -160 q 244 -144 244 -120 l 244 -120 q 244 -97 240 -80 l 240 -80 l 320 -80"},"2":{"ha":400,"x_min":56,"x_max":344,"o":"m 344 -360 q 344 -337 340 -320 l 340 -320 l 290 -320 q 294 -304 294 -280 l 294 -280 q 294 -257 290 -240 l 290 -240 l 240 -240 q 244 -224 244 -200 l 244 -200 q 244 -177 240 -160 l 240 -160 l 190 -160 q 194 -144 194 -120 l 194 -120 q 194 -97 190 -80 l 190 -80 l 340 -80 q 344 -64 344 -40 l 344 -40 q 344 -17 340 0 l 340 0 l 60 0 q 56 -17 56 -40 l 56 -40 q 56 -64 60 -80 l 60 -80 l 110 -80 q 106 -97 106 -120 l 106 -120 q 106 -144 110 -160 l 110 -160 l 160 -160 q 156 -177 156 -200 l 156 -200 q 156 -224 160 -240 l 160 -240 l 210 -240 q 206 -257 206 -280 l 206 -280 q 206 -304 210 -320 l 210 -320 l 260 -320 q 256 -337 256 -360 l 256 -360 q 256 -384 260 -400 l 260 -400 q 256 -417 256 -440 l 256 -440 q 256 -464 260 -480 l 260 -480 l 120 -480 q 124 -464 124 -440 l 124 -440 q 124 -417 120 -400 l 120 -400 l 60 -400 q 56 -417 56 -440 l 56 -440 q 56 -464 60 -480 l 60 -480 l 100 -480 q 96 -497 96 -520 l 96 -520 q 96 -544 100 -560 l 100 -560 l 300 -560 q 304 -544 304 -520 l 304 -520 q 304 -497 300 -480 l 300 -480 l 340 -480 q 344 -464 344 -440 l 344 -440 q 344 -417 340 -400 l 340 -400 q 344 -384 344 -360 l 344 -360"},"3":{"ha":400,"x_min":56,"x_max":344,"o":"m 344 -360 q 344 -337 340 -320 l 340 -320 l 300 -320 q 304 -304 304 -280 l 304 -280 q 304 -257 300 -240 l 300 -240 l 340 -240 q 344 -224 344 -200 l 344 -200 q 344 -177 340 -160 l 340 -160 q 344 -144 344 -120 l 344 -120 q 344 -97 340 -80 l 340 -80 l 300 -80 q 304 -64 304 -40 l 304 -40 q 304 -17 300 0 l 300 0 l 100 0 q 96 -17 96 -40 l 96 -40 q 96 -64 100 -80 l 100 -80 l 60 -80 q 56 -97 56 -120 l 56 -120 q 56 -144 60 -160 l 60 -160 l 140 -160 q 144 -144 144 -120 l 144 -120 q 144 -97 140 -80 l 140 -80 l 260 -80 q 256 -97 256 -120 l 256 -120 q 256 -144 260 -160 l 260 -160 q 256 -177 256 -200 l 256 -200 q 256 -224 260 -240 l 260 -240 l 160 -240 q 156 -257 156 -280 l 156 -280 q 156 -304 160 -320 l 160 -320 l 260 -320 q 256 -337 256 -360 l 256 -360 q 256 -384 260 -400 l 260 -400 q 256 -417 256 -440 l 256 -440 q 256 -464 260 -480 l 260 -480 l 140 -480 q 144 -464 144 -440 l 144 -440 q 144 -417 140 -400 l 140 -400 l 60 -400 q 56 -417 56 -440 l 56 -440 q 56 -464 60 -480 l 60 -480 l 100 -480 q 96 -497 96 -520 l 96 -520 q 96 -544 100 -560 l 100 -560 l 300 -560 q 304 -544 304 -520 l 304 -520 q 304 -497 300 -480 l 300 -480 l 340 -480 q 344 -464 344 -440 l 344 -440 q 344 -417 340 -400 l 340 -400 q 344 -384 344 -360 l 344 -360"},"4":{"ha":400,"x_min":36,"x_max":364,"o":"m 364 -200 q 364 -177 360 -160 l 360 -160 l 320 -160 q 324 -144 324 -120 l 324 -120 q 324 -97 320 -80 l 320 -80 q 324 -64 324 -40 l 324 -40 q 324 -17 320 0 l 320 0 l 240 0 q 236 -17 236 -40 l 236 -40 q 236 -64 240 -80 l 240 -80 q 236 -97 236 -120 l 236 -120 q 236 -144 240 -160 l 240 -160 l 40 -160 q 36 -177 36 -200 l 36 -200 q 36 -224 40 -240 l 40 -240 l 70 -240 q 66 -257 66 -280 l 66 -280 q 66 -304 70 -320 l 70 -320 l 100 -320 q 96 -337 96 -360 l 96 -360 q 96 -384 100 -400 l 100 -400 l 130 -400 q 126 -417 126 -440 l 126 -440 q 126 -464 130 -480 l 130 -480 l 180 -480 q 184 -464 184 -440 l 184 -440 q 184 -417 180 -400 l 180 -400 l 150 -400 q 154 -384 154 -360 l 154 -360 q 154 -337 150 -320 l 150 -320 l 120 -320 q 124 -304 124 -280 l 124 -280 q 124 -257 120 -240 l 120 -240 l 240 -240 q 236 -257 236 -280 l 236 -280 q 236 -304 240 -320 l 240 -320 q 236 -337 236 -360 l 236 -360 q 236 -384 240 -400 l 240 -400 q 236 -417 236 -440 l 236 -440 q 236 -464 240 -480 l 240 -480 l 180 -480 q 176 -497 176 -520 l 176 -520 q 176 -544 180 -560 l 180 -560 l 320 -560 q 324 -544 324 -520 l 324 -520 q 324 -497 320 -480 l 320 -480 q 324 -464 324 -440 l 324 -440 q 324 -417 320 -400 l 320 -400 q 324 -384 324 -360 l 324 -360 q 324 -337 320 -320 l 320 -320 q 324 -304 324 -280 l 324 -280 q 324 -257 320 -240 l 320 -240 l 360 -240 q 364 -224 364 -200 l 364 -200"},"5":{"ha":400,"x_min":56,"x_max":364,"o":"m 144 -360 q 144 -337 140 -320 l 140 -320 l 170 -320 q 174 -304 174 -280 l 174 -280 q 174 -257 170 -240 l 170 -240 l 60 -240 q 56 -257 56 -280 l 56 -280 q 56 -304 60 -320 l 60 -320 q 56 -337 56 -360 l 56 -360 q 56 -384 60 -400 l 60 -400 q 56 -417 56 -440 l 56 -440 q 56 -464 60 -480 l 60 -480 q 56 -497 56 -520 l 56 -520 q 56 -544 60 -560 l 60 -560 l 330 -560 q 334 -544 334 -520 l 334 -520 q 334 -497 330 -480 l 330 -480 l 140 -480 q 144 -464 144 -440 l 144 -440 q 144 -417 140 -400 l 140 -400 q 144 -384 144 -360 l 144 -360 m 364 -200 q 364 -177 360 -160 l 360 -160 l 330 -160 q 334 -144 334 -120 l 334 -120 q 334 -97 330 -80 l 330 -80 l 280 -80 q 284 -64 284 -40 l 284 -40 q 284 -17 280 0 l 280 0 l 100 0 q 96 -17 96 -40 l 96 -40 q 96 -64 100 -80 l 100 -80 l 60 -80 q 56 -97 56 -120 l 56 -120 q 56 -144 60 -160 l 60 -160 l 120 -160 q 124 -144 124 -120 l 124 -120 q 124 -97 120 -80 l 120 -80 l 250 -80 q 246 -97 246 -120 l 246 -120 q 246 -144 250 -160 l 250 -160 l 280 -160 q 276 -177 276 -200 l 276 -200 q 276 -224 280 -240 l 280 -240 l 250 -240 q 246 -257 246 -280 l 246 -280 q 246 -304 250 -320 l 250 -320 l 170 -320 q 166 -337 166 -360 l 166 -360 q 166 -384 170 -400 l 170 -400 l 280 -400 q 284 -384 284 -360 l 284 -360 q 284 -337 280 -320 l 280 -320 l 330 -320 q 334 -304 334 -280 l 334 -280 q 334 -257 330 -240 l 330 -240 l 360 -240 q 364 -224 364 -200 l 364 -200"},"6":{"ha":400,"x_min":51,"x_max":349,"o":"m 309 -520 q 309 -497 305 -480 l 305 -480 l 165 -480 q 161 -497 161 -520 l 161 -520 q 161 -544 165 -560 l 165 -560 l 305 -560 q 309 -544 309 -520 l 309 -520 m 165 -160 q 169 -144 169 -120 l 169 -120 q 169 -97 165 -80 l 165 -80 l 85 -80 q 81 -97 81 -120 l 81 -120 q 81 -144 85 -160 l 85 -160 l 55 -160 q 51 -177 51 -200 l 51 -200 q 51 -224 55 -240 l 55 -240 q 51 -257 51 -280 l 51 -280 q 51 -304 55 -320 l 55 -320 q 51 -337 51 -360 l 51 -360 q 51 -384 55 -400 l 55 -400 l 85 -400 q 81 -417 81 -440 l 81 -440 q 81 -464 85 -480 l 85 -480 l 165 -480 q 169 -464 169 -440 l 169 -440 q 169 -417 165 -400 l 165 -400 l 135 -400 q 139 -384 139 -360 l 139 -360 q 139 -337 135 -320 l 135 -320 q 139 -304 139 -280 l 139 -280 q 139 -257 135 -240 l 135 -240 l 165 -240 q 169 -224 169 -200 l 169 -200 q 169 -177 165 -160 l 165 -160 m 349 -200 q 349 -177 345 -160 l 345 -160 q 349 -144 349 -120 l 349 -120 q 349 -97 345 -80 l 345 -80 l 285 -80 q 289 -64 289 -40 l 289 -40 q 289 -17 285 0 l 285 0 l 165 0 q 161 -17 161 -40 l 161 -40 q 161 -64 165 -80 l 165 -80 l 265 -80 q 261 -97 261 -120 l 261 -120 q 261 -144 265 -160 l 265 -160 q 261 -177 261 -200 l 261 -200 q 261 -224 265 -240 l 265 -240 l 165 -240 q 161 -257 161 -280 l 161 -280 q 161 -304 165 -320 l 165 -320 l 305 -320 q 309 -304 309 -280 l 309 -280 q 309 -257 305 -240 l 305 -240 l 345 -240 q 349 -224 349 -200 l 349 -200"},"7":{"ha":400,"x_min":56,"x_max":344,"o":"m 344 -520 q 344 -497 340 -480 l 340 -480 q 344 -464 344 -440 l 344 -440 q 344 -417 340 -400 l 340 -400 l 310 -400 q 314 -384 314 -360 l 314 -360 q 314 -337 310 -320 l 310 -320 l 280 -320 q 284 -304 284 -280 l 284 -280 q 284 -257 280 -240 l 280 -240 l 250 -240 q 254 -224 254 -200 l 254 -200 q 254 -177 250 -160 l 250 -160 l 220 -160 q 224 -144 224 -120 l 224 -120 q 224 -97 220 -80 l 220 -80 l 190 -80 q 194 -64 194 -40 l 194 -40 q 194 -17 190 0 l 190 0 l 110 0 q 106 -17 106 -40 l 106 -40 q 106 -64 110 -80 l 110 -80 l 140 -80 q 136 -97 136 -120 l 136 -120 q 136 -144 140 -160 l 140 -160 l 170 -160 q 166 -177 166 -200 l 166 -200 q 166 -224 170 -240 l 170 -240 l 200 -240 q 196 -257 196 -280 l 196 -280 q 196 -304 200 -320 l 200 -320 l 230 -320 q 226 -337 226 -360 l 226 -360 q 226 -384 230 -400 l 230 -400 l 260 -400 q 256 -417 256 -440 l 256 -440 q 256 -464 260 -480 l 260 -480 l 60 -480 q 56 -497 56 -520 l 56 -520 q 56 -544 60 -560 l 60 -560 l 340 -560 q 344 -544 344 -520 l 344 -520"},"8":{"ha":400,"x_min":66,"x_max":334,"o":"m 334 -360 q 334 -337 330 -320 l 330 -320 l 280 -320 q 284 -304 284 -280 l 284 -280 q 284 -257 280 -240 l 280 -240 l 330 -240 q 334 -224 334 -200 l 334 -200 q 334 -177 330 -160 l 330 -160 q 334 -144 334 -120 l 334 -120 q 334 -97 330 -80 l 330 -80 l 280 -80 q 284 -64 284 -40 l 284 -40 q 284 -17 280 0 l 280 0 l 120 0 q 116 -17 116 -40 l 116 -40 q 116 -64 120 -80 l 120 -80 l 70 -80 q 66 -97 66 -120 l 66 -120 q 66 -144 70 -160 l 70 -160 q 66 -177 66 -200 l 66 -200 q 66 -224 70 -240 l 70 -240 l 120 -240 q 116 -257 116 -280 l 116 -280 q 116 -304 120 -320 l 120 -320 l 70 -320 q 66 -337 66 -360 l 66 -360 q 66 -384 70 -400 l 70 -400 q 66 -417 66 -440 l 66 -440 q 66 -464 70 -480 l 70 -480 l 120 -480 q 116 -497 116 -520 l 116 -520 q 116 -544 120 -560 l 120 -560 l 280 -560 q 284 -544 284 -520 l 284 -520 q 284 -497 280 -480 l 280 -480 l 330 -480 q 334 -464 334 -440 l 334 -440 q 334 -417 330 -400 l 330 -400 q 334 -384 334 -360 l 334 -360 m 250 -320 q 246 -337 246 -360 l 246 -360 q 246 -384 250 -400 l 250 -400 q 246 -417 246 -440 l 246 -440 q 246 -464 250 -480 l 250 -480 l 150 -480 q 154 -464 154 -440 l 154 -440 q 154 -417 150 -400 l 150 -400 q 154 -384 154 -360 l 154 -360 q 154 -337 150 -320 l 150 -320 l 250 -320 m 250 -160 q 246 -177 246 -200 l 246 -200 q 246 -224 250 -240 l 250 -240 l 150 -240 q 154 -224 154 -200 l 154 -200 q 154 -177 150 -160 l 150 -160 q 154 -144 154 -120 l 154 -120 q 154 -97 150 -80 l 150 -80 l 250 -80 q 246 -97 246 -120 l 246 -120 q 246 -144 250 -160 l 250 -160"},"9":{"ha":400,"x_min":51,"x_max":349,"o":"m 139 -360 q 139 -337 135 -320 l 135 -320 l 235 -320 q 239 -304 239 -280 l 239 -280 q 239 -257 235 -240 l 235 -240 l 95 -240 q 91 -257 91 -280 l 91 -280 q 91 -304 95 -320 l 95 -320 l 55 -320 q 51 -337 51 -360 l 51 -360 q 51 -384 55 -400 l 55 -400 q 51 -417 51 -440 l 51 -440 q 51 -464 55 -480 l 55 -480 l 115 -480 q 111 -497 111 -520 l 111 -520 q 111 -544 115 -560 l 115 -560 l 235 -560 q 239 -544 239 -520 l 239 -520 q 239 -497 235 -480 l 235 -480 l 135 -480 q 139 -464 139 -440 l 139 -440 q 139 -417 135 -400 l 135 -400 q 139 -384 139 -360 l 139 -360 m 345 -320 q 349 -304 349 -280 l 349 -280 q 349 -257 345 -240 l 345 -240 q 349 -224 349 -200 l 349 -200 q 349 -177 345 -160 l 345 -160 l 315 -160 q 319 -144 319 -120 l 319 -120 q 319 -97 315 -80 l 315 -80 l 235 -80 q 231 -97 231 -120 l 231 -120 q 231 -144 235 -160 l 235 -160 l 265 -160 q 261 -177 261 -200 l 261 -200 q 261 -224 265 -240 l 265 -240 q 261 -257 261 -280 l 261 -280 q 261 -304 265 -320 l 265 -320 l 235 -320 q 231 -337 231 -360 l 231 -360 q 231 -384 235 -400 l 235 -400 q 231 -417 231 -440 l 231 -440 q 231 -464 235 -480 l 235 -480 l 315 -480 q 319 -464 319 -440 l 319 -440 q 319 -417 315 -400 l 315 -400 l 345 -400 q 349 -384 349 -360 l 349 -360 q 349 -337 345 -320 l 345 -320 m 91 -40 q 91 -64 95 -80 l 95 -80 l 235 -80 q 239 -64 239 -40 l 239 -40 q 239 -17 235 0 l 235 0 l 95 0 q 91 -17 91 -40 l 91 -40"},"\u0000":{"ha":0,"x_min":0,"x_max":0,"o":""},"\r":{"ha":400,"x_min":0,"x_max":0,"o":""}," ":{"ha":400,"x_min":0,"x_max":0,"o":""},"A":{"ha":400,"x_min":36,"x_max":364,"o":"m 364 -120 q 364 -97 360 -80 l 360 -80 q 364 -64 364 -40 l 364 -40 q 364 -17 360 0 l 360 0 l 280 0 q 276 -17 276 -40 l 276 -40 q 276 -64 280 -80 l 280 -80 q 276 -97 276 -120 l 276 -120 q 276 -144 280 -160 l 280 -160 l 120 -160 q 124 -144 124 -120 l 124 -120 q 124 -97 120 -80 l 120 -80 q 124 -64 124 -40 l 124 -40 q 124 -17 120 0 l 120 0 l 40 0 q 36 -17 36 -40 l 36 -40 q 36 -64 40 -80 l 40 -80 q 36 -97 36 -120 l 36 -120 q 36 -144 40 -160 l 40 -160 l 70 -160 q 66 -177 66 -200 l 66 -200 q 66 -224 70 -240 l 70 -240 q 66 -257 66 -280 l 66 -280 q 66 -304 70 -320 l 70 -320 l 90 -320 q 86 -337 86 -360 l 86 -360 q 86 -384 90 -400 l 90 -400 l 120 -400 q 116 -417 116 -440 l 116 -440 q 116 -464 120 -480 l 120 -480 l 140 -480 q 136 -497 136 -520 l 136 -520 q 136 -544 140 -560 l 140 -560 l 260 -560 q 264 -544 264 -520 l 264 -520 q 264 -497 260 -480 l 260 -480 l 280 -480 q 284 -464 284 -440 l 284 -440 q 284 -417 280 -400 l 280 -400 l 310 -400 q 314 -384 314 -360 l 314 -360 q 314 -337 310 -320 l 310 -320 l 330 -320 q 334 -304 334 -280 l 334 -280 q 334 -257 330 -240 l 330 -240 q 334 -224 334 -200 l 334 -200 q 334 -177 330 -160 l 330 -160 l 360 -160 q 364 -144 364 -120 l 364 -120 m 250 -240 q 246 -257 246 -280 l 246 -280 q 246 -304 250 -320 l 250 -320 l 230 -320 q 226 -337 226 -360 l 226 -360 q 226 -384 230 -400 l 230 -400 l 170 -400 q 174 -384 174 -360 l 174 -360 q 174 -337 170 -320 l 170 -320 l 150 -320 q 154 -304 154 -280 l 154 -280 q 154 -257 150 -240 l 150 -240 l 250 -240"},"Á":{"ha":400,"x_min":36,"x_max":364,"o":"m 240 -640 l 160 -640 q 156 -657 156 -680 l 156 -680 q 156 -704 160 -720 l 160 -720 l 200 -720 q 196 -737 196 -760 l 196 -760 q 196 -784 200 -800 l 200 -800 l 280 -800 q 284 -784 284 -760 l 284 -760 q 284 -737 280 -720 l 280 -720 l 240 -720 q 244 -704 244 -680 l 244 -680 q 244 -657 240 -640 l 240 -640 m 364 -120 q 364 -97 360 -80 l 360 -80 q 364 -64 364 -40 l 364 -40 q 364 -17 360 0 l 360 0 l 280 0 q 276 -17 276 -40 l 276 -40 q 276 -64 280 -80 l 280 -80 q 276 -97 276 -120 l 276 -120 q 276 -144 280 -160 l 280 -160 l 120 -160 q 124 -144 124 -120 l 124 -120 q 124 -97 120 -80 l 120 -80 q 124 -64 124 -40 l 124 -40 q 124 -17 120 0 l 120 0 l 40 0 q 36 -17 36 -40 l 36 -40 q 36 -64 40 -80 l 40 -80 q 36 -97 36 -120 l 36 -120 q 36 -144 40 -160 l 40 -160 l 70 -160 q 66 -177 66 -200 l 66 -200 q 66 -224 70 -240 l 70 -240 q 66 -257 66 -280 l 66 -280 q 66 -304 70 -320 l 70 -320 l 90 -320 q 86 -337 86 -360 l 86 -360 q 86 -384 90 -400 l 90 -400 l 120 -400 q 116 -417 116 -440 l 116 -440 q 116 -464 120 -480 l 120 -480 l 140 -480 q 136 -497 136 -520 l 136 -520 q 136 -544 140 -560 l 140 -560 l 260 -560 q 264 -544 264 -520 l 264 -520 q 264 -497 260 -480 l 260 -480 l 280 -480 q 284 -464 284 -440 l 284 -440 q 284 -417 280 -400 l 280 -400 l 310 -400 q 314 -384 314 -360 l 314 -360 q 314 -337 310 -320 l 310 -320 l 330 -320 q 334 -304 334 -280 l 334 -280 q 334 -257 330 -240 l 330 -240 q 334 -224 334 -200 l 334 -200 q 334 -177 330 -160 l 330 -160 l 360 -160 q 364 -144 364 -120 l 364 -120 m 250 -240 q 246 -257 246 -280 l 246 -280 q 246 -304 250 -320 l 250 -320 l 230 -320 q 226 -337 226 -360 l 226 -360 q 226 -384 230 -400 l 230 -400 l 170 -400 q 174 -384 174 -360 l 174 -360 q 174 -337 170 -320 l 170 -320 l 150 -320 q 154 -304 154 -280 l 154 -280 q 154 -257 150 -240 l 150 -240 l 250 -240"},"Ă":{"ha":400,"x_min":36,"x_max":364,"o":"m 364 -120 q 364 -97 360 -80 l 360 -80 q 364 -64 364 -40 l 364 -40 q 364 -17 360 0 l 360 0 l 280 0 q 276 -17 276 -40 l 276 -40 q 276 -64 280 -80 l 280 -80 q 276 -97 276 -120 l 276 -120 q 276 -144 280 -160 l 280 -160 l 120 -160 q 124 -144 124 -120 l 124 -120 q 124 -97 120 -80 l 120 -80 q 124 -64 124 -40 l 124 -40 q 124 -17 120 0 l 120 0 l 40 0 q 36 -17 36 -40 l 36 -40 q 36 -64 40 -80 l 40 -80 q 36 -97 36 -120 l 36 -120 q 36 -144 40 -160 l 40 -160 l 70 -160 q 66 -177 66 -200 l 66 -200 q 66 -224 70 -240 l 70 -240 q 66 -257 66 -280 l 66 -280 q 66 -304 70 -320 l 70 -320 l 90 -320 q 86 -337 86 -360 l 86 -360 q 86 -384 90 -400 l 90 -400 l 120 -400 q 116 -417 116 -440 l 116 -440 q 116 -464 120 -480 l 120 -480 l 140 -480 q 136 -497 136 -520 l 136 -520 q 136 -544 140 -560 l 140 -560 l 260 -560 q 264 -544 264 -520 l 264 -520 q 264 -497 260 -480 l 260 -480 l 280 -480 q 284 -464 284 -440 l 284 -440 q 284 -417 280 -400 l 280 -400 l 310 -400 q 314 -384 314 -360 l 314 -360 q 314 -337 310 -320 l 310 -320 l 330 -320 q 334 -304 334 -280 l 334 -280 q 334 -257 330 -240 l 330 -240 q 334 -224 334 -200 l 334 -200 q 334 -177 330 -160 l 330 -160 l 360 -160 q 364 -144 364 -120 l 364 -120 m 250 -240 q 246 -257 246 -280 l 246 -280 q 246 -304 250 -320 l 250 -320 l 230 -320 q 226 -337 226 -360 l 226 -360 q 226 -384 230 -400 l 230 -400 l 170 -400 q 174 -384 174 -360 l 174 -360 q 174 -337 170 -320 l 170 -320 l 150 -320 q 154 -304 154 -280 l 154 -280 q 154 -257 150 -240 l 150 -240 l 250 -240 m 40 -800 l 120 -800 q 124 -784 124 -760 l 124 -760 q 124 -737 120 -720 l 120 -720 l 40 -720 q 36 -737 36 -760 l 36 -760 q 36 -784 40 -800 l 40 -800 m 280 -800 l 360 -800 q 364 -784 364 -760 l 364 -760 q 364 -737 360 -720 l 360 -720 l 280 -720 q 276 -737 276 -760 l 276 -760 q 276 -784 280 -800 l 280 -800 m 120 -720 l 280 -720 q 284 -704 284 -680 l 284 -680 q 284 -657 280 -640 l 280 -640 l 120 -640 q 116 -657 116 -680 l 116 -680 q 116 -704 120 -720 l 120 -720"},"Ắ":{"ha":400,"x_min":36,"x_max":364,"o":"m 240 -800 l 160 -800 q 156 -817 156 -840 l 156 -840 q 156 -864 160 -880 l 160 -880 l 200 -880 q 196 -897 196 -920 l 196 -920 q 196 -944 200 -960 l 200 -960 l 280 -960 q 284 -944 284 -920 l 284 -920 q 284 -897 280 -880 l 280 -880 l 240 -880 q 244 -864 244 -840 l 244 -840 q 244 -817 240 -800 l 240 -800 m 120 -720 l 40 -720 q 36 -737 36 -760 l 36 -760 q 36 -784 40 -800 l 40 -800 l 120 -800 q 124 -784 124 -760 l 124 -760 q 124 -737 120 -720 l 120 -720 m 364 -760 q 364 -737 360 -720 l 360 -720 l 280 -720 q 276 -737 276 -760 l 276 -760 q 276 -784 280 -800 l 280 -800 l 360 -800 q 364 -784 364 -760 l 364 -760 m 120 -640 q 116 -657 116 -680 l 116 -680 q 116 -704 120 -720 l 120 -720 l 280 -720 q 284 -704 284 -680 l 284 -680 q 284 -657 280 -640 l 280 -640 l 120 -640 m 360 -160 q 364 -144 364 -120 l 364 -120 q 364 -97 360 -80 l 360 -80 q 364 -64 364 -40 l 364 -40 q 364 -17 360 0 l 360 0 l 280 0 q 276 -17 276 -40 l 276 -40 q 276 -64 280 -80 l 280 -80 q 276 -97 276 -120 l 276 -120 q 276 -144 280 -160 l 280 -160 l 120 -160 q 124 -144 124 -120 l 124 -120 q 124 -97 120 -80 l 120 -80 q 124 -64 124 -40 l 124 -40 q 124 -17 120 0 l 120 0 l 40 0 q 36 -17 36 -40 l 36 -40 q 36 -64 40 -80 l 40 -80 q 36 -97 36 -120 l 36 -120 q 36 -144 40 -160 l 40 -160 l 70 -160 q 66 -177 66 -200 l 66 -200 q 66 -224 70 -240 l 70 -240 q 66 -257 66 -280 l 66 -280 q 66 -304 70 -320 l 70 -320 l 90 -320 q 86 -337 86 -360 l 86 -360 q 86 -384 90 -400 l 90 -400 l 120 -400 q 116 -417 116 -440 l 116 -440 q 116 -464 120 -480 l 120 -480 l 140 -480 q 136 -497 136 -520 l 136 -520 q 136 -544 140 -560 l 140 -560 l 260 -560 q 264 -544 264 -520 l 264 -520 q 264 -497 260 -480 l 260 -480 l 280 -480 q 284 -464 284 -440 l 284 -440 q 284 -417 280 -400 l 280 -400 l 310 -400 q 314 -384 314 -360 l 314 -360 q 314 -337 310 -320 l 310 -320 l 330 -320 q 334 -304 334 -280 l 334 -280 q 334 -257 330 -240 l 330 -240 q 334 -224 334 -200 l 334 -200 q 334 -177 330 -160 l 330 -160 l 360 -160 m 250 -240 q 246 -257 246 -280 l 246 -280 q 246 -304 250 -320 l 250 -320 l 230 -320 q 226 -337 226 -360 l 226 -360 q 226 -384 230 -400 l 230 -400 l 170 -400 q 174 -384 174 -360 l 174 -360 q 174 -337 170 -320 l 170 -320 l 150 -320 q 154 -304 154 -280 l 154 -280 q 154 -257 150 -240 l 150 -240 l 250 -240"},"Ặ":{"ha":400,"x_min":36,"x_max":364,"o":"m 364 -120 q 364 -97 360 -80 l 360 -80 q 364 -64 364 -40 l 364 -40 q 364 -17 360 0 l 360 0 l 280 0 q 276 -17 276 -40 l 276 -40 q 276 -64 280 -80 l 280 -80 q 276 -97 276 -120 l 276 -120 q 276 -144 280 -160 l 280 -160 l 120 -160 q 124 -144 124 -120 l 124 -120 q 124 -97 120 -80 l 120 -80 q 124 -64 124 -40 l 124 -40 q 124 -17 120 0 l 120 0 l 40 0 q 36 -17 36 -40 l 36 -40 q 36 -64 40 -80 l 40 -80 q 36 -97 36 -120 l 36 -120 q 36 -144 40 -160 l 40 -160 l 70 -160 q 66 -177 66 -200 l 66 -200 q 66 -224 70 -240 l 70 -240 q 66 -257 66 -280 l 66 -280 q 66 -304 70 -320 l 70 -320 l 90 -320 q 86 -337 86 -360 l 86 -360 q 86 -384 90 -400 l 90 -400 l 120 -400 q 116 -417 116 -440 l 116 -440 q 116 -464 120 -480 l 120 -480 l 140 -480 q 136 -497 136 -520 l 136 -520 q 136 -544 140 -560 l 140 -560 l 260 -560 q 264 -544 264 -520 l 264 -520 q 264 -497 260 -480 l 260 -480 l 280 -480 q 284 -464 284 -440 l 284 -440 q 284 -417 280 -400 l 280 -400 l 310 -400 q 314 -384 314 -360 l 314 -360 q 314 -337 310 -320 l 310 -320 l 330 -320 q 334 -304 334 -280 l 334 -280 q 334 -257 330 -240 l 330 -240 q 334 -224 334 -200 l 334 -200 q 334 -177 330 -160 l 330 -160 l 360 -160 q 364 -144 364 -120 l 364 -120 m 250 -240 q 246 -257 246 -280 l 246 -280 q 246 -304 250 -320 l 250 -320 l 230 -320 q 226 -337 226 -360 l 226 -360 q 226 -384 230 -400 l 230 -400 l 170 -400 q 174 -384 174 -360 l 174 -360 q 174 -337 170 -320 l 170 -320 l 150 -320 q 154 -304 154 -280 l 154 -280 q 154 -257 150 -240 l 150 -240 l 250 -240 m 160 80 l 240 80 q 244 96 244 120 l 244 120 q 244 143 240 160 l 240 160 l 160 160 q 156 143 156 120 l 156 120 q 156 96 160 80 l 160 80 m 40 -800 l 120 -800 q 124 -784 124 -760 l 124 -760 q 124 -737 120 -720 l 120 -720 l 40 -720 q 36 -737 36 -760 l 36 -760 q 36 -784 40 -800 l 40 -800 m 280 -800 l 360 -800 q 364 -784 364 -760 l 364 -760 q 364 -737 360 -720 l 360 -720 l 280 -720 q 276 -737 276 -760 l 276 -760 q 276 -784 280 -800 l 280 -800 m 120 -720 l 280 -720 q 284 -704 284 -680 l 284 -680 q 284 -657 280 -640 l 280 -640 l 120 -640 q 116 -657 116 -680 l 116 -680 q 116 -704 120 -720 l 120 -720"},"Ằ":{"ha":400,"x_min":36,"x_max":364,"o":"m 160 -880 l 120 -880 q 116 -897 116 -920 l 116 -920 q 116 -944 120 -960 l 120 -960 l 200 -960 q 204 -944 204 -920 l 204 -920 q 204 -897 200 -880 l 200 -880 l 240 -880 q 244 -864 244 -840 l 244 -840 q 244 -817 240 -800 l 240 -800 l 160 -800 q 156 -817 156 -840 l 156 -840 q 156 -864 160 -880 l 160 -880 m 120 -720 l 40 -720 q 36 -737 36 -760 l 36 -760 q 36 -784 40 -800 l 40 -800 l 120 -800 q 124 -784 124 -760 l 124 -760 q 124 -737 120 -720 l 120 -720 m 364 -760 q 364 -737 360 -720 l 360 -720 l 280 -720 q 276 -737 276 -760 l 276 -760 q 276 -784 280 -800 l 280 -800 l 360 -800 q 364 -784 364 -760 l 364 -760 m 120 -640 q 116 -657 116 -680 l 116 -680 q 116 -704 120 -720 l 120 -720 l 280 -720 q 284 -704 284 -680 l 284 -680 q 284 -657 280 -640 l 280 -640 l 120 -640 m 360 -160 q 364 -144 364 -120 l 364 -120 q 364 -97 360 -80 l 360 -80 q 364 -64 364 -40 l 364 -40 q 364 -17 360 0 l 360 0 l 280 0 q 276 -17 276 -40 l 276 -40 q 276 -64 280 -80 l 280 -80 q 276 -97 276 -120 l 276 -120 q 276 -144 280 -160 l 280 -160 l 120 -160 q 124 -144 124 -120 l 124 -120 q 124 -97 120 -80 l 120 -80 q 124 -64 124 -40 l 124 -40 q 124 -17 120 0 l 120 0 l 40 0 q 36 -17 36 -40 l 36 -40 q 36 -64 40 -80 l 40 -80 q 36 -97 36 -120 l 36 -120 q 36 -144 40 -160 l 40 -160 l 70 -160 q 66 -177 66 -200 l 66 -200 q 66 -224 70 -240 l 70 -240 q 66 -257 66 -280 l 66 -280 q 66 -304 70 -320 l 70 -320 l 90 -320 q 86 -337 86 -360 l 86 -360 q 86 -384 90 -400 l 90 -400 l 120 -400 q 116 -417 116 -440 l 116 -440 q 116 -464 120 -480 l 120 -480 l 140 -480 q 136 -497 136 -520 l 136 -520 q 136 -544 140 -560 l 140 -560 l 260 -560 q 264 -544 264 -520 l 264 -520 q 264 -497 260 -480 l 260 -480 l 280 -480 q 284 -464 284 -440 l 284 -440 q 284 -417 280 -400 l 280 -400 l 310 -400 q 314 -384 314 -360 l 314 -360 q 314 -337 310 -320 l 310 -320 l 330 -320 q 334 -304 334 -280 l 334 -280 q 334 -257 330 -240 l 330 -240 q 334 -224 334 -200 l 334 -200 q 334 -177 330 -160 l 330 -160 l 360 -160 m 250 -240 q 246 -257 246 -280 l 246 -280 q 246 -304 250 -320 l 250 -320 l 230 -320 q 226 -337 226 -360 l 226 -360 q 226 -384 230 -400 l 230 -400 l 170 -400 q 174 -384 174 -360 l 174 -360 q 174 -337 170 -320 l 170 -320 l 150 -320 q 154 -304 154 -280 l 154 -280 q 154 -257 150 -240 l 150 -240 l 250 -240"},"Ẳ":{"ha":400,"x_min":36,"x_max":364,"o":"m 364 -120 q 364 -97 360 -80 l 360 -80 q 364 -64 364 -40 l 364 -40 q 364 -17 360 0 l 360 0 l 280 0 q 276 -17 276 -40 l 276 -40 q 276 -64 280 -80 l 280 -80 q 276 -97 276 -120 l 276 -120 q 276 -144 280 -160 l 280 -160 l 120 -160 q 124 -144 124 -120 l 124 -120 q 124 -97 120 -80 l 120 -80 q 124 -64 124 -40 l 124 -40 q 124 -17 120 0 l 120 0 l 40 0 q 36 -17 36 -40 l 36 -40 q 36 -64 40 -80 l 40 -80 q 36 -97 36 -120 l 36 -120 q 36 -144 40 -160 l 40 -160 l 70 -160 q 66 -177 66 -200 l 66 -200 q 66 -224 70 -240 l 70 -240 q 66 -257 66 -280 l 66 -280 q 66 -304 70 -320 l 70 -320 l 90 -320 q 86 -337 86 -360 l 86 -360 q 86 -384 90 -400 l 90 -400 l 120 -400 q 116 -417 116 -440 l 116 -440 q 116 -464 120 -480 l 120 -480 l 140 -480 q 136 -497 136 -520 l 136 -520 q 136 -544 140 -560 l 140 -560 l 260 -560 q 264 -544 264 -520 l 264 -520 q 264 -497 260 -480 l 260 -480 l 280 -480 q 284 -464 284 -440 l 284 -440 q 284 -417 280 -400 l 280 -400 l 310 -400 q 314 -384 314 -360 l 314 -360 q 314 -337 310 -320 l 310 -320 l 330 -320 q 334 -304 334 -280 l 334 -280 q 334 -257 330 -240 l 330 -240 q 334 -224 334 -200 l 334 -200 q 334 -177 330 -160 l 330 -160 l 360 -160 q 364 -144 364 -120 l 364 -120 m 250 -240 q 246 -257 246 -280 l 246 -280 q 246 -304 250 -320 l 250 -320 l 230 -320 q 226 -337 226 -360 l 226 -360 q 226 -384 230 -400 l 230 -400 l 170 -400 q 174 -384 174 -360 l 174 -360 q 174 -337 170 -320 l 170 -320 l 150 -320 q 154 -304 154 -280 l 154 -280 q 154 -257 150 -240 l 150 -240 l 250 -240 m 200 -880 l 160 -880 q 156 -897 156 -920 l 156 -920 q 156 -944 160 -960 l 160 -960 l 240 -960 q 244 -944 244 -920 l 244 -920 q 244 -897 240 -880 l 240 -880 q 244 -864 244 -840 l 244 -840 q 244 -817 240 -800 l 240 -800 l 200 -800 q 196 -817 196 -840 l 196 -840 q 196 -864 200 -880 l 200 -880 m 120 -800 q 124 -784 124 -760 l 124 -760 q 124 -737 120 -720 l 120 -720 l 40 -720 q 36 -737 36 -760 l 36 -760 q 36 -784 40 -800 l 40 -800 l 120 -800 m 364 -760 q 364 -737 360 -720 l 360 -720 l 280 -720 q 276 -737 276 -760 l 276 -760 q 276 -784 280 -800 l 280 -800 l 360 -800 q 364 -784 364 -760 l 364 -760 m 116 -680 q 116 -704 120 -720 l 120 -720 l 280 -720 q 284 -704 284 -680 l 284 -680 q 284 -657 280 -640 l 280 -640 l 120 -640 q 116 -657 116 -680 l 116 -680"},"Ẵ":{"ha":400,"x_min":36,"x_max":364,"o":"m 364 -120 q 364 -97 360 -80 l 360 -80 q 364 -64 364 -40 l 364 -40 q 364 -17 360 0 l 360 0 l 280 0 q 276 -17 276 -40 l 276 -40 q 276 -64 280 -80 l 280 -80 q 276 -97 276 -120 l 276 -120 q 276 -144 280 -160 l 280 -160 l 120 -160 q 124 -144 124 -120 l 124 -120 q 124 -97 120 -80 l 120 -80 q 124 -64 124 -40 l 124 -40 q 124 -17 120 0 l 120 0 l 40 0 q 36 -17 36 -40 l 36 -40 q 36 -64 40 -80 l 40 -80 q 36 -97 36 -120 l 36 -120 q 36 -144 40 -160 l 40 -160 l 70 -160 q 66 -177 66 -200 l 66 -200 q 66 -224 70 -240 l 70 -240 q 66 -257 66 -280 l 66 -280 q 66 -304 70 -320 l 70 -320 l 90 -320 q 86 -337 86 -360 l 86 -360 q 86 -384 90 -400 l 90 -400 l 120 -400 q 116 -417 116 -440 l 116 -440 q 116 -464 120 -480 l 120 -480 l 140 -480 q 136 -497 136 -520 l 136 -520 q 136 -544 140 -560 l 140 -560 l 260 -560 q 264 -544 264 -520 l 264 -520 q 264 -497 260 -480 l 260 -480 l 280 -480 q 284 -464 284 -440 l 284 -440 q 284 -417 280 -400 l 280 -400 l 310 -400 q 314 -384 314 -360 l 314 -360 q 314 -337 310 -320 l 310 -320 l 330 -320 q 334 -304 334 -280 l 334 -280 q 334 -257 330 -240 l 330 -240 q 334 -224 334 -200 l 334 -200 q 334 -177 330 -160 l 330 -160 l 360 -160 q 364 -144 364 -120 l 364 -120 m 250 -240 q 246 -257 246 -280 l 246 -280 q 246 -304 250 -320 l 250 -320 l 230 -320 q 226 -337 226 -360 l 226 -360 q 226 -384 230 -400 l 230 -400 l 170 -400 q 174 -384 174 -360 l 174 -360 q 174 -337 170 -320 l 170 -320 l 150 -320 q 154 -304 154 -280 l 154 -280 q 154 -257 150 -240 l 150 -240 l 250 -240 m 40 -800 l 120 -800 q 124 -784 124 -760 l 124 -760 q 124 -737 120 -720 l 120 -720 l 40 -720 q 36 -737 36 -760 l 36 -760 q 36 -784 40 -800 l 40 -800 m 280 -800 l 360 -800 q 364 -784 364 -760 l 364 -760 q 364 -737 360 -720 l 360 -720 l 280 -720 q 276 -737 276 -760 l 276 -760 q 276 -784 280 -800 l 280 -800 m 120 -720 l 280 -720 q 284 -704 284 -680 l 284 -680 q 284 -657 280 -640 l 280 -640 l 120 -640 q 116 -657 116 -680 l 116 -680 q 116 -704 120 -720 l 120 -720 m 224 -1000 q 224 -977 220 -960 l 220 -960 l 300 -960 q 304 -944 304 -920 l 304 -920 q 304 -897 300 -880 l 300 -880 l 180 -880 q 176 -897 176 -920 l 176 -920 q 176 -944 180 -960 l 180 -960 l 100 -960 q 96 -977 96 -1000 l 96 -1000 q 96 -1024 100 -1040 l 100 -1040 l 220 -1040 q 224 -1024 224 -1000 l 224 -1000 m 364 -1000 q 364 -977 360 -960 l 360 -960 l 300 -960 q 296 -977 296 -1000 l 296 -1000 q 296 -1024 300 -1040 l 300 -1040 l 360 -1040 q 364 -1024 364 -1000 l 364 -1000 m 36 -920 q 36 -944 40 -960 l 40 -960 l 100 -960 q 104 -944 104 -920 l 104 -920 q 104 -897 100 -880 l 100 -880 l 40 -880 q 36 -897 36 -920 l 36 -920"},"Â":{"ha":400,"x_min":36,"x_max":364,"o":"m 364 -120 q 364 -97 360 -80 l 360 -80 q 364 -64 364 -40 l 364 -40 q 364 -17 360 0 l 360 0 l 280 0 q 276 -17 276 -40 l 276 -40 q 276 -64 280 -80 l 280 -80 q 276 -97 276 -120 l 276 -120 q 276 -144 280 -160 l 280 -160 l 120 -160 q 124 -144 124 -120 l 124 -120 q 124 -97 120 -80 l 120 -80 q 124 -64 124 -40 l 124 -40 q 124 -17 120 0 l 120 0 l 40 0 q 36 -17 36 -40 l 36 -40 q 36 -64 40 -80 l 40 -80 q 36 -97 36 -120 l 36 -120 q 36 -144 40 -160 l 40 -160 l 70 -160 q 66 -177 66 -200 l 66 -200 q 66 -224 70 -240 l 70 -240 q 66 -257 66 -280 l 66 -280 q 66 -304 70 -320 l 70 -320 l 90 -320 q 86 -337 86 -360 l 86 -360 q 86 -384 90 -400 l 90 -400 l 120 -400 q 116 -417 116 -440 l 116 -440 q 116 -464 120 -480 l 120 -480 l 140 -480 q 136 -497 136 -520 l 136 -520 q 136 -544 140 -560 l 140 -560 l 260 -560 q 264 -544 264 -520 l 264 -520 q 264 -497 260 -480 l 260 -480 l 280 -480 q 284 -464 284 -440 l 284 -440 q 284 -417 280 -400 l 280 -400 l 310 -400 q 314 -384 314 -360 l 314 -360 q 314 -337 310 -320 l 310 -320 l 330 -320 q 334 -304 334 -280 l 334 -280 q 334 -257 330 -240 l 330 -240 q 334 -224 334 -200 l 334 -200 q 334 -177 330 -160 l 330 -160 l 360 -160 q 364 -144 364 -120 l 364 -120 m 250 -240 q 246 -257 246 -280 l 246 -280 q 246 -304 250 -320 l 250 -320 l 230 -320 q 226 -337 226 -360 l 226 -360 q 226 -384 230 -400 l 230 -400 l 170 -400 q 174 -384 174 -360 l 174 -360 q 174 -337 170 -320 l 170 -320 l 150 -320 q 154 -304 154 -280 l 154 -280 q 154 -257 150 -240 l 150 -240 l 250 -240 m 310 -720 q 314 -704 314 -680 l 314 -680 q 314 -657 310 -640 l 310 -640 l 230 -640 q 226 -657 226 -680 l 226 -680 q 226 -704 230 -720 l 230 -720 l 170 -720 q 174 -704 174 -680 l 174 -680 q 174 -657 170 -640 l 170 -640 l 90 -640 q 86 -657 86 -680 l 86 -680 q 86 -704 90 -720 l 90 -720 l 140 -720 q 136 -737 136 -760 l 136 -760 q 136 -784 140 -800 l 140 -800 l 260 -800 q 264 -784 264 -760 l 264 -760 q 264 -737 260 -720 l 260 -720 l 310 -720"},"Ấ":{"ha":400,"x_min":36,"x_max":404,"o":"m 404 -920 q 404 -897 400 -880 l 400 -880 l 360 -880 q 364 -864 364 -840 l 364 -840 q 364 -817 360 -800 l 360 -800 l 280 -800 q 276 -817 276 -840 l 276 -840 q 276 -864 280 -880 l 280 -880 l 320 -880 q 316 -897 316 -920 l 316 -920 q 316 -944 320 -960 l 320 -960 l 400 -960 q 404 -944 404 -920 l 404 -920 m 170 -640 l 90 -640 q 86 -657 86 -680 l 86 -680 q 86 -704 90 -720 l 90 -720 l 140 -720 q 136 -737 136 -760 l 136 -760 q 136 -784 140 -800 l 140 -800 l 260 -800 q 264 -784 264 -760 l 264 -760 q 264 -737 260 -720 l 260 -720 l 310 -720 q 314 -704 314 -680 l 314 -680 q 314 -657 310 -640 l 310 -640 l 230 -640 q 226 -657 226 -680 l 226 -680 q 226 -704 230 -720 l 230 -720 l 170 -720 q 174 -704 174 -680 l 174 -680 q 174 -657 170 -640 l 170 -640 m 360 -160 q 364 -144 364 -120 l 364 -120 q 364 -97 360 -80 l 360 -80 q 364 -64 364 -40 l 364 -40 q 364 -17 360 0 l 360 0 l 280 0 q 276 -17 276 -40 l 276 -40 q 276 -64 280 -80 l 280 -80 q 276 -97 276 -120 l 276 -120 q 276 -144 280 -160 l 280 -160 l 120 -160 q 124 -144 124 -120 l 124 -120 q 124 -97 120 -80 l 120 -80 q 124 -64 124 -40 l 124 -40 q 124 -17 120 0 l 120 0 l 40 0 q 36 -17 36 -40 l 36 -40 q 36 -64 40 -80 l 40 -80 q 36 -97 36 -120 l 36 -120 q 36 -144 40 -160 l 40 -160 l 70 -160 q 66 -177 66 -200 l 66 -200 q 66 -224 70 -240 l 70 -240 q 66 -257 66 -280 l 66 -280 q 66 -304 70 -320 l 70 -320 l 90 -320 q 86 -337 86 -360 l 86 -360 q 86 -384 90 -400 l 90 -400 l 120 -400 q 116 -417 116 -440 l 116 -440 q 116 -464 120 -480 l 120 -480 l 140 -480 q 136 -497 136 -520 l 136 -520 q 136 -544 140 -560 l 140 -560 l 260 -560 q 264 -544 264 -520 l 264 -520 q 264 -497 260 -480 l 260 -480 l 280 -480 q 284 -464 284 -440 l 284 -440 q 284 -417 280 -400 l 280 -400 l 310 -400 q 314 -384 314 -360 l 314 -360 q 314 -337 310 -320 l 310 -320 l 330 -320 q 334 -304 334 -280 l 334 -280 q 334 -257 330 -240 l 330 -240 q 334 -224 334 -200 l 334 -200 q 334 -177 330 -160 l 330 -160 l 360 -160 m 250 -240 q 246 -257 246 -280 l 246 -280 q 246 -304 250 -320 l 250 -320 l 230 -320 q 226 -337 226 -360 l 226 -360 q 226 -384 230 -400 l 230 -400 l 170 -400 q 174 -384 174 -360 l 174 -360 q 174 -337 170 -320 l 170 -320 l 150 -320 q 154 -304 154 -280 l 154 -280 q 154 -257 150 -240 l 150 -240 l 250 -240"},"Ậ":{"ha":400,"x_min":36,"x_max":364,"o":"m 364 -120 q 364 -97 360 -80 l 360 -80 q 364 -64 364 -40 l 364 -40 q 364 -17 360 0 l 360 0 l 280 0 q 276 -17 276 -40 l 276 -40 q 276 -64 280 -80 l 280 -80 q 276 -97 276 -120 l 276 -120 q 276 -144 280 -160 l 280 -160 l 120 -160 q 124 -144 124 -120 l 124 -120 q 124 -97 120 -80 l 120 -80 q 124 -64 124 -40 l 124 -40 q 124 -17 120 0 l 120 0 l 40 0 q 36 -17 36 -40 l 36 -40 q 36 -64 40 -80 l 40 -80 q 36 -97 36 -120 l 36 -120 q 36 -144 40 -160 l 40 -160 l 70 -160 q 66 -177 66 -200 l 66 -200 q 66 -224 70 -240 l 70 -240 q 66 -257 66 -280 l 66 -280 q 66 -304 70 -320 l 70 -320 l 90 -320 q 86 -337 86 -360 l 86 -360 q 86 -384 90 -400 l 90 -400 l 120 -400 q 116 -417 116 -440 l 116 -440 q 116 -464 120 -480 l 120 -480 l 140 -480 q 136 -497 136 -520 l 136 -520 q 136 -544 140 -560 l 140 -560 l 260 -560 q 264 -544 264 -520 l 264 -520 q 264 -497 260 -480 l 260 -480 l 280 -480 q 284 -464 284 -440 l 284 -440 q 284 -417 280 -400 l 280 -400 l 310 -400 q 314 -384 314 -360 l 314 -360 q 314 -337 310 -320 l 310 -320 l 330 -320 q 334 -304 334 -280 l 334 -280 q 334 -257 330 -240 l 330 -240 q 334 -224 334 -200 l 334 -200 q 334 -177 330 -160 l 330 -160 l 360 -160 q 364 -144 364 -120 l 364 -120 m 250 -240 q 246 -257 246 -280 l 246 -280 q 246 -304 250 -320 l 250 -320 l 230 -320 q 226 -337 226 -360 l 226 -360 q 226 -384 230 -400 l 230 -400 l 170 -400 q 174 -384 174 -360 l 174 -360 q 174 -337 170 -320 l 170 -320 l 150 -320 q 154 -304 154 -280 l 154 -280 q 154 -257 150 -240 l 150 -240 l 250 -240 m 160 80 l 240 80 q 244 96 244 120 l 244 120 q 244 143 240 160 l 240 160 l 160 160 q 156 143 156 120 l 156 120 q 156 96 160 80 l 160 80 m 310 -720 q 314 -704 314 -680 l 314 -680 q 314 -657 310 -640 l 310 -640 l 230 -640 q 226 -657 226 -680 l 226 -680 q 226 -704 230 -720 l 230 -720 l 170 -720 q 174 -704 174 -680 l 174 -680 q 174 -657 170 -640 l 170 -640 l 90 -640 q 86 -657 86 -680 l 86 -680 q 86 -704 90 -720 l 90 -720 l 140 -720 q 136 -737 136 -760 l 136 -760 q 136 -784 140 -800 l 140 -800 l 260 -800 q 264 -784 264 -760 l 264 -760 q 264 -737 260 -720 l 260 -720 l 310 -720"},"Ầ":{"ha":400,"x_min":-4,"x_max":364,"o":"m 36 -840 q 36 -864 40 -880 l 40 -880 l 0 -880 q -4 -897 -4 -920 l -4 -920 q -4 -944 0 -960 l 0 -960 l 80 -960 q 84 -944 84 -920 l 84 -920 q 84 -897 80 -880 l 80 -880 l 120 -880 q 124 -864 124 -840 l 124 -840 q 124 -817 120 -800 l 120 -800 l 40 -800 q 36 -817 36 -840 l 36 -840 m 90 -720 l 140 -720 q 136 -737 136 -760 l 136 -760 q 136 -784 140 -800 l 140 -800 l 260 -800 q 264 -784 264 -760 l 264 -760 q 264 -737 260 -720 l 260 -720 l 310 -720 q 314 -704 314 -680 l 314 -680 q 314 -657 310 -640 l 310 -640 l 230 -640 q 226 -657 226 -680 l 226 -680 q 226 -704 230 -720 l 230 -720 l 170 -720 q 174 -704 174 -680 l 174 -680 q 174 -657 170 -640 l 170 -640 l 90 -640 q 86 -657 86 -680 l 86 -680 q 86 -704 90 -720 l 90 -720 m 364 -120 q 364 -97 360 -80 l 360 -80 q 364 -64 364 -40 l 364 -40 q 364 -17 360 0 l 360 0 l 280 0 q 276 -17 276 -40 l 276 -40 q 276 -64 280 -80 l 280 -80 q 276 -97 276 -120 l 276 -120 q 276 -144 280 -160 l 280 -160 l 120 -160 q 124 -144 124 -120 l 124 -120 q 124 -97 120 -80 l 120 -80 q 124 -64 124 -40 l 124 -40 q 124 -17 120 0 l 120 0 l 40 0 q 36 -17 36 -40 l 36 -40 q 36 -64 40 -80 l 40 -80 q 36 -97 36 -120 l 36 -120 q 36 -144 40 -160 l 40 -160 l 70 -160 q 66 -177 66 -200 l 66 -200 q 66 -224 70 -240 l 70 -240 q 66 -257 66 -280 l 66 -280 q 66 -304 70 -320 l 70 -320 l 90 -320 q 86 -337 86 -360 l 86 -360 q 86 -384 90 -400 l 90 -400 l 120 -400 q 116 -417 116 -440 l 116 -440 q 116 -464 120 -480 l 120 -480 l 140 -480 q 136 -497 136 -520 l 136 -520 q 136 -544 140 -560 l 140 -560 l 260 -560 q 264 -544 264 -520 l 264 -520 q 264 -497 260 -480 l 260 -480 l 280 -480 q 284 -464 284 -440 l 284 -440 q 284 -417 280 -400 l 280 -400 l 310 -400 q 314 -384 314 -360 l 314 -360 q 314 -337 310 -320 l 310 -320 l 330 -320 q 334 -304 334 -280 l 334 -280 q 334 -257 330 -240 l 330 -240 q 334 -224 334 -200 l 334 -200 q 334 -177 330 -160 l 330 -160 l 360 -160 q 364 -144 364 -120 l 364 -120 m 250 -240 q 246 -257 246 -280 l 246 -280 q 246 -304 250 -320 l 250 -320 l 230 -320 q 226 -337 226 -360 l 226 -360 q 226 -384 230 -400 l 230 -400 l 170 -400 q 174 -384 174 -360 l 174 -360 q 174 -337 170 -320 l 170 -320 l 150 -320 q 154 -304 154 -280 l 154 -280 q 154 -257 150 -240 l 150 -240 l 250 -240"},"Ẩ":{"ha":400,"x_min":36,"x_max":364,"o":"m 364 -120 q 364 -97 360 -80 l 360 -80 q 364 -64 364 -40 l 364 -40 q 364 -17 360 0 l 360 0 l 280 0 q 276 -17 276 -40 l 276 -40 q 276 -64 280 -80 l 280 -80 q 276 -97 276 -120 l 276 -120 q 276 -144 280 -160 l 280 -160 l 120 -160 q 124 -144 124 -120 l 124 -120 q 124 -97 120 -80 l 120 -80 q 124 -64 124 -40 l 124 -40 q 124 -17 120 0 l 120 0 l 40 0 q 36 -17 36 -40 l 36 -40 q 36 -64 40 -80 l 40 -80 q 36 -97 36 -120 l 36 -120 q 36 -144 40 -160 l 40 -160 l 70 -160 q 66 -177 66 -200 l 66 -200 q 66 -224 70 -240 l 70 -240 q 66 -257 66 -280 l 66 -280 q 66 -304 70 -320 l 70 -320 l 90 -320 q 86 -337 86 -360 l 86 -360 q 86 -384 90 -400 l 90 -400 l 120 -400 q 116 -417 116 -440 l 116 -440 q 116 -464 120 -480 l 120 -480 l 140 -480 q 136 -497 136 -520 l 136 -520 q 136 -544 140 -560 l 140 -560 l 260 -560 q 264 -544 264 -520 l 264 -520 q 264 -497 260 -480 l 260 -480 l 280 -480 q 284 -464 284 -440 l 284 -440 q 284 -417 280 -400 l 280 -400 l 310 -400 q 314 -384 314 -360 l 314 -360 q 314 -337 310 -320 l 310 -320 l 330 -320 q 334 -304 334 -280 l 334 -280 q 334 -257 330 -240 l 330 -240 q 334 -224 334 -200 l 334 -200 q 334 -177 330 -160 l 330 -160 l 360 -160 q 364 -144 364 -120 l 364 -120 m 250 -240 q 246 -257 246 -280 l 246 -280 q 246 -304 250 -320 l 250 -320 l 230 -320 q 226 -337 226 -360 l 226 -360 q 226 -384 230 -400 l 230 -400 l 170 -400 q 174 -384 174 -360 l 174 -360 q 174 -337 170 -320 l 170 -320 l 150 -320 q 154 -304 154 -280 l 154 -280 q 154 -257 150 -240 l 150 -240 l 250 -240 m 364 -920 q 364 -897 360 -880 l 360 -880 q 364 -864 364 -840 l 364 -840 q 364 -817 360 -800 l 360 -800 l 320 -800 q 316 -817 316 -840 l 316 -840 q 316 -864 320 -880 l 320 -880 l 280 -880 q 276 -897 276 -920 l 276 -920 q 276 -944 280 -960 l 280 -960 l 360 -960 q 364 -944 364 -920 l 364 -920 m 260 -720 l 310 -720 q 314 -704 314 -680 l 314 -680 q 314 -657 310 -640 l 310 -640 l 230 -640 q 226 -657 226 -680 l 226 -680 q 226 -704 230 -720 l 230 -720 l 170 -720 q 174 -704 174 -680 l 174 -680 q 174 -657 170 -640 l 170 -640 l 90 -640 q 86 -657 86 -680 l 86 -680 q 86 -704 90 -720 l 90 -720 l 140 -720 q 136 -737 136 -760 l 136 -760 q 136 -784 140 -800 l 140 -800 l 260 -800 q 264 -784 264 -760 l 264 -760 q 264 -737 260 -720 l 260 -720"},"Ẫ":{"ha":400,"x_min":36,"x_max":364,"o":"m 364 -120 q 364 -97 360 -80 l 360 -80 q 364 -64 364 -40 l 364 -40 q 364 -17 360 0 l 360 0 l 280 0 q 276 -17 276 -40 l 276 -40 q 276 -64 280 -80 l 280 -80 q 276 -97 276 -120 l 276 -120 q 276 -144 280 -160 l 280 -160 l 120 -160 q 124 -144 124 -120 l 124 -120 q 124 -97 120 -80 l 120 -80 q 124 -64 124 -40 l 124 -40 q 124 -17 120 0 l 120 0 l 40 0 q 36 -17 36 -40 l 36 -40 q 36 -64 40 -80 l 40 -80 q 36 -97 36 -120 l 36 -120 q 36 -144 40 -160 l 40 -160 l 70 -160 q 66 -177 66 -200 l 66 -200 q 66 -224 70 -240 l 70 -240 q 66 -257 66 -280 l 66 -280 q 66 -304 70 -320 l 70 -320 l 90 -320 q 86 -337 86 -360 l 86 -360 q 86 -384 90 -400 l 90 -400 l 120 -400 q 116 -417 116 -440 l 116 -440 q 116 -464 120 -480 l 120 -480 l 140 -480 q 136 -497 136 -520 l 136 -520 q 136 -544 140 -560 l 140 -560 l 260 -560 q 264 -544 264 -520 l 264 -520 q 264 -497 260 -480 l 260 -480 l 280 -480 q 284 -464 284 -440 l 284 -440 q 284 -417 280 -400 l 280 -400 l 310 -400 q 314 -384 314 -360 l 314 -360 q 314 -337 310 -320 l 310 -320 l 330 -320 q 334 -304 334 -280 l 334 -280 q 334 -257 330 -240 l 330 -240 q 334 -224 334 -200 l 334 -200 q 334 -177 330 -160 l 330 -160 l 360 -160 q 364 -144 364 -120 l 364 -120 m 250 -240 q 246 -257 246 -280 l 246 -280 q 246 -304 250 -320 l 250 -320 l 230 -320 q 226 -337 226 -360 l 226 -360 q 226 -384 230 -400 l 230 -400 l 170 -400 q 174 -384 174 -360 l 174 -360 q 174 -337 170 -320 l 170 -320 l 150 -320 q 154 -304 154 -280 l 154 -280 q 154 -257 150 -240 l 150 -240 l 250 -240 m 310 -720 q 314 -704 314 -680 l 314 -680 q 314 -657 310 -640 l 310 -640 l 230 -640 q 226 -657 226 -680 l 226 -680 q 226 -704 230 -720 l 230 -720 l 170 -720 q 174 -704 174 -680 l 174 -680 q 174 -657 170 -640 l 170 -640 l 90 -640 q 86 -657 86 -680 l 86 -680 q 86 -704 90 -720 l 90 -720 l 140 -720 q 136 -737 136 -760 l 136 -760 q 136 -784 140 -800 l 140 -800 l 260 -800 q 264 -784 264 -760 l 264 -760 q 264 -737 260 -720 l 260 -720 l 310 -720 m 224 -1000 q 224 -977 220 -960 l 220 -960 l 300 -960 q 304 -944 304 -920 l 304 -920 q 304 -897 300 -880 l 300 -880 l 180 -880 q 176 -897 176 -920 l 176 -920 q 176 -944 180 -960 l 180 -960 l 100 -960 q 96 -977 96 -1000 l 96 -1000 q 96 -1024 100 -1040 l 100 -1040 l 220 -1040 q 224 -1024 224 -1000 l 224 -1000 m 364 -1000 q 364 -977 360 -960 l 360 -960 l 300 -960 q 296 -977 296 -1000 l 296 -1000 q 296 -1024 300 -1040 l 300 -1040 l 360 -1040 q 364 -1024 364 -1000 l 364 -1000 m 36 -920 q 36 -944 40 -960 l 40 -960 l 100 -960 q 104 -944 104 -920 l 104 -920 q 104 -897 100 -880 l 100 -880 l 40 -880 q 36 -897 36 -920 l 36 -920"},"Ȁ":{"ha":400,"x_min":36,"x_max":364,"o":"m 364 -120 q 364 -97 360 -80 l 360 -80 q 364 -64 364 -40 l 364 -40 q 364 -17 360 0 l 360 0 l 280 0 q 276 -17 276 -40 l 276 -40 q 276 -64 280 -80 l 280 -80 q 276 -97 276 -120 l 276 -120 q 276 -144 280 -160 l 280 -160 l 120 -160 q 124 -144 124 -120 l 124 -120 q 124 -97 120 -80 l 120 -80 q 124 -64 124 -40 l 124 -40 q 124 -17 120 0 l 120 0 l 40 0 q 36 -17 36 -40 l 36 -40 q 36 -64 40 -80 l 40 -80 q 36 -97 36 -120 l 36 -120 q 36 -144 40 -160 l 40 -160 l 70 -160 q 66 -177 66 -200 l 66 -200 q 66 -224 70 -240 l 70 -240 q 66 -257 66 -280 l 66 -280 q 66 -304 70 -320 l 70 -320 l 90 -320 q 86 -337 86 -360 l 86 -360 q 86 -384 90 -400 l 90 -400 l 120 -400 q 116 -417 116 -440 l 116 -440 q 116 -464 120 -480 l 120 -480 l 140 -480 q 136 -497 136 -520 l 136 -520 q 136 -544 140 -560 l 140 -560 l 260 -560 q 264 -544 264 -520 l 264 -520 q 264 -497 260 -480 l 260 -480 l 280 -480 q 284 -464 284 -440 l 284 -440 q 284 -417 280 -400 l 280 -400 l 310 -400 q 314 -384 314 -360 l 314 -360 q 314 -337 310 -320 l 310 -320 l 330 -320 q 334 -304 334 -280 l 334 -280 q 334 -257 330 -240 l 330 -240 q 334 -224 334 -200 l 334 -200 q 334 -177 330 -160 l 330 -160 l 360 -160 q 364 -144 364 -120 l 364 -120 m 250 -240 q 246 -257 246 -280 l 246 -280 q 246 -304 250 -320 l 250 -320 l 230 -320 q 226 -337 226 -360 l 226 -360 q 226 -384 230 -400 l 230 -400 l 170 -400 q 174 -384 174 -360 l 174 -360 q 174 -337 170 -320 l 170 -320 l 150 -320 q 154 -304 154 -280 l 154 -280 q 154 -257 150 -240 l 150 -240 l 250 -240 m 140 -720 l 170 -720 q 174 -704 174 -680 l 174 -680 q 174 -657 170 -640 l 170 -640 l 110 -640 q 106 -657 106 -680 l 106 -680 q 106 -704 110 -720 l 110 -720 l 80 -720 q 76 -737 76 -760 l 76 -760 q 76 -784 80 -800 l 80 -800 l 140 -800 q 144 -784 144 -760 l 144 -760 q 144 -737 140 -720 l 140 -720 m 290 -720 q 294 -704 294 -680 l 294 -680 q 294 -657 290 -640 l 290 -640 l 230 -640 q 226 -657 226 -680 l 226 -680 q 226 -704 230 -720 l 230 -720 l 200 -720 q 196 -737 196 -760 l 196 -760 q 196 -784 200 -800 l 200 -800 l 260 -800 q 264 -784 264 -760 l 264 -760 q 264 -737 260 -720 l 260 -720 l 290 -720"},"Ä":{"ha":400,"x_min":36,"x_max":364,"o":"m 160 -640 l 80 -640 q 76 -657 76 -680 l 76 -680 q 76 -704 80 -720 l 80 -720 l 160 -720 q 164 -704 164 -680 l 164 -680 q 164 -657 160 -640 l 160 -640 m 320 -640 l 240 -640 q 236 -657 236 -680 l 236 -680 q 236 -704 240 -720 l 240 -720 l 320 -720 q 324 -704 324 -680 l 324 -680 q 324 -657 320 -640 l 320 -640 m 364 -120 q 364 -97 360 -80 l 360 -80 q 364 -64 364 -40 l 364 -40 q 364 -17 360 0 l 360 0 l 280 0 q 276 -17 276 -40 l 276 -40 q 276 -64 280 -80 l 280 -80 q 276 -97 276 -120 l 276 -120 q 276 -144 280 -160 l 280 -160 l 120 -160 q 124 -144 124 -120 l 124 -120 q 124 -97 120 -80 l 120 -80 q 124 -64 124 -40 l 124 -40 q 124 -17 120 0 l 120 0 l 40 0 q 36 -17 36 -40 l 36 -40 q 36 -64 40 -80 l 40 -80 q 36 -97 36 -120 l 36 -120 q 36 -144 40 -160 l 40 -160 l 70 -160 q 66 -177 66 -200 l 66 -200 q 66 -224 70 -240 l 70 -240 q 66 -257 66 -280 l 66 -280 q 66 -304 70 -320 l 70 -320 l 90 -320 q 86 -337 86 -360 l 86 -360 q 86 -384 90 -400 l 90 -400 l 120 -400 q 116 -417 116 -440 l 116 -440 q 116 -464 120 -480 l 120 -480 l 140 -480 q 136 -497 136 -520 l 136 -520 q 136 -544 140 -560 l 140 -560 l 260 -560 q 264 -544 264 -520 l 264 -520 q 264 -497 260 -480 l 260 -480 l 280 -480 q 284 -464 284 -440 l 284 -440 q 284 -417 280 -400 l 280 -400 l 310 -400 q 314 -384 314 -360 l 314 -360 q 314 -337 310 -320 l 310 -320 l 330 -320 q 334 -304 334 -280 l 334 -280 q 334 -257 330 -240 l 330 -240 q 334 -224 334 -200 l 334 -200 q 334 -177 330 -160 l 330 -160 l 360 -160 q 364 -144 364 -120 l 364 -120 m 250 -240 q 246 -257 246 -280 l 246 -280 q 246 -304 250 -320 l 250 -320 l 230 -320 q 226 -337 226 -360 l 226 -360 q 226 -384 230 -400 l 230 -400 l 170 -400 q 174 -384 174 -360 l 174 -360 q 174 -337 170 -320 l 170 -320 l 150 -320 q 154 -304 154 -280 l 154 -280 q 154 -257 150 -240 l 150 -240 l 250 -240"},"Ạ":{"ha":400,"x_min":36,"x_max":364,"o":"m 364 -120 q 364 -97 360 -80 l 360 -80 q 364 -64 364 -40 l 364 -40 q 364 -17 360 0 l 360 0 l 280 0 q 276 -17 276 -40 l 276 -40 q 276 -64 280 -80 l 280 -80 q 276 -97 276 -120 l 276 -120 q 276 -144 280 -160 l 280 -160 l 120 -160 q 124 -144 124 -120 l 124 -120 q 124 -97 120 -80 l 120 -80 q 124 -64 124 -40 l 124 -40 q 124 -17 120 0 l 120 0 l 40 0 q 36 -17 36 -40 l 36 -40 q 36 -64 40 -80 l 40 -80 q 36 -97 36 -120 l 36 -120 q 36 -144 40 -160 l 40 -160 l 70 -160 q 66 -177 66 -200 l 66 -200 q 66 -224 70 -240 l 70 -240 q 66 -257 66 -280 l 66 -280 q 66 -304 70 -320 l 70 -320 l 90 -320 q 86 -337 86 -360 l 86 -360 q 86 -384 90 -400 l 90 -400 l 120 -400 q 116 -417 116 -440 l 116 -440 q 116 -464 120 -480 l 120 -480 l 140 -480 q 136 -497 136 -520 l 136 -520 q 136 -544 140 -560 l 140 -560 l 260 -560 q 264 -544 264 -520 l 264 -520 q 264 -497 260 -480 l 260 -480 l 280 -480 q 284 -464 284 -440 l 284 -440 q 284 -417 280 -400 l 280 -400 l 310 -400 q 314 -384 314 -360 l 314 -360 q 314 -337 310 -320 l 310 -320 l 330 -320 q 334 -304 334 -280 l 334 -280 q 334 -257 330 -240 l 330 -240 q 334 -224 334 -200 l 334 -200 q 334 -177 330 -160 l 330 -160 l 360 -160 q 364 -144 364 -120 l 364 -120 m 250 -240 q 246 -257 246 -280 l 246 -280 q 246 -304 250 -320 l 250 -320 l 230 -320 q 226 -337 226 -360 l 226 -360 q 226 -384 230 -400 l 230 -400 l 170 -400 q 174 -384 174 -360 l 174 -360 q 174 -337 170 -320 l 170 -320 l 150 -320 q 154 -304 154 -280 l 154 -280 q 154 -257 150 -240 l 150 -240 l 250 -240 m 160 80 l 240 80 q 244 96 244 120 l 244 120 q 244 143 240 160 l 240 160 l 160 160 q 156 143 156 120 l 156 120 q 156 96 160 80 l 160 80"},"À":{"ha":400,"x_min":36,"x_max":364,"o":"m 160 -720 l 120 -720 q 116 -737 116 -760 l 116 -760 q 116 -784 120 -800 l 120 -800 l 200 -800 q 204 -784 204 -760 l 204 -760 q 204 -737 200 -720 l 200 -720 l 240 -720 q 244 -704 244 -680 l 244 -680 q 244 -657 240 -640 l 240 -640 l 160 -640 q 156 -657 156 -680 l 156 -680 q 156 -704 160 -720 l 160 -720 m 364 -120 q 364 -97 360 -80 l 360 -80 q 364 -64 364 -40 l 364 -40 q 364 -17 360 0 l 360 0 l 280 0 q 276 -17 276 -40 l 276 -40 q 276 -64 280 -80 l 280 -80 q 276 -97 276 -120 l 276 -120 q 276 -144 280 -160 l 280 -160 l 120 -160 q 124 -144 124 -120 l 124 -120 q 124 -97 120 -80 l 120 -80 q 124 -64 124 -40 l 124 -40 q 124 -17 120 0 l 120 0 l 40 0 q 36 -17 36 -40 l 36 -40 q 36 -64 40 -80 l 40 -80 q 36 -97 36 -120 l 36 -120 q 36 -144 40 -160 l 40 -160 l 70 -160 q 66 -177 66 -200 l 66 -200 q 66 -224 70 -240 l 70 -240 q 66 -257 66 -280 l 66 -280 q 66 -304 70 -320 l 70 -320 l 90 -320 q 86 -337 86 -360 l 86 -360 q 86 -384 90 -400 l 90 -400 l 120 -400 q 116 -417 116 -440 l 116 -440 q 116 -464 120 -480 l 120 -480 l 140 -480 q 136 -497 136 -520 l 136 -520 q 136 -544 140 -560 l 140 -560 l 260 -560 q 264 -544 264 -520 l 264 -520 q 264 -497 260 -480 l 260 -480 l 280 -480 q 284 -464 284 -440 l 284 -440 q 284 -417 280 -400 l 280 -400 l 310 -400 q 314 -384 314 -360 l 314 -360 q 314 -337 310 -320 l 310 -320 l 330 -320 q 334 -304 334 -280 l 334 -280 q 334 -257 330 -240 l 330 -240 q 334 -224 334 -200 l 334 -200 q 334 -177 330 -160 l 330 -160 l 360 -160 q 364 -144 364 -120 l 364 -120 m 250 -240 q 246 -257 246 -280 l 246 -280 q 246 -304 250 -320 l 250 -320 l 230 -320 q 226 -337 226 -360 l 226 -360 q 226 -384 230 -400 l 230 -400 l 170 -400 q 174 -384 174 -360 l 174 -360 q 174 -337 170 -320 l 170 -320 l 150 -320 q 154 -304 154 -280 l 154 -280 q 154 -257 150 -240 l 150 -240 l 250 -240"},"Ả":{"ha":400,"x_min":36,"x_max":364,"o":"m 364 -120 q 364 -97 360 -80 l 360 -80 q 364 -64 364 -40 l 364 -40 q 364 -17 360 0 l 360 0 l 280 0 q 276 -17 276 -40 l 276 -40 q 276 -64 280 -80 l 280 -80 q 276 -97 276 -120 l 276 -120 q 276 -144 280 -160 l 280 -160 l 120 -160 q 124 -144 124 -120 l 124 -120 q 124 -97 120 -80 l 120 -80 q 124 -64 124 -40 l 124 -40 q 124 -17 120 0 l 120 0 l 40 0 q 36 -17 36 -40 l 36 -40 q 36 -64 40 -80 l 40 -80 q 36 -97 36 -120 l 36 -120 q 36 -144 40 -160 l 40 -160 l 70 -160 q 66 -177 66 -200 l 66 -200 q 66 -224 70 -240 l 70 -240 q 66 -257 66 -280 l 66 -280 q 66 -304 70 -320 l 70 -320 l 90 -320 q 86 -337 86 -360 l 86 -360 q 86 -384 90 -400 l 90 -400 l 120 -400 q 116 -417 116 -440 l 116 -440 q 116 -464 120 -480 l 120 -480 l 140 -480 q 136 -497 136 -520 l 136 -520 q 136 -544 140 -560 l 140 -560 l 260 -560 q 264 -544 264 -520 l 264 -520 q 264 -497 260 -480 l 260 -480 l 280 -480 q 284 -464 284 -440 l 284 -440 q 284 -417 280 -400 l 280 -400 l 310 -400 q 314 -384 314 -360 l 314 -360 q 314 -337 310 -320 l 310 -320 l 330 -320 q 334 -304 334 -280 l 334 -280 q 334 -257 330 -240 l 330 -240 q 334 -224 334 -200 l 334 -200 q 334 -177 330 -160 l 330 -160 l 360 -160 q 364 -144 364 -120 l 364 -120 m 250 -240 q 246 -257 246 -280 l 246 -280 q 246 -304 250 -320 l 250 -320 l 230 -320 q 226 -337 226 -360 l 226 -360 q 226 -384 230 -400 l 230 -400 l 170 -400 q 174 -384 174 -360 l 174 -360 q 174 -337 170 -320 l 170 -320 l 150 -320 q 154 -304 154 -280 l 154 -280 q 154 -257 150 -240 l 150 -240 l 250 -240 m 244 -760 q 244 -737 240 -720 l 240 -720 q 244 -704 244 -680 l 244 -680 q 244 -657 240 -640 l 240 -640 l 200 -640 q 196 -657 196 -680 l 196 -680 q 196 -704 200 -720 l 200 -720 l 160 -720 q 156 -737 156 -760 l 156 -760 q 156 -784 160 -800 l 160 -800 l 240 -800 q 244 -784 244 -760 l 244 -760"},"Ȃ":{"ha":400,"x_min":36,"x_max":364,"o":"m 364 -120 q 364 -97 360 -80 l 360 -80 q 364 -64 364 -40 l 364 -40 q 364 -17 360 0 l 360 0 l 280 0 q 276 -17 276 -40 l 276 -40 q 276 -64 280 -80 l 280 -80 q 276 -97 276 -120 l 276 -120 q 276 -144 280 -160 l 280 -160 l 120 -160 q 124 -144 124 -120 l 124 -120 q 124 -97 120 -80 l 120 -80 q 124 -64 124 -40 l 124 -40 q 124 -17 120 0 l 120 0 l 40 0 q 36 -17 36 -40 l 36 -40 q 36 -64 40 -80 l 40 -80 q 36 -97 36 -120 l 36 -120 q 36 -144 40 -160 l 40 -160 l 70 -160 q 66 -177 66 -200 l 66 -200 q 66 -224 70 -240 l 70 -240 q 66 -257 66 -280 l 66 -280 q 66 -304 70 -320 l 70 -320 l 90 -320 q 86 -337 86 -360 l 86 -360 q 86 -384 90 -400 l 90 -400 l 120 -400 q 116 -417 116 -440 l 116 -440 q 116 -464 120 -480 l 120 -480 l 140 -480 q 136 -497 136 -520 l 136 -520 q 136 -544 140 -560 l 140 -560 l 260 -560 q 264 -544 264 -520 l 264 -520 q 264 -497 260 -480 l 260 -480 l 280 -480 q 284 -464 284 -440 l 284 -440 q 284 -417 280 -400 l 280 -400 l 310 -400 q 314 -384 314 -360 l 314 -360 q 314 -337 310 -320 l 310 -320 l 330 -320 q 334 -304 334 -280 l 334 -280 q 334 -257 330 -240 l 330 -240 q 334 -224 334 -200 l 334 -200 q 334 -177 330 -160 l 330 -160 l 360 -160 q 364 -144 364 -120 l 364 -120 m 250 -240 q 246 -257 246 -280 l 246 -280 q 246 -304 250 -320 l 250 -320 l 230 -320 q 226 -337 226 -360 l 226 -360 q 226 -384 230 -400 l 230 -400 l 170 -400 q 174 -384 174 -360 l 174 -360 q 174 -337 170 -320 l 170 -320 l 150 -320 q 154 -304 154 -280 l 154 -280 q 154 -257 150 -240 l 150 -240 l 250 -240 m 120 -800 l 280 -800 q 284 -784 284 -760 l 284 -760 q 284 -737 280 -720 l 280 -720 l 120 -720 q 116 -737 116 -760 l 116 -760 q 116 -784 120 -800 l 120 -800 m 40 -720 l 120 -720 q 124 -704 124 -680 l 124 -680 q 124 -657 120 -640 l 120 -640 l 40 -640 q 36 -657 36 -680 l 36 -680 q 36 -704 40 -720 l 40 -720 m 280 -720 l 360 -720 q 364 -704 364 -680 l 364 -680 q 364 -657 360 -640 l 360 -640 l 280 -640 q 276 -657 276 -680 l 276 -680 q 276 -704 280 -720 l 280 -720"},"Ā":{"ha":400,"x_min":36,"x_max":364,"o":"m 364 -120 q 364 -97 360 -80 l 360 -80 q 364 -64 364 -40 l 364 -40 q 364 -17 360 0 l 360 0 l 280 0 q 276 -17 276 -40 l 276 -40 q 276 -64 280 -80 l 280 -80 q 276 -97 276 -120 l 276 -120 q 276 -144 280 -160 l 280 -160 l 120 -160 q 124 -144 124 -120 l 124 -120 q 124 -97 120 -80 l 120 -80 q 124 -64 124 -40 l 124 -40 q 124 -17 120 0 l 120 0 l 40 0 q 36 -17 36 -40 l 36 -40 q 36 -64 40 -80 l 40 -80 q 36 -97 36 -120 l 36 -120 q 36 -144 40 -160 l 40 -160 l 70 -160 q 66 -177 66 -200 l 66 -200 q 66 -224 70 -240 l 70 -240 q 66 -257 66 -280 l 66 -280 q 66 -304 70 -320 l 70 -320 l 90 -320 q 86 -337 86 -360 l 86 -360 q 86 -384 90 -400 l 90 -400 l 120 -400 q 116 -417 116 -440 l 116 -440 q 116 -464 120 -480 l 120 -480 l 140 -480 q 136 -497 136 -520 l 136 -520 q 136 -544 140 -560 l 140 -560 l 260 -560 q 264 -544 264 -520 l 264 -520 q 264 -497 260 -480 l 260 -480 l 280 -480 q 284 -464 284 -440 l 284 -440 q 284 -417 280 -400 l 280 -400 l 310 -400 q 314 -384 314 -360 l 314 -360 q 314 -337 310 -320 l 310 -320 l 330 -320 q 334 -304 334 -280 l 334 -280 q 334 -257 330 -240 l 330 -240 q 334 -224 334 -200 l 334 -200 q 334 -177 330 -160 l 330 -160 l 360 -160 q 364 -144 364 -120 l 364 -120 m 250 -240 q 246 -257 246 -280 l 246 -280 q 246 -304 250 -320 l 250 -320 l 230 -320 q 226 -337 226 -360 l 226 -360 q 226 -384 230 -400 l 230 -400 l 170 -400 q 174 -384 174 -360 l 174 -360 q 174 -337 170 -320 l 170 -320 l 150 -320 q 154 -304 154 -280 l 154 -280 q 154 -257 150 -240 l 150 -240 l 250 -240 m 320 -720 q 324 -704 324 -680 l 324 -680 q 324 -657 320 -640 l 320 -640 l 80 -640 q 76 -657 76 -680 l 76 -680 q 76 -704 80 -720 l 80 -720 l 320 -720"},"Ą":{"ha":400,"x_min":36,"x_max":394,"o":"m 364 -120 q 364 -97 360 -80 l 360 -80 q 364 -64 364 -40 l 364 -40 q 364 -17 360 0 l 360 0 l 280 0 q 276 -17 276 -40 l 276 -40 q 276 -64 280 -80 l 280 -80 q 276 -97 276 -120 l 276 -120 q 276 -144 280 -160 l 280 -160 l 120 -160 q 124 -144 124 -120 l 124 -120 q 124 -97 120 -80 l 120 -80 q 124 -64 124 -40 l 124 -40 q 124 -17 120 0 l 120 0 l 40 0 q 36 -17 36 -40 l 36 -40 q 36 -64 40 -80 l 40 -80 q 36 -97 36 -120 l 36 -120 q 36 -144 40 -160 l 40 -160 l 70 -160 q 66 -177 66 -200 l 66 -200 q 66 -224 70 -240 l 70 -240 q 66 -257 66 -280 l 66 -280 q 66 -304 70 -320 l 70 -320 l 90 -320 q 86 -337 86 -360 l 86 -360 q 86 -384 90 -400 l 90 -400 l 120 -400 q 116 -417 116 -440 l 116 -440 q 116 -464 120 -480 l 120 -480 l 140 -480 q 136 -497 136 -520 l 136 -520 q 136 -544 140 -560 l 140 -560 l 260 -560 q 264 -544 264 -520 l 264 -520 q 264 -497 260 -480 l 260 -480 l 280 -480 q 284 -464 284 -440 l 284 -440 q 284 -417 280 -400 l 280 -400 l 310 -400 q 314 -384 314 -360 l 314 -360 q 314 -337 310 -320 l 310 -320 l 330 -320 q 334 -304 334 -280 l 334 -280 q 334 -257 330 -240 l 330 -240 q 334 -224 334 -200 l 334 -200 q 334 -177 330 -160 l 330 -160 l 360 -160 q 364 -144 364 -120 l 364 -120 m 250 -240 q 246 -257 246 -280 l 246 -280 q 246 -304 250 -320 l 250 -320 l 230 -320 q 226 -337 226 -360 l 226 -360 q 226 -384 230 -400 l 230 -400 l 170 -400 q 174 -384 174 -360 l 174 -360 q 174 -337 170 -320 l 170 -320 l 150 -320 q 154 -304 154 -280 l 154 -280 q 154 -257 150 -240 l 150 -240 l 250 -240 m 390 80 q 394 96 394 120 l 394 120 q 394 143 390 160 l 390 160 l 310 160 q 306 143 306 120 l 306 120 q 306 96 310 80 l 310 80 l 280 80 q 276 63 276 40 l 276 40 q 276 16 280 0 l 280 0 l 340 0 q 344 16 344 40 l 344 40 q 344 63 340 80 l 340 80 l 390 80"},"Å":{"ha":400,"x_min":36,"x_max":364,"o":"m 364 -120 q 364 -97 360 -80 l 360 -80 q 364 -64 364 -40 l 364 -40 q 364 -17 360 0 l 360 0 l 280 0 q 276 -17 276 -40 l 276 -40 q 276 -64 280 -80 l 280 -80 q 276 -97 276 -120 l 276 -120 q 276 -144 280 -160 l 280 -160 l 120 -160 q 124 -144 124 -120 l 124 -120 q 124 -97 120 -80 l 120 -80 q 124 -64 124 -40 l 124 -40 q 124 -17 120 0 l 120 0 l 40 0 q 36 -17 36 -40 l 36 -40 q 36 -64 40 -80 l 40 -80 q 36 -97 36 -120 l 36 -120 q 36 -144 40 -160 l 40 -160 l 70 -160 q 66 -177 66 -200 l 66 -200 q 66 -224 70 -240 l 70 -240 q 66 -257 66 -280 l 66 -280 q 66 -304 70 -320 l 70 -320 l 90 -320 q 86 -337 86 -360 l 86 -360 q 86 -384 90 -400 l 90 -400 l 120 -400 q 116 -417 116 -440 l 116 -440 q 116 -464 120 -480 l 120 -480 l 140 -480 q 136 -497 136 -520 l 136 -520 q 136 -544 140 -560 l 140 -560 l 260 -560 q 264 -544 264 -520 l 264 -520 q 264 -497 260 -480 l 260 -480 l 280 -480 q 284 -464 284 -440 l 284 -440 q 284 -417 280 -400 l 280 -400 l 310 -400 q 314 -384 314 -360 l 314 -360 q 314 -337 310 -320 l 310 -320 l 330 -320 q 334 -304 334 -280 l 334 -280 q 334 -257 330 -240 l 330 -240 q 334 -224 334 -200 l 334 -200 q 334 -177 330 -160 l 330 -160 l 360 -160 q 364 -144 364 -120 l 364 -120 m 250 -240 q 246 -257 246 -280 l 246 -280 q 246 -304 250 -320 l 250 -320 l 230 -320 q 226 -337 226 -360 l 226 -360 q 226 -384 230 -400 l 230 -400 l 170 -400 q 174 -384 174 -360 l 174 -360 q 174 -337 170 -320 l 170 -320 l 150 -320 q 154 -304 154 -280 l 154 -280 q 154 -257 150 -240 l 150 -240 l 250 -240 m 314 -760 q 314 -737 310 -720 l 310 -720 l 280 -720 q 284 -704 284 -680 l 284 -680 q 284 -657 280 -640 l 280 -640 l 120 -640 q 116 -657 116 -680 l 116 -680 q 116 -704 120 -720 l 120 -720 l 90 -720 q 86 -737 86 -760 l 86 -760 q 86 -784 90 -800 l 90 -800 l 120 -800 q 116 -817 116 -840 l 116 -840 q 116 -864 120 -880 l 120 -880 l 280 -880 q 284 -864 284 -840 l 284 -840 q 284 -817 280 -800 l 280 -800 l 310 -800 q 314 -784 314 -760 l 314 -760 m 150 -720 l 250 -720 q 246 -737 246 -760 l 246 -760 q 246 -784 250 -800 l 250 -800 l 150 -800 q 154 -784 154 -760 l 154 -760 q 154 -737 150 -720 l 150 -720"},"Ǻ":{"ha":400,"x_min":36,"x_max":404,"o":"m 404 -1000 q 404 -977 400 -960 l 400 -960 l 360 -960 q 364 -944 364 -920 l 364 -920 q 364 -897 360 -880 l 360 -880 l 280 -880 q 276 -897 276 -920 l 276 -920 q 276 -944 280 -960 l 280 -960 l 320 -960 q 316 -977 316 -1000 l 316 -1000 q 316 -1024 320 -1040 l 320 -1040 l 400 -1040 q 404 -1024 404 -1000 l 404 -1000 m 116 -840 q 116 -864 120 -880 l 120 -880 l 280 -880 q 284 -864 284 -840 l 284 -840 q 284 -817 280 -800 l 280 -800 l 310 -800 q 314 -784 314 -760 l 314 -760 q 314 -737 310 -720 l 310 -720 l 280 -720 q 284 -704 284 -680 l 284 -680 q 284 -657 280 -640 l 280 -640 l 120 -640 q 116 -657 116 -680 l 116 -680 q 116 -704 120 -720 l 120 -720 l 90 -720 q 86 -737 86 -760 l 86 -760 q 86 -784 90 -800 l 90 -800 l 120 -800 q 116 -817 116 -840 l 116 -840 m 250 -800 l 150 -800 q 154 -784 154 -760 l 154 -760 q 154 -737 150 -720 l 150 -720 l 250 -720 q 246 -737 246 -760 l 246 -760 q 246 -784 250 -800 l 250 -800 m 360 -160 q 364 -144 364 -120 l 364 -120 q 364 -97 360 -80 l 360 -80 q 364 -64 364 -40 l 364 -40 q 364 -17 360 0 l 360 0 l 280 0 q 276 -17 276 -40 l 276 -40 q 276 -64 280 -80 l 280 -80 q 276 -97 276 -120 l 276 -120 q 276 -144 280 -160 l 280 -160 l 120 -160 q 124 -144 124 -120 l 124 -120 q 124 -97 120 -80 l 120 -80 q 124 -64 124 -40 l 124 -40 q 124 -17 120 0 l 120 0 l 40 0 q 36 -17 36 -40 l 36 -40 q 36 -64 40 -80 l 40 -80 q 36 -97 36 -120 l 36 -120 q 36 -144 40 -160 l 40 -160 l 70 -160 q 66 -177 66 -200 l 66 -200 q 66 -224 70 -240 l 70 -240 q 66 -257 66 -280 l 66 -280 q 66 -304 70 -320 l 70 -320 l 90 -320 q 86 -337 86 -360 l 86 -360 q 86 -384 90 -400 l 90 -400 l 120 -400 q 116 -417 116 -440 l 116 -440 q 116 -464 120 -480 l 120 -480 l 140 -480 q 136 -497 136 -520 l 136 -520 q 136 -544 140 -560 l 140 -560 l 260 -560 q 264 -544 264 -520 l 264 -520 q 264 -497 260 -480 l 260 -480 l 280 -480 q 284 -464 284 -440 l 284 -440 q 284 -417 280 -400 l 280 -400 l 310 -400 q 314 -384 314 -360 l 314 -360 q 314 -337 310 -320 l 310 -320 l 330 -320 q 334 -304 334 -280 l 334 -280 q 334 -257 330 -240 l 330 -240 q 334 -224 334 -200 l 334 -200 q 334 -177 330 -160 l 330 -160 l 360 -160 m 250 -240 q 246 -257 246 -280 l 246 -280 q 246 -304 250 -320 l 250 -320 l 230 -320 q 226 -337 226 -360 l 226 -360 q 226 -384 230 -400 l 230 -400 l 170 -400 q 174 -384 174 -360 l 174 -360 q 174 -337 170 -320 l 170 -320 l 150 -320 q 154 -304 154 -280 l 154 -280 q 154 -257 150 -240 l 150 -240 l 250 -240"},"Ã":{"ha":400,"x_min":36,"x_max":364,"o":"m 364 -120 q 364 -97 360 -80 l 360 -80 q 364 -64 364 -40 l 364 -40 q 364 -17 360 0 l 360 0 l 280 0 q 276 -17 276 -40 l 276 -40 q 276 -64 280 -80 l 280 -80 q 276 -97 276 -120 l 276 -120 q 276 -144 280 -160 l 280 -160 l 120 -160 q 124 -144 124 -120 l 124 -120 q 124 -97 120 -80 l 120 -80 q 124 -64 124 -40 l 124 -40 q 124 -17 120 0 l 120 0 l 40 0 q 36 -17 36 -40 l 36 -40 q 36 -64 40 -80 l 40 -80 q 36 -97 36 -120 l 36 -120 q 36 -144 40 -160 l 40 -160 l 70 -160 q 66 -177 66 -200 l 66 -200 q 66 -224 70 -240 l 70 -240 q 66 -257 66 -280 l 66 -280 q 66 -304 70 -320 l 70 -320 l 90 -320 q 86 -337 86 -360 l 86 -360 q 86 -384 90 -400 l 90 -400 l 120 -400 q 116 -417 116 -440 l 116 -440 q 116 -464 120 -480 l 120 -480 l 140 -480 q 136 -497 136 -520 l 136 -520 q 136 -544 140 -560 l 140 -560 l 260 -560 q 264 -544 264 -520 l 264 -520 q 264 -497 260 -480 l 260 -480 l 280 -480 q 284 -464 284 -440 l 284 -440 q 284 -417 280 -400 l 280 -400 l 310 -400 q 314 -384 314 -360 l 314 -360 q 314 -337 310 -320 l 310 -320 l 330 -320 q 334 -304 334 -280 l 334 -280 q 334 -257 330 -240 l 330 -240 q 334 -224 334 -200 l 334 -200 q 334 -177 330 -160 l 330 -160 l 360 -160 q 364 -144 364 -120 l 364 -120 m 250 -240 q 246 -257 246 -280 l 246 -280 q 246 -304 250 -320 l 250 -320 l 230 -320 q 226 -337 226 -360 l 226 -360 q 226 -384 230 -400 l 230 -400 l 170 -400 q 174 -384 174 -360 l 174 -360 q 174 -337 170 -320 l 170 -320 l 150 -320 q 154 -304 154 -280 l 154 -280 q 154 -257 150 -240 l 150 -240 l 250 -240 m 224 -760 q 224 -737 220 -720 l 220 -720 l 300 -720 q 304 -704 304 -680 l 304 -680 q 304 -657 300 -640 l 300 -640 l 180 -640 q 176 -657 176 -680 l 176 -680 q 176 -704 180 -720 l 180 -720 l 100 -720 q 96 -737 96 -760 l 96 -760 q 96 -784 100 -800 l 100 -800 l 220 -800 q 224 -784 224 -760 l 224 -760 m 364 -760 q 364 -737 360 -720 l 360 -720 l 300 -720 q 296 -737 296 -760 l 296 -760 q 296 -784 300 -800 l 300 -800 l 360 -800 q 364 -784 364 -760 l 364 -760 m 36 -680 q 36 -704 40 -720 l 40 -720 l 100 -720 q 104 -704 104 -680 l 104 -680 q 104 -657 100 -640 l 100 -640 l 40 -640 q 36 -657 36 -680 l 36 -680"},"Æ":{"ha":400,"x_min":36,"x_max":364,"o":"m 364 -280 q 364 -257 360 -240 l 360 -240 l 280 -240 q 284 -224 284 -200 l 284 -200 q 284 -177 280 -160 l 280 -160 q 284 -144 284 -120 l 284 -120 q 284 -97 280 -80 l 280 -80 l 360 -80 q 364 -64 364 -40 l 364 -40 q 364 -17 360 0 l 360 0 l 200 0 q 196 -17 196 -40 l 196 -40 q 196 -64 200 -80 l 200 -80 q 196 -97 196 -120 l 196 -120 q 196 -144 200 -160 l 200 -160 l 120 -160 q 124 -144 124 -120 l 124 -120 q 124 -97 120 -80 l 120 -80 q 124 -64 124 -40 l 124 -40 q 124 -17 120 0 l 120 0 l 40 0 q 36 -17 36 -40 l 36 -40 q 36 -64 40 -80 l 40 -80 q 36 -97 36 -120 l 36 -120 q 36 -144 40 -160 l 40 -160 q 36 -177 36 -200 l 36 -200 q 36 -224 40 -240 l 40 -240 l 60 -240 q 56 -257 56 -280 l 56 -280 q 56 -304 60 -320 l 60 -320 q 56 -337 56 -360 l 56 -360 q 56 -384 60 -400 l 60 -400 l 80 -400 q 76 -417 76 -440 l 76 -440 q 76 -464 80 -480 l 80 -480 l 100 -480 q 96 -497 96 -520 l 96 -520 q 96 -544 100 -560 l 100 -560 l 360 -560 q 364 -544 364 -520 l 364 -520 q 364 -497 360 -480 l 360 -480 l 280 -480 q 284 -464 284 -440 l 284 -440 q 284 -417 280 -400 l 280 -400 q 284 -384 284 -360 l 284 -360 q 284 -337 280 -320 l 280 -320 l 360 -320 q 364 -304 364 -280 l 364 -280 m 140 -240 l 200 -240 q 196 -257 196 -280 l 196 -280 q 196 -304 200 -320 l 200 -320 q 196 -337 196 -360 l 196 -360 q 196 -384 200 -400 l 200 -400 q 196 -417 196 -440 l 196 -440 q 196 -464 200 -480 l 200 -480 l 140 -480 q 144 -464 144 -440 l 144 -440 q 144 -417 140 -400 l 140 -400 q 144 -384 144 -360 l 144 -360 q 144 -337 140 -320 l 140 -320 q 144 -304 144 -280 l 144 -280 q 144 -257 140 -240 l 140 -240"},"Ǽ":{"ha":400,"x_min":36,"x_max":364,"o":"m 240 -640 l 160 -640 q 156 -657 156 -680 l 156 -680 q 156 -704 160 -720 l 160 -720 l 200 -720 q 196 -737 196 -760 l 196 -760 q 196 -784 200 -800 l 200 -800 l 280 -800 q 284 -784 284 -760 l 284 -760 q 284 -737 280 -720 l 280 -720 l 240 -720 q 244 -704 244 -680 l 244 -680 q 244 -657 240 -640 l 240 -640 m 364 -280 q 364 -257 360 -240 l 360 -240 l 280 -240 q 284 -224 284 -200 l 284 -200 q 284 -177 280 -160 l 280 -160 q 284 -144 284 -120 l 284 -120 q 284 -97 280 -80 l 280 -80 l 360 -80 q 364 -64 364 -40 l 364 -40 q 364 -17 360 0 l 360 0 l 200 0 q 196 -17 196 -40 l 196 -40 q 196 -64 200 -80 l 200 -80 q 196 -97 196 -120 l 196 -120 q 196 -144 200 -160 l 200 -160 l 120 -160 q 124 -144 124 -120 l 124 -120 q 124 -97 120 -80 l 120 -80 q 124 -64 124 -40 l 124 -40 q 124 -17 120 0 l 120 0 l 40 0 q 36 -17 36 -40 l 36 -40 q 36 -64 40 -80 l 40 -80 q 36 -97 36 -120 l 36 -120 q 36 -144 40 -160 l 40 -160 q 36 -177 36 -200 l 36 -200 q 36 -224 40 -240 l 40 -240 l 60 -240 q 56 -257 56 -280 l 56 -280 q 56 -304 60 -320 l 60 -320 q 56 -337 56 -360 l 56 -360 q 56 -384 60 -400 l 60 -400 l 80 -400 q 76 -417 76 -440 l 76 -440 q 76 -464 80 -480 l 80 -480 l 100 -480 q 96 -497 96 -520 l 96 -520 q 96 -544 100 -560 l 100 -560 l 360 -560 q 364 -544 364 -520 l 364 -520 q 364 -497 360 -480 l 360 -480 l 280 -480 q 284 -464 284 -440 l 284 -440 q 284 -417 280 -400 l 280 -400 q 284 -384 284 -360 l 284 -360 q 284 -337 280 -320 l 280 -320 l 360 -320 q 364 -304 364 -280 l 364 -280 m 140 -240 l 200 -240 q 196 -257 196 -280 l 196 -280 q 196 -304 200 -320 l 200 -320 q 196 -337 196 -360 l 196 -360 q 196 -384 200 -400 l 200 -400 q 196 -417 196 -440 l 196 -440 q 196 -464 200 -480 l 200 -480 l 140 -480 q 144 -464 144 -440 l 144 -440 q 144 -417 140 -400 l 140 -400 q 144 -384 144 -360 l 144 -360 q 144 -337 140 -320 l 140 -320 q 144 -304 144 -280 l 144 -280 q 144 -257 140 -240 l 140 -240"},"B":{"ha":400,"x_min":36,"x_max":364,"o":"m 364 -360 q 364 -337 360 -320 l 360 -320 l 320 -320 q 324 -304 324 -280 l 324 -280 q 324 -257 320 -240 l 320 -240 l 360 -240 q 364 -224 364 -200 l 364 -200 q 364 -177 360 -160 l 360 -160 q 364 -144 364 -120 l 364 -120 q 364 -97 360 -80 l 360 -80 l 320 -80 q 324 -64 324 -40 l 324 -40 q 324 -17 320 0 l 320 0 l 40 0 q 36 -17 36 -40 l 36 -40 q 36 -64 40 -80 l 40 -80 q 36 -97 36 -120 l 36 -120 q 36 -144 40 -160 l 40 -160 q 36 -177 36 -200 l 36 -200 q 36 -224 40 -240 l 40 -240 q 36 -257 36 -280 l 36 -280 q 36 -304 40 -320 l 40 -320 q 36 -337 36 -360 l 36 -360 q 36 -384 40 -400 l 40 -400 q 36 -417 36 -440 l 36 -440 q 36 -464 40 -480 l 40 -480 q 36 -497 36 -520 l 36 -520 q 36 -544 40 -560 l 40 -560 l 320 -560 q 324 -544 324 -520 l 324 -520 q 324 -497 320 -480 l 320 -480 l 360 -480 q 364 -464 364 -440 l 364 -440 q 364 -417 360 -400 l 360 -400 q 364 -384 364 -360 l 364 -360 m 280 -320 q 276 -337 276 -360 l 276 -360 q 276 -384 280 -400 l 280 -400 q 276 -417 276 -440 l 276 -440 q 276 -464 280 -480 l 280 -480 l 120 -480 q 124 -464 124 -440 l 124 -440 q 124 -417 120 -400 l 120 -400 q 124 -384 124 -360 l 124 -360 q 124 -337 120 -320 l 120 -320 l 280 -320 m 280 -160 q 276 -177 276 -200 l 276 -200 q 276 -224 280 -240 l 280 -240 l 120 -240 q 124 -224 124 -200 l 124 -200 q 124 -177 120 -160 l 120 -160 q 124 -144 124 -120 l 124 -120 q 124 -97 120 -80 l 120 -80 l 280 -80 q 276 -97 276 -120 l 276 -120 q 276 -144 280 -160 l 280 -160"},"C":{"ha":400,"x_min":36,"x_max":364,"o":"m 280 -160 l 360 -160 q 364 -144 364 -120 l 364 -120 q 364 -97 360 -80 l 360 -80 l 320 -80 q 324 -64 324 -40 l 324 -40 q 324 -17 320 0 l 320 0 l 120 0 q 116 -17 116 -40 l 116 -40 q 116 -64 120 -80 l 120 -80 l 80 -80 q 76 -97 76 -120 l 76 -120 q 76 -144 80 -160 l 80 -160 l 40 -160 q 36 -177 36 -200 l 36 -200 q 36 -224 40 -240 l 40 -240 q 36 -257 36 -280 l 36 -280 q 36 -304 40 -320 l 40 -320 q 36 -337 36 -360 l 36 -360 q 36 -384 40 -400 l 40 -400 l 80 -400 q 76 -417 76 -440 l 76 -440 q 76 -464 80 -480 l 80 -480 l 120 -480 q 116 -497 116 -520 l 116 -520 q 116 -544 120 -560 l 120 -560 l 320 -560 q 324 -544 324 -520 l 324 -520 q 324 -497 320 -480 l 320 -480 l 360 -480 q 364 -464 364 -440 l 364 -440 q 364 -417 360 -400 l 360 -400 l 280 -400 q 276 -417 276 -440 l 276 -440 q 276 -464 280 -480 l 280 -480 l 160 -480 q 164 -464 164 -440 l 164 -440 q 164 -417 160 -400 l 160 -400 l 120 -400 q 124 -384 124 -360 l 124 -360 q 124 -337 120 -320 l 120 -320 q 124 -304 124 -280 l 124 -280 q 124 -257 120 -240 l 120 -240 q 124 -224 124 -200 l 124 -200 q 124 -177 120 -160 l 120 -160 l 160 -160 q 164 -144 164 -120 l 164 -120 q 164 -97 160 -80 l 160 -80 l 280 -80 q 276 -97 276 -120 l 276 -120 q 276 -144 280 -160 l 280 -160"},"Ć":{"ha":400,"x_min":36,"x_max":364,"o":"m 260 -640 l 180 -640 q 176 -657 176 -680 l 176 -680 q 176 -704 180 -720 l 180 -720 l 220 -720 q 216 -737 216 -760 l 216 -760 q 216 -784 220 -800 l 220 -800 l 300 -800 q 304 -784 304 -760 l 304 -760 q 304 -737 300 -720 l 300 -720 l 260 -720 q 264 -704 264 -680 l 264 -680 q 264 -657 260 -640 l 260 -640 m 280 -160 l 360 -160 q 364 -144 364 -120 l 364 -120 q 364 -97 360 -80 l 360 -80 l 320 -80 q 324 -64 324 -40 l 324 -40 q 324 -17 320 0 l 320 0 l 120 0 q 116 -17 116 -40 l 116 -40 q 116 -64 120 -80 l 120 -80 l 80 -80 q 76 -97 76 -120 l 76 -120 q 76 -144 80 -160 l 80 -160 l 40 -160 q 36 -177 36 -200 l 36 -200 q 36 -224 40 -240 l 40 -240 q 36 -257 36 -280 l 36 -280 q 36 -304 40 -320 l 40 -320 q 36 -337 36 -360 l 36 -360 q 36 -384 40 -400 l 40 -400 l 80 -400 q 76 -417 76 -440 l 76 -440 q 76 -464 80 -480 l 80 -480 l 120 -480 q 116 -497 116 -520 l 116 -520 q 116 -544 120 -560 l 120 -560 l 320 -560 q 324 -544 324 -520 l 324 -520 q 324 -497 320 -480 l 320 -480 l 360 -480 q 364 -464 364 -440 l 364 -440 q 364 -417 360 -400 l 360 -400 l 280 -400 q 276 -417 276 -440 l 276 -440 q 276 -464 280 -480 l 280 -480 l 160 -480 q 164 -464 164 -440 l 164 -440 q 164 -417 160 -400 l 160 -400 l 120 -400 q 124 -384 124 -360 l 124 -360 q 124 -337 120 -320 l 120 -320 q 124 -304 124 -280 l 124 -280 q 124 -257 120 -240 l 120 -240 q 124 -224 124 -200 l 124 -200 q 124 -177 120 -160 l 120 -160 l 160 -160 q 164 -144 164 -120 l 164 -120 q 164 -97 160 -80 l 160 -80 l 280 -80 q 276 -97 276 -120 l 276 -120 q 276 -144 280 -160 l 280 -160"},"Č":{"ha":400,"x_min":36,"x_max":364,"o":"m 280 -160 l 360 -160 q 364 -144 364 -120 l 364 -120 q 364 -97 360 -80 l 360 -80 l 320 -80 q 324 -64 324 -40 l 324 -40 q 324 -17 320 0 l 320 0 l 120 0 q 116 -17 116 -40 l 116 -40 q 116 -64 120 -80 l 120 -80 l 80 -80 q 76 -97 76 -120 l 76 -120 q 76 -144 80 -160 l 80 -160 l 40 -160 q 36 -177 36 -200 l 36 -200 q 36 -224 40 -240 l 40 -240 q 36 -257 36 -280 l 36 -280 q 36 -304 40 -320 l 40 -320 q 36 -337 36 -360 l 36 -360 q 36 -384 40 -400 l 40 -400 l 80 -400 q 76 -417 76 -440 l 76 -440 q 76 -464 80 -480 l 80 -480 l 120 -480 q 116 -497 116 -520 l 116 -520 q 116 -544 120 -560 l 120 -560 l 320 -560 q 324 -544 324 -520 l 324 -520 q 324 -497 320 -480 l 320 -480 l 360 -480 q 364 -464 364 -440 l 364 -440 q 364 -417 360 -400 l 360 -400 l 280 -400 q 276 -417 276 -440 l 276 -440 q 276 -464 280 -480 l 280 -480 l 160 -480 q 164 -464 164 -440 l 164 -440 q 164 -417 160 -400 l 160 -400 l 120 -400 q 124 -384 124 -360 l 124 -360 q 124 -337 120 -320 l 120 -320 q 124 -304 124 -280 l 124 -280 q 124 -257 120 -240 l 120 -240 q 124 -224 124 -200 l 124 -200 q 124 -177 120 -160 l 120 -160 l 160 -160 q 164 -144 164 -120 l 164 -120 q 164 -97 160 -80 l 160 -80 l 280 -80 q 276 -97 276 -120 l 276 -120 q 276 -144 280 -160 l 280 -160 m 334 -760 q 334 -737 330 -720 l 330 -720 l 280 -720 q 284 -704 284 -680 l 284 -680 q 284 -657 280 -640 l 280 -640 l 160 -640 q 156 -657 156 -680 l 156 -680 q 156 -704 160 -720 l 160 -720 l 110 -720 q 106 -737 106 -760 l 106 -760 q 106 -784 110 -800 l 110 -800 l 190 -800 q 194 -784 194 -760 l 194 -760 q 194 -737 190 -720 l 190 -720 l 250 -720 q 246 -737 246 -760 l 246 -760 q 246 -784 250 -800 l 250 -800 l 330 -800 q 334 -784 334 -760 l 334 -760"},"Ç":{"ha":400,"x_min":36,"x_max":364,"o":"m 280 -160 l 360 -160 q 364 -144 364 -120 l 364 -120 q 364 -97 360 -80 l 360 -80 l 320 -80 q 324 -64 324 -40 l 324 -40 q 324 -17 320 0 l 320 0 l 120 0 q 116 -17 116 -40 l 116 -40 q 116 -64 120 -80 l 120 -80 l 80 -80 q 76 -97 76 -120 l 76 -120 q 76 -144 80 -160 l 80 -160 l 40 -160 q 36 -177 36 -200 l 36 -200 q 36 -224 40 -240 l 40 -240 q 36 -257 36 -280 l 36 -280 q 36 -304 40 -320 l 40 -320 q 36 -337 36 -360 l 36 -360 q 36 -384 40 -400 l 40 -400 l 80 -400 q 76 -417 76 -440 l 76 -440 q 76 -464 80 -480 l 80 -480 l 120 -480 q 116 -497 116 -520 l 116 -520 q 116 -544 120 -560 l 120 -560 l 320 -560 q 324 -544 324 -520 l 324 -520 q 324 -497 320 -480 l 320 -480 l 360 -480 q 364 -464 364 -440 l 364 -440 q 364 -417 360 -400 l 360 -400 l 280 -400 q 276 -417 276 -440 l 276 -440 q 276 -464 280 -480 l 280 -480 l 160 -480 q 164 -464 164 -440 l 164 -440 q 164 -417 160 -400 l 160 -400 l 120 -400 q 124 -384 124 -360 l 124 -360 q 124 -337 120 -320 l 120 -320 q 124 -304 124 -280 l 124 -280 q 124 -257 120 -240 l 120 -240 q 124 -224 124 -200 l 124 -200 q 124 -177 120 -160 l 120 -160 l 160 -160 q 164 -144 164 -120 l 164 -120 q 164 -97 160 -80 l 160 -80 l 280 -80 q 276 -97 276 -120 l 276 -120 q 276 -144 280 -160 l 280 -160 m 264 40 q 264 63 260 80 l 260 80 l 230 80 q 234 96 234 120 l 234 120 q 234 143 230 160 l 230 160 l 150 160 q 146 143 146 120 l 146 120 q 146 96 150 80 l 150 80 l 200 80 q 196 63 196 40 l 196 40 q 196 16 200 0 l 200 0 l 260 0 q 264 16 264 40 l 264 40"},"Ĉ":{"ha":400,"x_min":36,"x_max":364,"o":"m 280 -160 l 360 -160 q 364 -144 364 -120 l 364 -120 q 364 -97 360 -80 l 360 -80 l 320 -80 q 324 -64 324 -40 l 324 -40 q 324 -17 320 0 l 320 0 l 120 0 q 116 -17 116 -40 l 116 -40 q 116 -64 120 -80 l 120 -80 l 80 -80 q 76 -97 76 -120 l 76 -120 q 76 -144 80 -160 l 80 -160 l 40 -160 q 36 -177 36 -200 l 36 -200 q 36 -224 40 -240 l 40 -240 q 36 -257 36 -280 l 36 -280 q 36 -304 40 -320 l 40 -320 q 36 -337 36 -360 l 36 -360 q 36 -384 40 -400 l 40 -400 l 80 -400 q 76 -417 76 -440 l 76 -440 q 76 -464 80 -480 l 80 -480 l 120 -480 q 116 -497 116 -520 l 116 -520 q 116 -544 120 -560 l 120 -560 l 320 -560 q 324 -544 324 -520 l 324 -520 q 324 -497 320 -480 l 320 -480 l 360 -480 q 364 -464 364 -440 l 364 -440 q 364 -417 360 -400 l 360 -400 l 280 -400 q 276 -417 276 -440 l 276 -440 q 276 -464 280 -480 l 280 -480 l 160 -480 q 164 -464 164 -440 l 164 -440 q 164 -417 160 -400 l 160 -400 l 120 -400 q 124 -384 124 -360 l 124 -360 q 124 -337 120 -320 l 120 -320 q 124 -304 124 -280 l 124 -280 q 124 -257 120 -240 l 120 -240 q 124 -224 124 -200 l 124 -200 q 124 -177 120 -160 l 120 -160 l 160 -160 q 164 -144 164 -120 l 164 -120 q 164 -97 160 -80 l 160 -80 l 280 -80 q 276 -97 276 -120 l 276 -120 q 276 -144 280 -160 l 280 -160 m 330 -720 q 334 -704 334 -680 l 334 -680 q 334 -657 330 -640 l 330 -640 l 250 -640 q 246 -657 246 -680 l 246 -680 q 246 -704 250 -720 l 250 -720 l 190 -720 q 194 -704 194 -680 l 194 -680 q 194 -657 190 -640 l 190 -640 l 110 -640 q 106 -657 106 -680 l 106 -680 q 106 -704 110 -720 l 110 -720 l 160 -720 q 156 -737 156 -760 l 156 -760 q 156 -784 160 -800 l 160 -800 l 280 -800 q 284 -784 284 -760 l 284 -760 q 284 -737 280 -720 l 280 -720 l 330 -720"},"Ċ":{"ha":400,"x_min":36,"x_max":364,"o":"m 280 -160 l 360 -160 q 364 -144 364 -120 l 364 -120 q 364 -97 360 -80 l 360 -80 l 320 -80 q 324 -64 324 -40 l 324 -40 q 324 -17 320 0 l 320 0 l 120 0 q 116 -17 116 -40 l 116 -40 q 116 -64 120 -80 l 120 -80 l 80 -80 q 76 -97 76 -120 l 76 -120 q 76 -144 80 -160 l 80 -160 l 40 -160 q 36 -177 36 -200 l 36 -200 q 36 -224 40 -240 l 40 -240 q 36 -257 36 -280 l 36 -280 q 36 -304 40 -320 l 40 -320 q 36 -337 36 -360 l 36 -360 q 36 -384 40 -400 l 40 -400 l 80 -400 q 76 -417 76 -440 l 76 -440 q 76 -464 80 -480 l 80 -480 l 120 -480 q 116 -497 116 -520 l 116 -520 q 116 -544 120 -560 l 120 -560 l 320 -560 q 324 -544 324 -520 l 324 -520 q 324 -497 320 -480 l 320 -480 l 360 -480 q 364 -464 364 -440 l 364 -440 q 364 -417 360 -400 l 360 -400 l 280 -400 q 276 -417 276 -440 l 276 -440 q 276 -464 280 -480 l 280 -480 l 160 -480 q 164 -464 164 -440 l 164 -440 q 164 -417 160 -400 l 160 -400 l 120 -400 q 124 -384 124 -360 l 124 -360 q 124 -337 120 -320 l 120 -320 q 124 -304 124 -280 l 124 -280 q 124 -257 120 -240 l 120 -240 q 124 -224 124 -200 l 124 -200 q 124 -177 120 -160 l 120 -160 l 160 -160 q 164 -144 164 -120 l 164 -120 q 164 -97 160 -80 l 160 -80 l 280 -80 q 276 -97 276 -120 l 276 -120 q 276 -144 280 -160 l 280 -160 m 180 -720 l 260 -720 q 264 -704 264 -680 l 264 -680 q 264 -657 260 -640 l 260 -640 l 180 -640 q 176 -657 176 -680 l 176 -680 q 176 -704 180 -720 l 180 -720"},"D":{"ha":400,"x_min":36,"x_max":364,"o":"m 360 -320 q 364 -304 364 -280 l 364 -280 q 364 -257 360 -240 l 360 -240 q 364 -224 364 -200 l 364 -200 q 364 -177 360 -160 l 360 -160 l 320 -160 q 324 -144 324 -120 l 324 -120 q 324 -97 320 -80 l 320 -80 l 280 -80 q 284 -64 284 -40 l 284 -40 q 284 -17 280 0 l 280 0 l 40 0 q 36 -17 36 -40 l 36 -40 q 36 -64 40 -80 l 40 -80 q 36 -97 36 -120 l 36 -120 q 36 -144 40 -160 l 40 -160 q 36 -177 36 -200 l 36 -200 q 36 -224 40 -240 l 40 -240 q 36 -257 36 -280 l 36 -280 q 36 -304 40 -320 l 40 -320 q 36 -337 36 -360 l 36 -360 q 36 -384 40 -400 l 40 -400 q 36 -417 36 -440 l 36 -440 q 36 -464 40 -480 l 40 -480 q 36 -497 36 -520 l 36 -520 q 36 -544 40 -560 l 40 -560 l 280 -560 q 284 -544 284 -520 l 284 -520 q 284 -497 280 -480 l 280 -480 l 320 -480 q 324 -464 324 -440 l 324 -440 q 324 -417 320 -400 l 320 -400 l 360 -400 q 364 -384 364 -360 l 364 -360 q 364 -337 360 -320 l 360 -320 m 280 -160 q 276 -177 276 -200 l 276 -200 q 276 -224 280 -240 l 280 -240 q 276 -257 276 -280 l 276 -280 q 276 -304 280 -320 l 280 -320 q 276 -337 276 -360 l 276 -360 q 276 -384 280 -400 l 280 -400 l 240 -400 q 236 -417 236 -440 l 236 -440 q 236 -464 240 -480 l 240 -480 l 120 -480 q 124 -464 124 -440 l 124 -440 q 124 -417 120 -400 l 120 -400 q 124 -384 124 -360 l 124 -360 q 124 -337 120 -320 l 120 -320 q 124 -304 124 -280 l 124 -280 q 124 -257 120 -240 l 120 -240 q 124 -224 124 -200 l 124 -200 q 124 -177 120 -160 l 120 -160 q 124 -144 124 -120 l 124 -120 q 124 -97 120 -80 l 120 -80 l 240 -80 q 236 -97 236 -120 l 236 -120 q 236 -144 240 -160 l 240 -160 l 280 -160"},"Ǆ":{"ha":400,"x_min":36,"x_max":364,"o":"m 140 -720 l 90 -720 q 86 -737 86 -760 l 86 -760 q 86 -784 90 -800 l 90 -800 l 170 -800 q 174 -784 174 -760 l 174 -760 q 174 -737 170 -720 l 170 -720 l 230 -720 q 226 -737 226 -760 l 226 -760 q 226 -784 230 -800 l 230 -800 l 310 -800 q 314 -784 314 -760 l 314 -760 q 314 -737 310 -720 l 310 -720 l 260 -720 q 264 -704 264 -680 l 264 -680 q 264 -657 260 -640 l 260 -640 l 140 -640 q 136 -657 136 -680 l 136 -680 q 136 -704 140 -720 l 140 -720 m 230 -160 l 200 -160 q 204 -144 204 -120 l 204 -120 q 204 -97 200 -80 l 200 -80 l 170 -80 q 174 -64 174 -40 l 174 -40 q 174 -17 170 0 l 170 0 l 40 0 q 36 -17 36 -40 l 36 -40 q 36 -64 40 -80 l 40 -80 q 36 -97 36 -120 l 36 -120 q 36 -144 40 -160 l 40 -160 q 36 -177 36 -200 l 36 -200 q 36 -224 40 -240 l 40 -240 q 36 -257 36 -280 l 36 -280 q 36 -304 40 -320 l 40 -320 q 36 -337 36 -360 l 36 -360 q 36 -384 40 -400 l 40 -400 q 36 -417 36 -440 l 36 -440 q 36 -464 40 -480 l 40 -480 q 36 -497 36 -520 l 36 -520 q 36 -544 40 -560 l 40 -560 l 170 -560 q 174 -544 174 -520 l 174 -520 q 174 -497 170 -480 l 170 -480 l 200 -480 q 204 -464 204 -440 l 204 -440 q 204 -417 200 -400 l 200 -400 l 230 -400 q 234 -384 234 -360 l 234 -360 q 234 -337 230 -320 l 230 -320 q 234 -304 234 -280 l 234 -280 q 234 -257 230 -240 l 230 -240 q 234 -224 234 -200 l 234 -200 q 234 -177 230 -160 l 230 -160 m 360 -480 q 364 -464 364 -440 l 364 -440 q 364 -417 360 -400 l 360 -400 q 364 -384 364 -360 l 364 -360 q 364 -337 360 -320 l 360 -320 l 340 -320 q 344 -304 344 -280 l 344 -280 q 344 -257 340 -240 l 340 -240 q 344 -224 344 -200 l 344 -200 q 344 -177 340 -160 l 340 -160 l 310 -160 q 314 -144 314 -120 l 314 -120 q 314 -97 310 -80 l 310 -80 l 360 -80 q 364 -64 364 -40 l 364 -40 q 364 -17 360 0 l 360 0 l 230 0 q 226 -17 226 -40 l 226 -40 q 226 -64 230 -80 l 230 -80 l 250 -80 q 246 -97 246 -120 l 246 -120 q 246 -144 250 -160 l 250 -160 l 280 -160 q 276 -177 276 -200 l 276 -200 q 276 -224 280 -240 l 280 -240 q 276 -257 276 -280 l 276 -280 q 276 -304 280 -320 l 280 -320 l 300 -320 q 296 -337 296 -360 l 296 -360 q 296 -384 300 -400 l 300 -400 q 296 -417 296 -440 l 296 -440 q 296 -464 300 -480 l 300 -480 l 230 -480 q 226 -497 226 -520 l 226 -520 q 226 -544 230 -560 l 230 -560 l 360 -560 q 364 -544 364 -520 l 364 -520 q 364 -497 360 -480 l 360 -480 m 140 -160 l 170 -160 q 166 -177 166 -200 l 166 -200 q 166 -224 170 -240 l 170 -240 q 166 -257 166 -280 l 166 -280 q 166 -304 170 -320 l 170 -320 q 166 -337 166 -360 l 166 -360 q 166 -384 170 -400 l 170 -400 l 140 -400 q 136 -417 136 -440 l 136 -440 q 136 -464 140 -480 l 140 -480 l 100 -480 q 104 -464 104 -440 l 104 -440 q 104 -417 100 -400 l 100 -400 q 104 -384 104 -360 l 104 -360 q 104 -337 100 -320 l 100 -320 q 104 -304 104 -280 l 104 -280 q 104 -257 100 -240 l 100 -240 q 104 -224 104 -200 l 104 -200 q 104 -177 100 -160 l 100 -160 q 104 -144 104 -120 l 104 -120 q 104 -97 100 -80 l 100 -80 l 140 -80 q 136 -97 136 -120 l 136 -120 q 136 -144 140 -160 l 140 -160"},"Ð":{"ha":400,"x_min":36,"x_max":364,"o":"m 360 -320 q 364 -304 364 -280 l 364 -280 q 364 -257 360 -240 l 360 -240 q 364 -224 364 -200 l 364 -200 q 364 -177 360 -160 l 360 -160 l 320 -160 q 324 -144 324 -120 l 324 -120 q 324 -97 320 -80 l 320 -80 l 280 -80 q 284 -64 284 -40 l 284 -40 q 284 -17 280 0 l 280 0 l 40 0 q 36 -17 36 -40 l 36 -40 q 36 -64 40 -80 l 40 -80 l 80 -80 q 76 -97 76 -120 l 76 -120 q 76 -144 80 -160 l 80 -160 q 76 -177 76 -200 l 76 -200 q 76 -224 80 -240 l 80 -240 l 40 -240 q 36 -257 36 -280 l 36 -280 q 36 -304 40 -320 l 40 -320 l 80 -320 q 76 -337 76 -360 l 76 -360 q 76 -384 80 -400 l 80 -400 q 76 -417 76 -440 l 76 -440 q 76 -464 80 -480 l 80 -480 l 40 -480 q 36 -497 36 -520 l 36 -520 q 36 -544 40 -560 l 40 -560 l 280 -560 q 284 -544 284 -520 l 284 -520 q 284 -497 280 -480 l 280 -480 l 320 -480 q 324 -464 324 -440 l 324 -440 q 324 -417 320 -400 l 320 -400 l 360 -400 q 364 -384 364 -360 l 364 -360 q 364 -337 360 -320 l 360 -320 m 280 -160 q 276 -177 276 -200 l 276 -200 q 276 -224 280 -240 l 280 -240 q 276 -257 276 -280 l 276 -280 q 276 -304 280 -320 l 280 -320 q 276 -337 276 -360 l 276 -360 q 276 -384 280 -400 l 280 -400 l 240 -400 q 236 -417 236 -440 l 236 -440 q 236 -464 240 -480 l 240 -480 l 160 -480 q 164 -464 164 -440 l 164 -440 q 164 -417 160 -400 l 160 -400 q 164 -384 164 -360 l 164 -360 q 164 -337 160 -320 l 160 -320 l 200 -320 q 204 -304 204 -280 l 204 -280 q 204 -257 200 -240 l 200 -240 l 160 -240 q 164 -224 164 -200 l 164 -200 q 164 -177 160 -160 l 160 -160 q 164 -144 164 -120 l 164 -120 q 164 -97 160 -80 l 160 -80 l 240 -80 q 236 -97 236 -120 l 236 -120 q 236 -144 240 -160 l 240 -160 l 280 -160"},"Ď":{"ha":400,"x_min":36,"x_max":364,"o":"m 360 -320 q 364 -304 364 -280 l 364 -280 q 364 -257 360 -240 l 360 -240 q 364 -224 364 -200 l 364 -200 q 364 -177 360 -160 l 360 -160 l 320 -160 q 324 -144 324 -120 l 324 -120 q 324 -97 320 -80 l 320 -80 l 280 -80 q 284 -64 284 -40 l 284 -40 q 284 -17 280 0 l 280 0 l 40 0 q 36 -17 36 -40 l 36 -40 q 36 -64 40 -80 l 40 -80 q 36 -97 36 -120 l 36 -120 q 36 -144 40 -160 l 40 -160 q 36 -177 36 -200 l 36 -200 q 36 -224 40 -240 l 40 -240 q 36 -257 36 -280 l 36 -280 q 36 -304 40 -320 l 40 -320 q 36 -337 36 -360 l 36 -360 q 36 -384 40 -400 l 40 -400 q 36 -417 36 -440 l 36 -440 q 36 -464 40 -480 l 40 -480 q 36 -497 36 -520 l 36 -520 q 36 -544 40 -560 l 40 -560 l 280 -560 q 284 -544 284 -520 l 284 -520 q 284 -497 280 -480 l 280 -480 l 320 -480 q 324 -464 324 -440 l 324 -440 q 324 -417 320 -400 l 320 -400 l 360 -400 q 364 -384 364 -360 l 364 -360 q 364 -337 360 -320 l 360 -320 m 280 -160 q 276 -177 276 -200 l 276 -200 q 276 -224 280 -240 l 280 -240 q 276 -257 276 -280 l 276 -280 q 276 -304 280 -320 l 280 -320 q 276 -337 276 -360 l 276 -360 q 276 -384 280 -400 l 280 -400 l 240 -400 q 236 -417 236 -440 l 236 -440 q 236 -464 240 -480 l 240 -480 l 120 -480 q 124 -464 124 -440 l 124 -440 q 124 -417 120 -400 l 120 -400 q 124 -384 124 -360 l 124 -360 q 124 -337 120 -320 l 120 -320 q 124 -304 124 -280 l 124 -280 q 124 -257 120 -240 l 120 -240 q 124 -224 124 -200 l 124 -200 q 124 -177 120 -160 l 120 -160 q 124 -144 124 -120 l 124 -120 q 124 -97 120 -80 l 120 -80 l 240 -80 q 236 -97 236 -120 l 236 -120 q 236 -144 240 -160 l 240 -160 l 280 -160 m 314 -760 q 314 -737 310 -720 l 310 -720 l 260 -720 q 264 -704 264 -680 l 264 -680 q 264 -657 260 -640 l 260 -640 l 140 -640 q 136 -657 136 -680 l 136 -680 q 136 -704 140 -720 l 140 -720 l 90 -720 q 86 -737 86 -760 l 86 -760 q 86 -784 90 -800 l 90 -800 l 170 -800 q 174 -784 174 -760 l 174 -760 q 174 -737 170 -720 l 170 -720 l 230 -720 q 226 -737 226 -760 l 226 -760 q 226 -784 230 -800 l 230 -800 l 310 -800 q 314 -784 314 -760 l 314 -760"},"Đ":{"ha":400,"x_min":36,"x_max":364,"o":"m 360 -320 q 364 -304 364 -280 l 364 -280 q 364 -257 360 -240 l 360 -240 q 364 -224 364 -200 l 364 -200 q 364 -177 360 -160 l 360 -160 l 320 -160 q 324 -144 324 -120 l 324 -120 q 324 -97 320 -80 l 320 -80 l 280 -80 q 284 -64 284 -40 l 284 -40 q 284 -17 280 0 l 280 0 l 40 0 q 36 -17 36 -40 l 36 -40 q 36 -64 40 -80 l 40 -80 l 80 -80 q 76 -97 76 -120 l 76 -120 q 76 -144 80 -160 l 80 -160 q 76 -177 76 -200 l 76 -200 q 76 -224 80 -240 l 80 -240 l 40 -240 q 36 -257 36 -280 l 36 -280 q 36 -304 40 -320 l 40 -320 l 80 -320 q 76 -337 76 -360 l 76 -360 q 76 -384 80 -400 l 80 -400 q 76 -417 76 -440 l 76 -440 q 76 -464 80 -480 l 80 -480 l 40 -480 q 36 -497 36 -520 l 36 -520 q 36 -544 40 -560 l 40 -560 l 280 -560 q 284 -544 284 -520 l 284 -520 q 284 -497 280 -480 l 280 -480 l 320 -480 q 324 -464 324 -440 l 324 -440 q 324 -417 320 -400 l 320 -400 l 360 -400 q 364 -384 364 -360 l 364 -360 q 364 -337 360 -320 l 360 -320 m 280 -160 q 276 -177 276 -200 l 276 -200 q 276 -224 280 -240 l 280 -240 q 276 -257 276 -280 l 276 -280 q 276 -304 280 -320 l 280 -320 q 276 -337 276 -360 l 276 -360 q 276 -384 280 -400 l 280 -400 l 240 -400 q 236 -417 236 -440 l 236 -440 q 236 -464 240 -480 l 240 -480 l 160 -480 q 164 -464 164 -440 l 164 -440 q 164 -417 160 -400 l 160 -400 q 164 -384 164 -360 l 164 -360 q 164 -337 160 -320 l 160 -320 l 200 -320 q 204 -304 204 -280 l 204 -280 q 204 -257 200 -240 l 200 -240 l 160 -240 q 164 -224 164 -200 l 164 -200 q 164 -177 160 -160 l 160 -160 q 164 -144 164 -120 l 164 -120 q 164 -97 160 -80 l 160 -80 l 240 -80 q 236 -97 236 -120 l 236 -120 q 236 -144 240 -160 l 240 -160 l 280 -160"},"ǅ":{"ha":400,"x_min":36,"x_max":364,"o":"m 140 -720 l 90 -720 q 86 -737 86 -760 l 86 -760 q 86 -784 90 -800 l 90 -800 l 170 -800 q 174 -784 174 -760 l 174 -760 q 174 -737 170 -720 l 170 -720 l 230 -720 q 226 -737 226 -760 l 226 -760 q 226 -784 230 -800 l 230 -800 l 310 -800 q 314 -784 314 -760 l 314 -760 q 314 -737 310 -720 l 310 -720 l 260 -720 q 264 -704 264 -680 l 264 -680 q 264 -657 260 -640 l 260 -640 l 140 -640 q 136 -657 136 -680 l 136 -680 q 136 -704 140 -720 l 140 -720 m 364 -280 q 364 -257 360 -240 l 360 -240 l 340 -240 q 344 -224 344 -200 l 344 -200 q 344 -177 340 -160 l 340 -160 l 310 -160 q 314 -144 314 -120 l 314 -120 q 314 -97 310 -80 l 310 -80 l 360 -80 q 364 -64 364 -40 l 364 -40 q 364 -17 360 0 l 360 0 l 230 0 q 226 -17 226 -40 l 226 -40 q 226 -64 230 -80 l 230 -80 l 250 -80 q 246 -97 246 -120 l 246 -120 q 246 -144 250 -160 l 250 -160 l 280 -160 q 276 -177 276 -200 l 276 -200 q 276 -224 280 -240 l 280 -240 l 300 -240 q 296 -257 296 -280 l 296 -280 q 296 -304 300 -320 l 300 -320 l 230 -320 q 234 -304 234 -280 l 234 -280 q 234 -257 230 -240 l 230 -240 q 234 -224 234 -200 l 234 -200 q 234 -177 230 -160 l 230 -160 l 200 -160 q 204 -144 204 -120 l 204 -120 q 204 -97 200 -80 l 200 -80 l 170 -80 q 174 -64 174 -40 l 174 -40 q 174 -17 170 0 l 170 0 l 40 0 q 36 -17 36 -40 l 36 -40 q 36 -64 40 -80 l 40 -80 q 36 -97 36 -120 l 36 -120 q 36 -144 40 -160 l 40 -160 q 36 -177 36 -200 l 36 -200 q 36 -224 40 -240 l 40 -240 q 36 -257 36 -280 l 36 -280 q 36 -304 40 -320 l 40 -320 q 36 -337 36 -360 l 36 -360 q 36 -384 40 -400 l 40 -400 q 36 -417 36 -440 l 36 -440 q 36 -464 40 -480 l 40 -480 q 36 -497 36 -520 l 36 -520 q 36 -544 40 -560 l 40 -560 l 170 -560 q 174 -544 174 -520 l 174 -520 q 174 -497 170 -480 l 170 -480 l 200 -480 q 204 -464 204 -440 l 204 -440 q 204 -417 200 -400 l 200 -400 l 360 -400 q 364 -384 364 -360 l 364 -360 q 364 -337 360 -320 l 360 -320 q 364 -304 364 -280 l 364 -280 m 170 -240 q 166 -257 166 -280 l 166 -280 q 166 -304 170 -320 l 170 -320 q 166 -337 166 -360 l 166 -360 q 166 -384 170 -400 l 170 -400 l 140 -400 q 136 -417 136 -440 l 136 -440 q 136 -464 140 -480 l 140 -480 l 100 -480 q 104 -464 104 -440 l 104 -440 q 104 -417 100 -400 l 100 -400 q 104 -384 104 -360 l 104 -360 q 104 -337 100 -320 l 100 -320 q 104 -304 104 -280 l 104 -280 q 104 -257 100 -240 l 100 -240 q 104 -224 104 -200 l 104 -200 q 104 -177 100 -160 l 100 -160 q 104 -144 104 -120 l 104 -120 q 104 -97 100 -80 l 100 -80 l 140 -80 q 136 -97 136 -120 l 136 -120 q 136 -144 140 -160 l 140 -160 l 170 -160 q 166 -177 166 -200 l 166 -200 q 166 -224 170 -240 l 170 -240"},"E":{"ha":400,"x_min":76,"x_max":324,"o":"m 320 -240 l 160 -240 q 164 -224 164 -200 l 164 -200 q 164 -177 160 -160 l 160 -160 q 164 -144 164 -120 l 164 -120 q 164 -97 160 -80 l 160 -80 l 320 -80 q 324 -64 324 -40 l 324 -40 q 324 -17 320 0 l 320 0 l 80 0 q 76 -17 76 -40 l 76 -40 q 76 -64 80 -80 l 80 -80 q 76 -97 76 -120 l 76 -120 q 76 -144 80 -160 l 80 -160 q 76 -177 76 -200 l 76 -200 q 76 -224 80 -240 l 80 -240 q 76 -257 76 -280 l 76 -280 q 76 -304 80 -320 l 80 -320 q 76 -337 76 -360 l 76 -360 q 76 -384 80 -400 l 80 -400 q 76 -417 76 -440 l 76 -440 q 76 -464 80 -480 l 80 -480 q 76 -497 76 -520 l 76 -520 q 76 -544 80 -560 l 80 -560 l 320 -560 q 324 -544 324 -520 l 324 -520 q 324 -497 320 -480 l 320 -480 l 160 -480 q 164 -464 164 -440 l 164 -440 q 164 -417 160 -400 l 160 -400 q 164 -384 164 -360 l 164 -360 q 164 -337 160 -320 l 160 -320 l 320 -320 q 324 -304 324 -280 l 324 -280 q 324 -257 320 -240 l 320 -240"},"É":{"ha":400,"x_min":76,"x_max":324,"o":"m 240 -640 l 160 -640 q 156 -657 156 -680 l 156 -680 q 156 -704 160 -720 l 160 -720 l 200 -720 q 196 -737 196 -760 l 196 -760 q 196 -784 200 -800 l 200 -800 l 280 -800 q 284 -784 284 -760 l 284 -760 q 284 -737 280 -720 l 280 -720 l 240 -720 q 244 -704 244 -680 l 244 -680 q 244 -657 240 -640 l 240 -640 m 320 -240 l 160 -240 q 164 -224 164 -200 l 164 -200 q 164 -177 160 -160 l 160 -160 q 164 -144 164 -120 l 164 -120 q 164 -97 160 -80 l 160 -80 l 320 -80 q 324 -64 324 -40 l 324 -40 q 324 -17 320 0 l 320 0 l 80 0 q 76 -17 76 -40 l 76 -40 q 76 -64 80 -80 l 80 -80 q 76 -97 76 -120 l 76 -120 q 76 -144 80 -160 l 80 -160 q 76 -177 76 -200 l 76 -200 q 76 -224 80 -240 l 80 -240 q 76 -257 76 -280 l 76 -280 q 76 -304 80 -320 l 80 -320 q 76 -337 76 -360 l 76 -360 q 76 -384 80 -400 l 80 -400 q 76 -417 76 -440 l 76 -440 q 76 -464 80 -480 l 80 -480 q 76 -497 76 -520 l 76 -520 q 76 -544 80 -560 l 80 -560 l 320 -560 q 324 -544 324 -520 l 324 -520 q 324 -497 320 -480 l 320 -480 l 160 -480 q 164 -464 164 -440 l 164 -440 q 164 -417 160 -400 l 160 -400 q 164 -384 164 -360 l 164 -360 q 164 -337 160 -320 l 160 -320 l 320 -320 q 324 -304 324 -280 l 324 -280 q 324 -257 320 -240 l 320 -240"},"Ĕ":{"ha":400,"x_min":36,"x_max":364,"o":"m 320 -240 l 160 -240 q 164 -224 164 -200 l 164 -200 q 164 -177 160 -160 l 160 -160 q 164 -144 164 -120 l 164 -120 q 164 -97 160 -80 l 160 -80 l 320 -80 q 324 -64 324 -40 l 324 -40 q 324 -17 320 0 l 320 0 l 80 0 q 76 -17 76 -40 l 76 -40 q 76 -64 80 -80 l 80 -80 q 76 -97 76 -120 l 76 -120 q 76 -144 80 -160 l 80 -160 q 76 -177 76 -200 l 76 -200 q 76 -224 80 -240 l 80 -240 q 76 -257 76 -280 l 76 -280 q 76 -304 80 -320 l 80 -320 q 76 -337 76 -360 l 76 -360 q 76 -384 80 -400 l 80 -400 q 76 -417 76 -440 l 76 -440 q 76 -464 80 -480 l 80 -480 q 76 -497 76 -520 l 76 -520 q 76 -544 80 -560 l 80 -560 l 320 -560 q 324 -544 324 -520 l 324 -520 q 324 -497 320 -480 l 320 -480 l 160 -480 q 164 -464 164 -440 l 164 -440 q 164 -417 160 -400 l 160 -400 q 164 -384 164 -360 l 164 -360 q 164 -337 160 -320 l 160 -320 l 320 -320 q 324 -304 324 -280 l 324 -280 q 324 -257 320 -240 l 320 -240 m 40 -800 l 120 -800 q 124 -784 124 -760 l 124 -760 q 124 -737 120 -720 l 120 -720 l 40 -720 q 36 -737 36 -760 l 36 -760 q 36 -784 40 -800 l 40 -800 m 280 -800 l 360 -800 q 364 -784 364 -760 l 364 -760 q 364 -737 360 -720 l 360 -720 l 280 -720 q 276 -737 276 -760 l 276 -760 q 276 -784 280 -800 l 280 -800 m 120 -720 l 280 -720 q 284 -704 284 -680 l 284 -680 q 284 -657 280 -640 l 280 -640 l 120 -640 q 116 -657 116 -680 l 116 -680 q 116 -704 120 -720 l 120 -720"},"Ě":{"ha":400,"x_min":76,"x_max":324,"o":"m 320 -240 l 160 -240 q 164 -224 164 -200 l 164 -200 q 164 -177 160 -160 l 160 -160 q 164 -144 164 -120 l 164 -120 q 164 -97 160 -80 l 160 -80 l 320 -80 q 324 -64 324 -40 l 324 -40 q 324 -17 320 0 l 320 0 l 80 0 q 76 -17 76 -40 l 76 -40 q 76 -64 80 -80 l 80 -80 q 76 -97 76 -120 l 76 -120 q 76 -144 80 -160 l 80 -160 q 76 -177 76 -200 l 76 -200 q 76 -224 80 -240 l 80 -240 q 76 -257 76 -280 l 76 -280 q 76 -304 80 -320 l 80 -320 q 76 -337 76 -360 l 76 -360 q 76 -384 80 -400 l 80 -400 q 76 -417 76 -440 l 76 -440 q 76 -464 80 -480 l 80 -480 q 76 -497 76 -520 l 76 -520 q 76 -544 80 -560 l 80 -560 l 320 -560 q 324 -544 324 -520 l 324 -520 q 324 -497 320 -480 l 320 -480 l 160 -480 q 164 -464 164 -440 l 164 -440 q 164 -417 160 -400 l 160 -400 q 164 -384 164 -360 l 164 -360 q 164 -337 160 -320 l 160 -320 l 320 -320 q 324 -304 324 -280 l 324 -280 q 324 -257 320 -240 l 320 -240 m 314 -760 q 314 -737 310 -720 l 310 -720 l 260 -720 q 264 -704 264 -680 l 264 -680 q 264 -657 260 -640 l 260 -640 l 140 -640 q 136 -657 136 -680 l 136 -680 q 136 -704 140 -720 l 140 -720 l 90 -720 q 86 -737 86 -760 l 86 -760 q 86 -784 90 -800 l 90 -800 l 170 -800 q 174 -784 174 -760 l 174 -760 q 174 -737 170 -720 l 170 -720 l 230 -720 q 226 -737 226 -760 l 226 -760 q 226 -784 230 -800 l 230 -800 l 310 -800 q 314 -784 314 -760 l 314 -760"},"Ê":{"ha":400,"x_min":76,"x_max":324,"o":"m 320 -240 l 160 -240 q 164 -224 164 -200 l 164 -200 q 164 -177 160 -160 l 160 -160 q 164 -144 164 -120 l 164 -120 q 164 -97 160 -80 l 160 -80 l 320 -80 q 324 -64 324 -40 l 324 -40 q 324 -17 320 0 l 320 0 l 80 0 q 76 -17 76 -40 l 76 -40 q 76 -64 80 -80 l 80 -80 q 76 -97 76 -120 l 76 -120 q 76 -144 80 -160 l 80 -160 q 76 -177 76 -200 l 76 -200 q 76 -224 80 -240 l 80 -240 q 76 -257 76 -280 l 76 -280 q 76 -304 80 -320 l 80 -320 q 76 -337 76 -360 l 76 -360 q 76 -384 80 -400 l 80 -400 q 76 -417 76 -440 l 76 -440 q 76 -464 80 -480 l 80 -480 q 76 -497 76 -520 l 76 -520 q 76 -544 80 -560 l 80 -560 l 320 -560 q 324 -544 324 -520 l 324 -520 q 324 -497 320 -480 l 320 -480 l 160 -480 q 164 -464 164 -440 l 164 -440 q 164 -417 160 -400 l 160 -400 q 164 -384 164 -360 l 164 -360 q 164 -337 160 -320 l 160 -320 l 320 -320 q 324 -304 324 -280 l 324 -280 q 324 -257 320 -240 l 320 -240 m 310 -720 q 314 -704 314 -680 l 314 -680 q 314 -657 310 -640 l 310 -640 l 230 -640 q 226 -657 226 -680 l 226 -680 q 226 -704 230 -720 l 230 -720 l 170 -720 q 174 -704 174 -680 l 174 -680 q 174 -657 170 -640 l 170 -640 l 90 -640 q 86 -657 86 -680 l 86 -680 q 86 -704 90 -720 l 90 -720 l 140 -720 q 136 -737 136 -760 l 136 -760 q 136 -784 140 -800 l 140 -800 l 260 -800 q 264 -784 264 -760 l 264 -760 q 264 -737 260 -720 l 260 -720 l 310 -720"},"Ế":{"ha":400,"x_min":76,"x_max":404,"o":"m 404 -920 q 404 -897 400 -880 l 400 -880 l 360 -880 q 364 -864 364 -840 l 364 -840 q 364 -817 360 -800 l 360 -800 l 280 -800 q 276 -817 276 -840 l 276 -840 q 276 -864 280 -880 l 280 -880 l 320 -880 q 316 -897 316 -920 l 316 -920 q 316 -944 320 -960 l 320 -960 l 400 -960 q 404 -944 404 -920 l 404 -920 m 170 -640 l 90 -640 q 86 -657 86 -680 l 86 -680 q 86 -704 90 -720 l 90 -720 l 140 -720 q 136 -737 136 -760 l 136 -760 q 136 -784 140 -800 l 140 -800 l 260 -800 q 264 -784 264 -760 l 264 -760 q 264 -737 260 -720 l 260 -720 l 310 -720 q 314 -704 314 -680 l 314 -680 q 314 -657 310 -640 l 310 -640 l 230 -640 q 226 -657 226 -680 l 226 -680 q 226 -704 230 -720 l 230 -720 l 170 -720 q 174 -704 174 -680 l 174 -680 q 174 -657 170 -640 l 170 -640 m 320 -480 l 160 -480 q 164 -464 164 -440 l 164 -440 q 164 -417 160 -400 l 160 -400 q 164 -384 164 -360 l 164 -360 q 164 -337 160 -320 l 160 -320 l 320 -320 q 324 -304 324 -280 l 324 -280 q 324 -257 320 -240 l 320 -240 l 160 -240 q 164 -224 164 -200 l 164 -200 q 164 -177 160 -160 l 160 -160 q 164 -144 164 -120 l 164 -120 q 164 -97 160 -80 l 160 -80 l 320 -80 q 324 -64 324 -40 l 324 -40 q 324 -17 320 0 l 320 0 l 80 0 q 76 -17 76 -40 l 76 -40 q 76 -64 80 -80 l 80 -80 q 76 -97 76 -120 l 76 -120 q 76 -144 80 -160 l 80 -160 q 76 -177 76 -200 l 76 -200 q 76 -224 80 -240 l 80 -240 q 76 -257 76 -280 l 76 -280 q 76 -304 80 -320 l 80 -320 q 76 -337 76 -360 l 76 -360 q 76 -384 80 -400 l 80 -400 q 76 -417 76 -440 l 76 -440 q 76 -464 80 -480 l 80 -480 q 76 -497 76 -520 l 76 -520 q 76 -544 80 -560 l 80 -560 l 320 -560 q 324 -544 324 -520 l 324 -520 q 324 -497 320 -480 l 320 -480"},"Ệ":{"ha":400,"x_min":76,"x_max":324,"o":"m 320 -240 l 160 -240 q 164 -224 164 -200 l 164 -200 q 164 -177 160 -160 l 160 -160 q 164 -144 164 -120 l 164 -120 q 164 -97 160 -80 l 160 -80 l 320 -80 q 324 -64 324 -40 l 324 -40 q 324 -17 320 0 l 320 0 l 80 0 q 76 -17 76 -40 l 76 -40 q 76 -64 80 -80 l 80 -80 q 76 -97 76 -120 l 76 -120 q 76 -144 80 -160 l 80 -160 q 76 -177 76 -200 l 76 -200 q 76 -224 80 -240 l 80 -240 q 76 -257 76 -280 l 76 -280 q 76 -304 80 -320 l 80 -320 q 76 -337 76 -360 l 76 -360 q 76 -384 80 -400 l 80 -400 q 76 -417 76 -440 l 76 -440 q 76 -464 80 -480 l 80 -480 q 76 -497 76 -520 l 76 -520 q 76 -544 80 -560 l 80 -560 l 320 -560 q 324 -544 324 -520 l 324 -520 q 324 -497 320 -480 l 320 -480 l 160 -480 q 164 -464 164 -440 l 164 -440 q 164 -417 160 -400 l 160 -400 q 164 -384 164 -360 l 164 -360 q 164 -337 160 -320 l 160 -320 l 320 -320 q 324 -304 324 -280 l 324 -280 q 324 -257 320 -240 l 320 -240 m 160 80 l 240 80 q 244 96 244 120 l 244 120 q 244 143 240 160 l 240 160 l 160 160 q 156 143 156 120 l 156 120 q 156 96 160 80 l 160 80 m 310 -720 q 314 -704 314 -680 l 314 -680 q 314 -657 310 -640 l 310 -640 l 230 -640 q 226 -657 226 -680 l 226 -680 q 226 -704 230 -720 l 230 -720 l 170 -720 q 174 -704 174 -680 l 174 -680 q 174 -657 170 -640 l 170 -640 l 90 -640 q 86 -657 86 -680 l 86 -680 q 86 -704 90 -720 l 90 -720 l 140 -720 q 136 -737 136 -760 l 136 -760 q 136 -784 140 -800 l 140 -800 l 260 -800 q 264 -784 264 -760 l 264 -760 q 264 -737 260 -720 l 260 -720 l 310 -720"},"Ề":{"ha":400,"x_min":-4,"x_max":324,"o":"m 124 -840 q 124 -817 120 -800 l 120 -800 l 40 -800 q 36 -817 36 -840 l 36 -840 q 36 -864 40 -880 l 40 -880 l 0 -880 q -4 -897 -4 -920 l -4 -920 q -4 -944 0 -960 l 0 -960 l 80 -960 q 84 -944 84 -920 l 84 -920 q 84 -897 80 -880 l 80 -880 l 120 -880 q 124 -864 124 -840 l 124 -840 m 90 -720 l 140 -720 q 136 -737 136 -760 l 136 -760 q 136 -784 140 -800 l 140 -800 l 260 -800 q 264 -784 264 -760 l 264 -760 q 264 -737 260 -720 l 260 -720 l 310 -720 q 314 -704 314 -680 l 314 -680 q 314 -657 310 -640 l 310 -640 l 230 -640 q 226 -657 226 -680 l 226 -680 q 226 -704 230 -720 l 230 -720 l 170 -720 q 174 -704 174 -680 l 174 -680 q 174 -657 170 -640 l 170 -640 l 90 -640 q 86 -657 86 -680 l 86 -680 q 86 -704 90 -720 l 90 -720 m 320 -240 l 160 -240 q 164 -224 164 -200 l 164 -200 q 164 -177 160 -160 l 160 -160 q 164 -144 164 -120 l 164 -120 q 164 -97 160 -80 l 160 -80 l 320 -80 q 324 -64 324 -40 l 324 -40 q 324 -17 320 0 l 320 0 l 80 0 q 76 -17 76 -40 l 76 -40 q 76 -64 80 -80 l 80 -80 q 76 -97 76 -120 l 76 -120 q 76 -144 80 -160 l 80 -160 q 76 -177 76 -200 l 76 -200 q 76 -224 80 -240 l 80 -240 q 76 -257 76 -280 l 76 -280 q 76 -304 80 -320 l 80 -320 q 76 -337 76 -360 l 76 -360 q 76 -384 80 -400 l 80 -400 q 76 -417 76 -440 l 76 -440 q 76 -464 80 -480 l 80 -480 q 76 -497 76 -520 l 76 -520 q 76 -544 80 -560 l 80 -560 l 320 -560 q 324 -544 324 -520 l 324 -520 q 324 -497 320 -480 l 320 -480 l 160 -480 q 164 -464 164 -440 l 164 -440 q 164 -417 160 -400 l 160 -400 q 164 -384 164 -360 l 164 -360 q 164 -337 160 -320 l 160 -320 l 320 -320 q 324 -304 324 -280 l 324 -280 q 324 -257 320 -240 l 320 -240"},"Ể":{"ha":400,"x_min":76,"x_max":364,"o":"m 320 -240 l 160 -240 q 164 -224 164 -200 l 164 -200 q 164 -177 160 -160 l 160 -160 q 164 -144 164 -120 l 164 -120 q 164 -97 160 -80 l 160 -80 l 320 -80 q 324 -64 324 -40 l 324 -40 q 324 -17 320 0 l 320 0 l 80 0 q 76 -17 76 -40 l 76 -40 q 76 -64 80 -80 l 80 -80 q 76 -97 76 -120 l 76 -120 q 76 -144 80 -160 l 80 -160 q 76 -177 76 -200 l 76 -200 q 76 -224 80 -240 l 80 -240 q 76 -257 76 -280 l 76 -280 q 76 -304 80 -320 l 80 -320 q 76 -337 76 -360 l 76 -360 q 76 -384 80 -400 l 80 -400 q 76 -417 76 -440 l 76 -440 q 76 -464 80 -480 l 80 -480 q 76 -497 76 -520 l 76 -520 q 76 -544 80 -560 l 80 -560 l 320 -560 q 324 -544 324 -520 l 324 -520 q 324 -497 320 -480 l 320 -480 l 160 -480 q 164 -464 164 -440 l 164 -440 q 164 -417 160 -400 l 160 -400 q 164 -384 164 -360 l 164 -360 q 164 -337 160 -320 l 160 -320 l 320 -320 q 324 -304 324 -280 l 324 -280 q 324 -257 320 -240 l 320 -240 m 364 -920 q 364 -897 360 -880 l 360 -880 q 364 -864 364 -840 l 364 -840 q 364 -817 360 -800 l 360 -800 l 320 -800 q 316 -817 316 -840 l 316 -840 q 316 -864 320 -880 l 320 -880 l 280 -880 q 276 -897 276 -920 l 276 -920 q 276 -944 280 -960 l 280 -960 l 360 -960 q 364 -944 364 -920 l 364 -920 m 260 -720 l 310 -720 q 314 -704 314 -680 l 314 -680 q 314 -657 310 -640 l 310 -640 l 230 -640 q 226 -657 226 -680 l 226 -680 q 226 -704 230 -720 l 230 -720 l 170 -720 q 174 -704 174 -680 l 174 -680 q 174 -657 170 -640 l 170 -640 l 90 -640 q 86 -657 86 -680 l 86 -680 q 86 -704 90 -720 l 90 -720 l 140 -720 q 136 -737 136 -760 l 136 -760 q 136 -784 140 -800 l 140 -800 l 260 -800 q 264 -784 264 -760 l 264 -760 q 264 -737 260 -720 l 260 -720"},"Ễ":{"ha":400,"x_min":36,"x_max":364,"o":"m 320 -240 l 160 -240 q 164 -224 164 -200 l 164 -200 q 164 -177 160 -160 l 160 -160 q 164 -144 164 -120 l 164 -120 q 164 -97 160 -80 l 160 -80 l 320 -80 q 324 -64 324 -40 l 324 -40 q 324 -17 320 0 l 320 0 l 80 0 q 76 -17 76 -40 l 76 -40 q 76 -64 80 -80 l 80 -80 q 76 -97 76 -120 l 76 -120 q 76 -144 80 -160 l 80 -160 q 76 -177 76 -200 l 76 -200 q 76 -224 80 -240 l 80 -240 q 76 -257 76 -280 l 76 -280 q 76 -304 80 -320 l 80 -320 q 76 -337 76 -360 l 76 -360 q 76 -384 80 -400 l 80 -400 q 76 -417 76 -440 l 76 -440 q 76 -464 80 -480 l 80 -480 q 76 -497 76 -520 l 76 -520 q 76 -544 80 -560 l 80 -560 l 320 -560 q 324 -544 324 -520 l 324 -520 q 324 -497 320 -480 l 320 -480 l 160 -480 q 164 -464 164 -440 l 164 -440 q 164 -417 160 -400 l 160 -400 q 164 -384 164 -360 l 164 -360 q 164 -337 160 -320 l 160 -320 l 320 -320 q 324 -304 324 -280 l 324 -280 q 324 -257 320 -240 l 320 -240 m 310 -720 q 314 -704 314 -680 l 314 -680 q 314 -657 310 -640 l 310 -640 l 230 -640 q 226 -657 226 -680 l 226 -680 q 226 -704 230 -720 l 230 -720 l 170 -720 q 174 -704 174 -680 l 174 -680 q 174 -657 170 -640 l 170 -640 l 90 -640 q 86 -657 86 -680 l 86 -680 q 86 -704 90 -720 l 90 -720 l 140 -720 q 136 -737 136 -760 l 136 -760 q 136 -784 140 -800 l 140 -800 l 260 -800 q 264 -784 264 -760 l 264 -760 q 264 -737 260 -720 l 260 -720 l 310 -720 m 224 -1000 q 224 -977 220 -960 l 220 -960 l 300 -960 q 304 -944 304 -920 l 304 -920 q 304 -897 300 -880 l 300 -880 l 180 -880 q 176 -897 176 -920 l 176 -920 q 176 -944 180 -960 l 180 -960 l 100 -960 q 96 -977 96 -1000 l 96 -1000 q 96 -1024 100 -1040 l 100 -1040 l 220 -1040 q 224 -1024 224 -1000 l 224 -1000 m 364 -1000 q 364 -977 360 -960 l 360 -960 l 300 -960 q 296 -977 296 -1000 l 296 -1000 q 296 -1024 300 -1040 l 300 -1040 l 360 -1040 q 364 -1024 364 -1000 l 364 -1000 m 36 -920 q 36 -944 40 -960 l 40 -960 l 100 -960 q 104 -944 104 -920 l 104 -920 q 104 -897 100 -880 l 100 -880 l 40 -880 q 36 -897 36 -920 l 36 -920"},"Ȅ":{"ha":400,"x_min":76,"x_max":324,"o":"m 320 -240 l 160 -240 q 164 -224 164 -200 l 164 -200 q 164 -177 160 -160 l 160 -160 q 164 -144 164 -120 l 164 -120 q 164 -97 160 -80 l 160 -80 l 320 -80 q 324 -64 324 -40 l 324 -40 q 324 -17 320 0 l 320 0 l 80 0 q 76 -17 76 -40 l 76 -40 q 76 -64 80 -80 l 80 -80 q 76 -97 76 -120 l 76 -120 q 76 -144 80 -160 l 80 -160 q 76 -177 76 -200 l 76 -200 q 76 -224 80 -240 l 80 -240 q 76 -257 76 -280 l 76 -280 q 76 -304 80 -320 l 80 -320 q 76 -337 76 -360 l 76 -360 q 76 -384 80 -400 l 80 -400 q 76 -417 76 -440 l 76 -440 q 76 -464 80 -480 l 80 -480 q 76 -497 76 -520 l 76 -520 q 76 -544 80 -560 l 80 -560 l 320 -560 q 324 -544 324 -520 l 324 -520 q 324 -497 320 -480 l 320 -480 l 160 -480 q 164 -464 164 -440 l 164 -440 q 164 -417 160 -400 l 160 -400 q 164 -384 164 -360 l 164 -360 q 164 -337 160 -320 l 160 -320 l 320 -320 q 324 -304 324 -280 l 324 -280 q 324 -257 320 -240 l 320 -240 m 140 -720 l 170 -720 q 174 -704 174 -680 l 174 -680 q 174 -657 170 -640 l 170 -640 l 110 -640 q 106 -657 106 -680 l 106 -680 q 106 -704 110 -720 l 110 -720 l 80 -720 q 76 -737 76 -760 l 76 -760 q 76 -784 80 -800 l 80 -800 l 140 -800 q 144 -784 144 -760 l 144 -760 q 144 -737 140 -720 l 140 -720 m 290 -720 q 294 -704 294 -680 l 294 -680 q 294 -657 290 -640 l 290 -640 l 230 -640 q 226 -657 226 -680 l 226 -680 q 226 -704 230 -720 l 230 -720 l 200 -720 q 196 -737 196 -760 l 196 -760 q 196 -784 200 -800 l 200 -800 l 260 -800 q 264 -784 264 -760 l 264 -760 q 264 -737 260 -720 l 260 -720 l 290 -720"},"Ë":{"ha":400,"x_min":76,"x_max":324,"o":"m 160 -640 l 80 -640 q 76 -657 76 -680 l 76 -680 q 76 -704 80 -720 l 80 -720 l 160 -720 q 164 -704 164 -680 l 164 -680 q 164 -657 160 -640 l 160 -640 m 320 -640 l 240 -640 q 236 -657 236 -680 l 236 -680 q 236 -704 240 -720 l 240 -720 l 320 -720 q 324 -704 324 -680 l 324 -680 q 324 -657 320 -640 l 320 -640 m 320 -480 l 160 -480 q 164 -464 164 -440 l 164 -440 q 164 -417 160 -400 l 160 -400 q 164 -384 164 -360 l 164 -360 q 164 -337 160 -320 l 160 -320 l 320 -320 q 324 -304 324 -280 l 324 -280 q 324 -257 320 -240 l 320 -240 l 160 -240 q 164 -224 164 -200 l 164 -200 q 164 -177 160 -160 l 160 -160 q 164 -144 164 -120 l 164 -120 q 164 -97 160 -80 l 160 -80 l 320 -80 q 324 -64 324 -40 l 324 -40 q 324 -17 320 0 l 320 0 l 80 0 q 76 -17 76 -40 l 76 -40 q 76 -64 80 -80 l 80 -80 q 76 -97 76 -120 l 76 -120 q 76 -144 80 -160 l 80 -160 q 76 -177 76 -200 l 76 -200 q 76 -224 80 -240 l 80 -240 q 76 -257 76 -280 l 76 -280 q 76 -304 80 -320 l 80 -320 q 76 -337 76 -360 l 76 -360 q 76 -384 80 -400 l 80 -400 q 76 -417 76 -440 l 76 -440 q 76 -464 80 -480 l 80 -480 q 76 -497 76 -520 l 76 -520 q 76 -544 80 -560 l 80 -560 l 320 -560 q 324 -544 324 -520 l 324 -520 q 324 -497 320 -480 l 320 -480"},"Ė":{"ha":400,"x_min":76,"x_max":324,"o":"m 320 -240 l 160 -240 q 164 -224 164 -200 l 164 -200 q 164 -177 160 -160 l 160 -160 q 164 -144 164 -120 l 164 -120 q 164 -97 160 -80 l 160 -80 l 320 -80 q 324 -64 324 -40 l 324 -40 q 324 -17 320 0 l 320 0 l 80 0 q 76 -17 76 -40 l 76 -40 q 76 -64 80 -80 l 80 -80 q 76 -97 76 -120 l 76 -120 q 76 -144 80 -160 l 80 -160 q 76 -177 76 -200 l 76 -200 q 76 -224 80 -240 l 80 -240 q 76 -257 76 -280 l 76 -280 q 76 -304 80 -320 l 80 -320 q 76 -337 76 -360 l 76 -360 q 76 -384 80 -400 l 80 -400 q 76 -417 76 -440 l 76 -440 q 76 -464 80 -480 l 80 -480 q 76 -497 76 -520 l 76 -520 q 76 -544 80 -560 l 80 -560 l 320 -560 q 324 -544 324 -520 l 324 -520 q 324 -497 320 -480 l 320 -480 l 160 -480 q 164 -464 164 -440 l 164 -440 q 164 -417 160 -400 l 160 -400 q 164 -384 164 -360 l 164 -360 q 164 -337 160 -320 l 160 -320 l 320 -320 q 324 -304 324 -280 l 324 -280 q 324 -257 320 -240 l 320 -240 m 160 -720 l 240 -720 q 244 -704 244 -680 l 244 -680 q 244 -657 240 -640 l 240 -640 l 160 -640 q 156 -657 156 -680 l 156 -680 q 156 -704 160 -720 l 160 -720"},"Ẹ":{"ha":400,"x_min":76,"x_max":324,"o":"m 320 -240 l 160 -240 q 164 -224 164 -200 l 164 -200 q 164 -177 160 -160 l 160 -160 q 164 -144 164 -120 l 164 -120 q 164 -97 160 -80 l 160 -80 l 320 -80 q 324 -64 324 -40 l 324 -40 q 324 -17 320 0 l 320 0 l 80 0 q 76 -17 76 -40 l 76 -40 q 76 -64 80 -80 l 80 -80 q 76 -97 76 -120 l 76 -120 q 76 -144 80 -160 l 80 -160 q 76 -177 76 -200 l 76 -200 q 76 -224 80 -240 l 80 -240 q 76 -257 76 -280 l 76 -280 q 76 -304 80 -320 l 80 -320 q 76 -337 76 -360 l 76 -360 q 76 -384 80 -400 l 80 -400 q 76 -417 76 -440 l 76 -440 q 76 -464 80 -480 l 80 -480 q 76 -497 76 -520 l 76 -520 q 76 -544 80 -560 l 80 -560 l 320 -560 q 324 -544 324 -520 l 324 -520 q 324 -497 320 -480 l 320 -480 l 160 -480 q 164 -464 164 -440 l 164 -440 q 164 -417 160 -400 l 160 -400 q 164 -384 164 -360 l 164 -360 q 164 -337 160 -320 l 160 -320 l 320 -320 q 324 -304 324 -280 l 324 -280 q 324 -257 320 -240 l 320 -240 m 160 80 l 240 80 q 244 96 244 120 l 244 120 q 244 143 240 160 l 240 160 l 160 160 q 156 143 156 120 l 156 120 q 156 96 160 80 l 160 80"},"È":{"ha":400,"x_min":76,"x_max":324,"o":"m 160 -720 l 120 -720 q 116 -737 116 -760 l 116 -760 q 116 -784 120 -800 l 120 -800 l 200 -800 q 204 -784 204 -760 l 204 -760 q 204 -737 200 -720 l 200 -720 l 240 -720 q 244 -704 244 -680 l 244 -680 q 244 -657 240 -640 l 240 -640 l 160 -640 q 156 -657 156 -680 l 156 -680 q 156 -704 160 -720 l 160 -720 m 320 -240 l 160 -240 q 164 -224 164 -200 l 164 -200 q 164 -177 160 -160 l 160 -160 q 164 -144 164 -120 l 164 -120 q 164 -97 160 -80 l 160 -80 l 320 -80 q 324 -64 324 -40 l 324 -40 q 324 -17 320 0 l 320 0 l 80 0 q 76 -17 76 -40 l 76 -40 q 76 -64 80 -80 l 80 -80 q 76 -97 76 -120 l 76 -120 q 76 -144 80 -160 l 80 -160 q 76 -177 76 -200 l 76 -200 q 76 -224 80 -240 l 80 -240 q 76 -257 76 -280 l 76 -280 q 76 -304 80 -320 l 80 -320 q 76 -337 76 -360 l 76 -360 q 76 -384 80 -400 l 80 -400 q 76 -417 76 -440 l 76 -440 q 76 -464 80 -480 l 80 -480 q 76 -497 76 -520 l 76 -520 q 76 -544 80 -560 l 80 -560 l 320 -560 q 324 -544 324 -520 l 324 -520 q 324 -497 320 -480 l 320 -480 l 160 -480 q 164 -464 164 -440 l 164 -440 q 164 -417 160 -400 l 160 -400 q 164 -384 164 -360 l 164 -360 q 164 -337 160 -320 l 160 -320 l 320 -320 q 324 -304 324 -280 l 324 -280 q 324 -257 320 -240 l 320 -240"},"Ẻ":{"ha":400,"x_min":76,"x_max":324,"o":"m 320 -240 l 160 -240 q 164 -224 164 -200 l 164 -200 q 164 -177 160 -160 l 160 -160 q 164 -144 164 -120 l 164 -120 q 164 -97 160 -80 l 160 -80 l 320 -80 q 324 -64 324 -40 l 324 -40 q 324 -17 320 0 l 320 0 l 80 0 q 76 -17 76 -40 l 76 -40 q 76 -64 80 -80 l 80 -80 q 76 -97 76 -120 l 76 -120 q 76 -144 80 -160 l 80 -160 q 76 -177 76 -200 l 76 -200 q 76 -224 80 -240 l 80 -240 q 76 -257 76 -280 l 76 -280 q 76 -304 80 -320 l 80 -320 q 76 -337 76 -360 l 76 -360 q 76 -384 80 -400 l 80 -400 q 76 -417 76 -440 l 76 -440 q 76 -464 80 -480 l 80 -480 q 76 -497 76 -520 l 76 -520 q 76 -544 80 -560 l 80 -560 l 320 -560 q 324 -544 324 -520 l 324 -520 q 324 -497 320 -480 l 320 -480 l 160 -480 q 164 -464 164 -440 l 164 -440 q 164 -417 160 -400 l 160 -400 q 164 -384 164 -360 l 164 -360 q 164 -337 160 -320 l 160 -320 l 320 -320 q 324 -304 324 -280 l 324 -280 q 324 -257 320 -240 l 320 -240 m 244 -760 q 244 -737 240 -720 l 240 -720 q 244 -704 244 -680 l 244 -680 q 244 -657 240 -640 l 240 -640 l 200 -640 q 196 -657 196 -680 l 196 -680 q 196 -704 200 -720 l 200 -720 l 160 -720 q 156 -737 156 -760 l 156 -760 q 156 -784 160 -800 l 160 -800 l 240 -800 q 244 -784 244 -760 l 244 -760"},"Ȇ":{"ha":400,"x_min":36,"x_max":364,"o":"m 320 -240 l 160 -240 q 164 -224 164 -200 l 164 -200 q 164 -177 160 -160 l 160 -160 q 164 -144 164 -120 l 164 -120 q 164 -97 160 -80 l 160 -80 l 320 -80 q 324 -64 324 -40 l 324 -40 q 324 -17 320 0 l 320 0 l 80 0 q 76 -17 76 -40 l 76 -40 q 76 -64 80 -80 l 80 -80 q 76 -97 76 -120 l 76 -120 q 76 -144 80 -160 l 80 -160 q 76 -177 76 -200 l 76 -200 q 76 -224 80 -240 l 80 -240 q 76 -257 76 -280 l 76 -280 q 76 -304 80 -320 l 80 -320 q 76 -337 76 -360 l 76 -360 q 76 -384 80 -400 l 80 -400 q 76 -417 76 -440 l 76 -440 q 76 -464 80 -480 l 80 -480 q 76 -497 76 -520 l 76 -520 q 76 -544 80 -560 l 80 -560 l 320 -560 q 324 -544 324 -520 l 324 -520 q 324 -497 320 -480 l 320 -480 l 160 -480 q 164 -464 164 -440 l 164 -440 q 164 -417 160 -400 l 160 -400 q 164 -384 164 -360 l 164 -360 q 164 -337 160 -320 l 160 -320 l 320 -320 q 324 -304 324 -280 l 324 -280 q 324 -257 320 -240 l 320 -240 m 120 -800 l 280 -800 q 284 -784 284 -760 l 284 -760 q 284 -737 280 -720 l 280 -720 l 120 -720 q 116 -737 116 -760 l 116 -760 q 116 -784 120 -800 l 120 -800 m 40 -720 l 120 -720 q 124 -704 124 -680 l 124 -680 q 124 -657 120 -640 l 120 -640 l 40 -640 q 36 -657 36 -680 l 36 -680 q 36 -704 40 -720 l 40 -720 m 280 -720 l 360 -720 q 364 -704 364 -680 l 364 -680 q 364 -657 360 -640 l 360 -640 l 280 -640 q 276 -657 276 -680 l 276 -680 q 276 -704 280 -720 l 280 -720"},"Ē":{"ha":400,"x_min":76,"x_max":324,"o":"m 320 -240 l 160 -240 q 164 -224 164 -200 l 164 -200 q 164 -177 160 -160 l 160 -160 q 164 -144 164 -120 l 164 -120 q 164 -97 160 -80 l 160 -80 l 320 -80 q 324 -64 324 -40 l 324 -40 q 324 -17 320 0 l 320 0 l 80 0 q 76 -17 76 -40 l 76 -40 q 76 -64 80 -80 l 80 -80 q 76 -97 76 -120 l 76 -120 q 76 -144 80 -160 l 80 -160 q 76 -177 76 -200 l 76 -200 q 76 -224 80 -240 l 80 -240 q 76 -257 76 -280 l 76 -280 q 76 -304 80 -320 l 80 -320 q 76 -337 76 -360 l 76 -360 q 76 -384 80 -400 l 80 -400 q 76 -417 76 -440 l 76 -440 q 76 -464 80 -480 l 80 -480 q 76 -497 76 -520 l 76 -520 q 76 -544 80 -560 l 80 -560 l 320 -560 q 324 -544 324 -520 l 324 -520 q 324 -497 320 -480 l 320 -480 l 160 -480 q 164 -464 164 -440 l 164 -440 q 164 -417 160 -400 l 160 -400 q 164 -384 164 -360 l 164 -360 q 164 -337 160 -320 l 160 -320 l 320 -320 q 324 -304 324 -280 l 324 -280 q 324 -257 320 -240 l 320 -240 m 320 -720 q 324 -704 324 -680 l 324 -680 q 324 -657 320 -640 l 320 -640 l 80 -640 q 76 -657 76 -680 l 76 -680 q 76 -704 80 -720 l 80 -720 l 320 -720"},"Ę":{"ha":400,"x_min":76,"x_max":354,"o":"m 320 -240 l 160 -240 q 164 -224 164 -200 l 164 -200 q 164 -177 160 -160 l 160 -160 q 164 -144 164 -120 l 164 -120 q 164 -97 160 -80 l 160 -80 l 320 -80 q 324 -64 324 -40 l 324 -40 q 324 -17 320 0 l 320 0 l 80 0 q 76 -17 76 -40 l 76 -40 q 76 -64 80 -80 l 80 -80 q 76 -97 76 -120 l 76 -120 q 76 -144 80 -160 l 80 -160 q 76 -177 76 -200 l 76 -200 q 76 -224 80 -240 l 80 -240 q 76 -257 76 -280 l 76 -280 q 76 -304 80 -320 l 80 -320 q 76 -337 76 -360 l 76 -360 q 76 -384 80 -400 l 80 -400 q 76 -417 76 -440 l 76 -440 q 76 -464 80 -480 l 80 -480 q 76 -497 76 -520 l 76 -520 q 76 -544 80 -560 l 80 -560 l 320 -560 q 324 -544 324 -520 l 324 -520 q 324 -497 320 -480 l 320 -480 l 160 -480 q 164 -464 164 -440 l 164 -440 q 164 -417 160 -400 l 160 -400 q 164 -384 164 -360 l 164 -360 q 164 -337 160 -320 l 160 -320 l 320 -320 q 324 -304 324 -280 l 324 -280 q 324 -257 320 -240 l 320 -240 m 350 80 q 354 96 354 120 l 354 120 q 354 143 350 160 l 350 160 l 270 160 q 266 143 266 120 l 266 120 q 266 96 270 80 l 270 80 l 240 80 q 236 63 236 40 l 236 40 q 236 16 240 0 l 240 0 l 300 0 q 304 16 304 40 l 304 40 q 304 63 300 80 l 300 80 l 350 80"},"Ẽ":{"ha":400,"x_min":36,"x_max":364,"o":"m 320 -240 l 160 -240 q 164 -224 164 -200 l 164 -200 q 164 -177 160 -160 l 160 -160 q 164 -144 164 -120 l 164 -120 q 164 -97 160 -80 l 160 -80 l 320 -80 q 324 -64 324 -40 l 324 -40 q 324 -17 320 0 l 320 0 l 80 0 q 76 -17 76 -40 l 76 -40 q 76 -64 80 -80 l 80 -80 q 76 -97 76 -120 l 76 -120 q 76 -144 80 -160 l 80 -160 q 76 -177 76 -200 l 76 -200 q 76 -224 80 -240 l 80 -240 q 76 -257 76 -280 l 76 -280 q 76 -304 80 -320 l 80 -320 q 76 -337 76 -360 l 76 -360 q 76 -384 80 -400 l 80 -400 q 76 -417 76 -440 l 76 -440 q 76 -464 80 -480 l 80 -480 q 76 -497 76 -520 l 76 -520 q 76 -544 80 -560 l 80 -560 l 320 -560 q 324 -544 324 -520 l 324 -520 q 324 -497 320 -480 l 320 -480 l 160 -480 q 164 -464 164 -440 l 164 -440 q 164 -417 160 -400 l 160 -400 q 164 -384 164 -360 l 164 -360 q 164 -337 160 -320 l 160 -320 l 320 -320 q 324 -304 324 -280 l 324 -280 q 324 -257 320 -240 l 320 -240 m 224 -760 q 224 -737 220 -720 l 220 -720 l 300 -720 q 304 -704 304 -680 l 304 -680 q 304 -657 300 -640 l 300 -640 l 180 -640 q 176 -657 176 -680 l 176 -680 q 176 -704 180 -720 l 180 -720 l 100 -720 q 96 -737 96 -760 l 96 -760 q 96 -784 100 -800 l 100 -800 l 220 -800 q 224 -784 224 -760 l 224 -760 m 364 -760 q 364 -737 360 -720 l 360 -720 l 300 -720 q 296 -737 296 -760 l 296 -760 q 296 -784 300 -800 l 300 -800 l 360 -800 q 364 -784 364 -760 l 364 -760 m 36 -680 q 36 -704 40 -720 l 40 -720 l 100 -720 q 104 -704 104 -680 l 104 -680 q 104 -657 100 -640 l 100 -640 l 40 -640 q 36 -657 36 -680 l 36 -680"},"F":{"ha":400,"x_min":76,"x_max":324,"o":"m 320 -320 q 324 -304 324 -280 l 324 -280 q 324 -257 320 -240 l 320 -240 l 160 -240 q 164 -224 164 -200 l 164 -200 q 164 -177 160 -160 l 160 -160 q 164 -144 164 -120 l 164 -120 q 164 -97 160 -80 l 160 -80 q 164 -64 164 -40 l 164 -40 q 164 -17 160 0 l 160 0 l 80 0 q 76 -17 76 -40 l 76 -40 q 76 -64 80 -80 l 80 -80 q 76 -97 76 -120 l 76 -120 q 76 -144 80 -160 l 80 -160 q 76 -177 76 -200 l 76 -200 q 76 -224 80 -240 l 80 -240 q 76 -257 76 -280 l 76 -280 q 76 -304 80 -320 l 80 -320 q 76 -337 76 -360 l 76 -360 q 76 -384 80 -400 l 80 -400 q 76 -417 76 -440 l 76 -440 q 76 -464 80 -480 l 80 -480 q 76 -497 76 -520 l 76 -520 q 76 -544 80 -560 l 80 -560 l 320 -560 q 324 -544 324 -520 l 324 -520 q 324 -497 320 -480 l 320 -480 l 160 -480 q 164 -464 164 -440 l 164 -440 q 164 -417 160 -400 l 160 -400 q 164 -384 164 -360 l 164 -360 q 164 -337 160 -320 l 160 -320 l 320 -320"},"G":{"ha":400,"x_min":36,"x_max":364,"o":"m 360 -320 q 364 -304 364 -280 l 364 -280 q 364 -257 360 -240 l 360 -240 q 364 -224 364 -200 l 364 -200 q 364 -177 360 -160 l 360 -160 q 364 -144 364 -120 l 364 -120 q 364 -97 360 -80 l 360 -80 l 320 -80 q 324 -64 324 -40 l 324 -40 q 324 -17 320 0 l 320 0 l 120 0 q 116 -17 116 -40 l 116 -40 q 116 -64 120 -80 l 120 -80 l 80 -80 q 76 -97 76 -120 l 76 -120 q 76 -144 80 -160 l 80 -160 l 40 -160 q 36 -177 36 -200 l 36 -200 q 36 -224 40 -240 l 40 -240 q 36 -257 36 -280 l 36 -280 q 36 -304 40 -320 l 40 -320 q 36 -337 36 -360 l 36 -360 q 36 -384 40 -400 l 40 -400 l 80 -400 q 76 -417 76 -440 l 76 -440 q 76 -464 80 -480 l 80 -480 l 120 -480 q 116 -497 116 -520 l 116 -520 q 116 -544 120 -560 l 120 -560 l 320 -560 q 324 -544 324 -520 l 324 -520 q 324 -497 320 -480 l 320 -480 l 360 -480 q 364 -464 364 -440 l 364 -440 q 364 -417 360 -400 l 360 -400 l 280 -400 q 276 -417 276 -440 l 276 -440 q 276 -464 280 -480 l 280 -480 l 160 -480 q 164 -464 164 -440 l 164 -440 q 164 -417 160 -400 l 160 -400 l 120 -400 q 124 -384 124 -360 l 124 -360 q 124 -337 120 -320 l 120 -320 q 124 -304 124 -280 l 124 -280 q 124 -257 120 -240 l 120 -240 q 124 -224 124 -200 l 124 -200 q 124 -177 120 -160 l 120 -160 l 160 -160 q 164 -144 164 -120 l 164 -120 q 164 -97 160 -80 l 160 -80 l 280 -80 q 276 -97 276 -120 l 276 -120 q 276 -144 280 -160 l 280 -160 q 276 -177 276 -200 l 276 -200 q 276 -224 280 -240 l 280 -240 l 220 -240 q 216 -257 216 -280 l 216 -280 q 216 -304 220 -320 l 220 -320 l 360 -320"},"Ğ":{"ha":400,"x_min":36,"x_max":384,"o":"m 360 -320 q 364 -304 364 -280 l 364 -280 q 364 -257 360 -240 l 360 -240 q 364 -224 364 -200 l 364 -200 q 364 -177 360 -160 l 360 -160 q 364 -144 364 -120 l 364 -120 q 364 -97 360 -80 l 360 -80 l 320 -80 q 324 -64 324 -40 l 324 -40 q 324 -17 320 0 l 320 0 l 120 0 q 116 -17 116 -40 l 116 -40 q 116 -64 120 -80 l 120 -80 l 80 -80 q 76 -97 76 -120 l 76 -120 q 76 -144 80 -160 l 80 -160 l 40 -160 q 36 -177 36 -200 l 36 -200 q 36 -224 40 -240 l 40 -240 q 36 -257 36 -280 l 36 -280 q 36 -304 40 -320 l 40 -320 q 36 -337 36 -360 l 36 -360 q 36 -384 40 -400 l 40 -400 l 80 -400 q 76 -417 76 -440 l 76 -440 q 76 -464 80 -480 l 80 -480 l 120 -480 q 116 -497 116 -520 l 116 -520 q 116 -544 120 -560 l 120 -560 l 320 -560 q 324 -544 324 -520 l 324 -520 q 324 -497 320 -480 l 320 -480 l 360 -480 q 364 -464 364 -440 l 364 -440 q 364 -417 360 -400 l 360 -400 l 280 -400 q 276 -417 276 -440 l 276 -440 q 276 -464 280 -480 l 280 -480 l 160 -480 q 164 -464 164 -440 l 164 -440 q 164 -417 160 -400 l 160 -400 l 120 -400 q 124 -384 124 -360 l 124 -360 q 124 -337 120 -320 l 120 -320 q 124 -304 124 -280 l 124 -280 q 124 -257 120 -240 l 120 -240 q 124 -224 124 -200 l 124 -200 q 124 -177 120 -160 l 120 -160 l 160 -160 q 164 -144 164 -120 l 164 -120 q 164 -97 160 -80 l 160 -80 l 280 -80 q 276 -97 276 -120 l 276 -120 q 276 -144 280 -160 l 280 -160 q 276 -177 276 -200 l 276 -200 q 276 -224 280 -240 l 280 -240 l 220 -240 q 216 -257 216 -280 l 216 -280 q 216 -304 220 -320 l 220 -320 l 360 -320 m 60 -800 l 140 -800 q 144 -784 144 -760 l 144 -760 q 144 -737 140 -720 l 140 -720 l 60 -720 q 56 -737 56 -760 l 56 -760 q 56 -784 60 -800 l 60 -800 m 300 -800 l 380 -800 q 384 -784 384 -760 l 384 -760 q 384 -737 380 -720 l 380 -720 l 300 -720 q 296 -737 296 -760 l 296 -760 q 296 -784 300 -800 l 300 -800 m 140 -720 l 300 -720 q 304 -704 304 -680 l 304 -680 q 304 -657 300 -640 l 300 -640 l 140 -640 q 136 -657 136 -680 l 136 -680 q 136 -704 140 -720 l 140 -720"},"Ǧ":{"ha":400,"x_min":36,"x_max":364,"o":"m 360 -320 q 364 -304 364 -280 l 364 -280 q 364 -257 360 -240 l 360 -240 q 364 -224 364 -200 l 364 -200 q 364 -177 360 -160 l 360 -160 q 364 -144 364 -120 l 364 -120 q 364 -97 360 -80 l 360 -80 l 320 -80 q 324 -64 324 -40 l 324 -40 q 324 -17 320 0 l 320 0 l 120 0 q 116 -17 116 -40 l 116 -40 q 116 -64 120 -80 l 120 -80 l 80 -80 q 76 -97 76 -120 l 76 -120 q 76 -144 80 -160 l 80 -160 l 40 -160 q 36 -177 36 -200 l 36 -200 q 36 -224 40 -240 l 40 -240 q 36 -257 36 -280 l 36 -280 q 36 -304 40 -320 l 40 -320 q 36 -337 36 -360 l 36 -360 q 36 -384 40 -400 l 40 -400 l 80 -400 q 76 -417 76 -440 l 76 -440 q 76 -464 80 -480 l 80 -480 l 120 -480 q 116 -497 116 -520 l 116 -520 q 116 -544 120 -560 l 120 -560 l 320 -560 q 324 -544 324 -520 l 324 -520 q 324 -497 320 -480 l 320 -480 l 360 -480 q 364 -464 364 -440 l 364 -440 q 364 -417 360 -400 l 360 -400 l 280 -400 q 276 -417 276 -440 l 276 -440 q 276 -464 280 -480 l 280 -480 l 160 -480 q 164 -464 164 -440 l 164 -440 q 164 -417 160 -400 l 160 -400 l 120 -400 q 124 -384 124 -360 l 124 -360 q 124 -337 120 -320 l 120 -320 q 124 -304 124 -280 l 124 -280 q 124 -257 120 -240 l 120 -240 q 124 -224 124 -200 l 124 -200 q 124 -177 120 -160 l 120 -160 l 160 -160 q 164 -144 164 -120 l 164 -120 q 164 -97 160 -80 l 160 -80 l 280 -80 q 276 -97 276 -120 l 276 -120 q 276 -144 280 -160 l 280 -160 q 276 -177 276 -200 l 276 -200 q 276 -224 280 -240 l 280 -240 l 220 -240 q 216 -257 216 -280 l 216 -280 q 216 -304 220 -320 l 220 -320 l 360 -320 m 334 -760 q 334 -737 330 -720 l 330 -720 l 280 -720 q 284 -704 284 -680 l 284 -680 q 284 -657 280 -640 l 280 -640 l 160 -640 q 156 -657 156 -680 l 156 -680 q 156 -704 160 -720 l 160 -720 l 110 -720 q 106 -737 106 -760 l 106 -760 q 106 -784 110 -800 l 110 -800 l 190 -800 q 194 -784 194 -760 l 194 -760 q 194 -737 190 -720 l 190 -720 l 250 -720 q 246 -737 246 -760 l 246 -760 q 246 -784 250 -800 l 250 -800 l 330 -800 q 334 -784 334 -760 l 334 -760"},"Ĝ":{"ha":400,"x_min":36,"x_max":364,"o":"m 360 -320 q 364 -304 364 -280 l 364 -280 q 364 -257 360 -240 l 360 -240 q 364 -224 364 -200 l 364 -200 q 364 -177 360 -160 l 360 -160 q 364 -144 364 -120 l 364 -120 q 364 -97 360 -80 l 360 -80 l 320 -80 q 324 -64 324 -40 l 324 -40 q 324 -17 320 0 l 320 0 l 120 0 q 116 -17 116 -40 l 116 -40 q 116 -64 120 -80 l 120 -80 l 80 -80 q 76 -97 76 -120 l 76 -120 q 76 -144 80 -160 l 80 -160 l 40 -160 q 36 -177 36 -200 l 36 -200 q 36 -224 40 -240 l 40 -240 q 36 -257 36 -280 l 36 -280 q 36 -304 40 -320 l 40 -320 q 36 -337 36 -360 l 36 -360 q 36 -384 40 -400 l 40 -400 l 80 -400 q 76 -417 76 -440 l 76 -440 q 76 -464 80 -480 l 80 -480 l 120 -480 q 116 -497 116 -520 l 116 -520 q 116 -544 120 -560 l 120 -560 l 320 -560 q 324 -544 324 -520 l 324 -520 q 324 -497 320 -480 l 320 -480 l 360 -480 q 364 -464 364 -440 l 364 -440 q 364 -417 360 -400 l 360 -400 l 280 -400 q 276 -417 276 -440 l 276 -440 q 276 -464 280 -480 l 280 -480 l 160 -480 q 164 -464 164 -440 l 164 -440 q 164 -417 160 -400 l 160 -400 l 120 -400 q 124 -384 124 -360 l 124 -360 q 124 -337 120 -320 l 120 -320 q 124 -304 124 -280 l 124 -280 q 124 -257 120 -240 l 120 -240 q 124 -224 124 -200 l 124 -200 q 124 -177 120 -160 l 120 -160 l 160 -160 q 164 -144 164 -120 l 164 -120 q 164 -97 160 -80 l 160 -80 l 280 -80 q 276 -97 276 -120 l 276 -120 q 276 -144 280 -160 l 280 -160 q 276 -177 276 -200 l 276 -200 q 276 -224 280 -240 l 280 -240 l 220 -240 q 216 -257 216 -280 l 216 -280 q 216 -304 220 -320 l 220 -320 l 360 -320 m 330 -720 q 334 -704 334 -680 l 334 -680 q 334 -657 330 -640 l 330 -640 l 250 -640 q 246 -657 246 -680 l 246 -680 q 246 -704 250 -720 l 250 -720 l 190 -720 q 194 -704 194 -680 l 194 -680 q 194 -657 190 -640 l 190 -640 l 110 -640 q 106 -657 106 -680 l 106 -680 q 106 -704 110 -720 l 110 -720 l 160 -720 q 156 -737 156 -760 l 156 -760 q 156 -784 160 -800 l 160 -800 l 280 -800 q 284 -784 284 -760 l 284 -760 q 284 -737 280 -720 l 280 -720 l 330 -720"},"Ģ":{"ha":400,"x_min":36,"x_max":364,"o":"m 360 -320 q 364 -304 364 -280 l 364 -280 q 364 -257 360 -240 l 360 -240 q 364 -224 364 -200 l 364 -200 q 364 -177 360 -160 l 360 -160 q 364 -144 364 -120 l 364 -120 q 364 -97 360 -80 l 360 -80 l 320 -80 q 324 -64 324 -40 l 324 -40 q 324 -17 320 0 l 320 0 l 120 0 q 116 -17 116 -40 l 116 -40 q 116 -64 120 -80 l 120 -80 l 80 -80 q 76 -97 76 -120 l 76 -120 q 76 -144 80 -160 l 80 -160 l 40 -160 q 36 -177 36 -200 l 36 -200 q 36 -224 40 -240 l 40 -240 q 36 -257 36 -280 l 36 -280 q 36 -304 40 -320 l 40 -320 q 36 -337 36 -360 l 36 -360 q 36 -384 40 -400 l 40 -400 l 80 -400 q 76 -417 76 -440 l 76 -440 q 76 -464 80 -480 l 80 -480 l 120 -480 q 116 -497 116 -520 l 116 -520 q 116 -544 120 -560 l 120 -560 l 320 -560 q 324 -544 324 -520 l 324 -520 q 324 -497 320 -480 l 320 -480 l 360 -480 q 364 -464 364 -440 l 364 -440 q 364 -417 360 -400 l 360 -400 l 280 -400 q 276 -417 276 -440 l 276 -440 q 276 -464 280 -480 l 280 -480 l 160 -480 q 164 -464 164 -440 l 164 -440 q 164 -417 160 -400 l 160 -400 l 120 -400 q 124 -384 124 -360 l 124 -360 q 124 -337 120 -320 l 120 -320 q 124 -304 124 -280 l 124 -280 q 124 -257 120 -240 l 120 -240 q 124 -224 124 -200 l 124 -200 q 124 -177 120 -160 l 120 -160 l 160 -160 q 164 -144 164 -120 l 164 -120 q 164 -97 160 -80 l 160 -80 l 280 -80 q 276 -97 276 -120 l 276 -120 q 276 -144 280 -160 l 280 -160 q 276 -177 276 -200 l 276 -200 q 276 -224 280 -240 l 280 -240 l 220 -240 q 216 -257 216 -280 l 216 -280 q 216 -304 220 -320 l 220 -320 l 360 -320 m 264 120 q 264 143 260 160 l 260 160 q 264 176 264 200 l 264 200 q 264 223 260 240 l 260 240 l 220 240 q 216 223 216 200 l 216 200 q 216 176 220 160 l 220 160 l 180 160 q 176 143 176 120 l 176 120 q 176 96 180 80 l 180 80 l 260 80 q 264 96 264 120 l 264 120"},"Ġ":{"ha":400,"x_min":36,"x_max":364,"o":"m 360 -320 q 364 -304 364 -280 l 364 -280 q 364 -257 360 -240 l 360 -240 q 364 -224 364 -200 l 364 -200 q 364 -177 360 -160 l 360 -160 q 364 -144 364 -120 l 364 -120 q 364 -97 360 -80 l 360 -80 l 320 -80 q 324 -64 324 -40 l 324 -40 q 324 -17 320 0 l 320 0 l 120 0 q 116 -17 116 -40 l 116 -40 q 116 -64 120 -80 l 120 -80 l 80 -80 q 76 -97 76 -120 l 76 -120 q 76 -144 80 -160 l 80 -160 l 40 -160 q 36 -177 36 -200 l 36 -200 q 36 -224 40 -240 l 40 -240 q 36 -257 36 -280 l 36 -280 q 36 -304 40 -320 l 40 -320 q 36 -337 36 -360 l 36 -360 q 36 -384 40 -400 l 40 -400 l 80 -400 q 76 -417 76 -440 l 76 -440 q 76 -464 80 -480 l 80 -480 l 120 -480 q 116 -497 116 -520 l 116 -520 q 116 -544 120 -560 l 120 -560 l 320 -560 q 324 -544 324 -520 l 324 -520 q 324 -497 320 -480 l 320 -480 l 360 -480 q 364 -464 364 -440 l 364 -440 q 364 -417 360 -400 l 360 -400 l 280 -400 q 276 -417 276 -440 l 276 -440 q 276 -464 280 -480 l 280 -480 l 160 -480 q 164 -464 164 -440 l 164 -440 q 164 -417 160 -400 l 160 -400 l 120 -400 q 124 -384 124 -360 l 124 -360 q 124 -337 120 -320 l 120 -320 q 124 -304 124 -280 l 124 -280 q 124 -257 120 -240 l 120 -240 q 124 -224 124 -200 l 124 -200 q 124 -177 120 -160 l 120 -160 l 160 -160 q 164 -144 164 -120 l 164 -120 q 164 -97 160 -80 l 160 -80 l 280 -80 q 276 -97 276 -120 l 276 -120 q 276 -144 280 -160 l 280 -160 q 276 -177 276 -200 l 276 -200 q 276 -224 280 -240 l 280 -240 l 220 -240 q 216 -257 216 -280 l 216 -280 q 216 -304 220 -320 l 220 -320 l 360 -320 m 180 -720 l 260 -720 q 264 -704 264 -680 l 264 -680 q 264 -657 260 -640 l 260 -640 l 180 -640 q 176 -657 176 -680 l 176 -680 q 176 -704 180 -720 l 180 -720"},"H":{"ha":400,"x_min":36,"x_max":364,"o":"m 360 -480 q 364 -464 364 -440 l 364 -440 q 364 -417 360 -400 l 360 -400 q 364 -384 364 -360 l 364 -360 q 364 -337 360 -320 l 360 -320 q 364 -304 364 -280 l 364 -280 q 364 -257 360 -240 l 360 -240 q 364 -224 364 -200 l 364 -200 q 364 -177 360 -160 l 360 -160 q 364 -144 364 -120 l 364 -120 q 364 -97 360 -80 l 360 -80 q 364 -64 364 -40 l 364 -40 q 364 -17 360 0 l 360 0 l 280 0 q 276 -17 276 -40 l 276 -40 q 276 -64 280 -80 l 280 -80 q 276 -97 276 -120 l 276 -120 q 276 -144 280 -160 l 280 -160 q 276 -177 276 -200 l 276 -200 q 276 -224 280 -240 l 280 -240 l 120 -240 q 124 -224 124 -200 l 124 -200 q 124 -177 120 -160 l 120 -160 q 124 -144 124 -120 l 124 -120 q 124 -97 120 -80 l 120 -80 q 124 -64 124 -40 l 124 -40 q 124 -17 120 0 l 120 0 l 40 0 q 36 -17 36 -40 l 36 -40 q 36 -64 40 -80 l 40 -80 q 36 -97 36 -120 l 36 -120 q 36 -144 40 -160 l 40 -160 q 36 -177 36 -200 l 36 -200 q 36 -224 40 -240 l 40 -240 q 36 -257 36 -280 l 36 -280 q 36 -304 40 -320 l 40 -320 q 36 -337 36 -360 l 36 -360 q 36 -384 40 -400 l 40 -400 q 36 -417 36 -440 l 36 -440 q 36 -464 40 -480 l 40 -480 q 36 -497 36 -520 l 36 -520 q 36 -544 40 -560 l 40 -560 l 120 -560 q 124 -544 124 -520 l 124 -520 q 124 -497 120 -480 l 120 -480 q 124 -464 124 -440 l 124 -440 q 124 -417 120 -400 l 120 -400 q 124 -384 124 -360 l 124 -360 q 124 -337 120 -320 l 120 -320 l 280 -320 q 276 -337 276 -360 l 276 -360 q 276 -384 280 -400 l 280 -400 q 276 -417 276 -440 l 276 -440 q 276 -464 280 -480 l 280 -480 q 276 -497 276 -520 l 276 -520 q 276 -544 280 -560 l 280 -560 l 360 -560 q 364 -544 364 -520 l 364 -520 q 364 -497 360 -480 l 360 -480"},"Ħ":{"ha":400,"x_min":36,"x_max":364,"o":"m 364 -440 q 364 -417 360 -400 l 360 -400 l 320 -400 q 324 -384 324 -360 l 324 -360 q 324 -337 320 -320 l 320 -320 q 324 -304 324 -280 l 324 -280 q 324 -257 320 -240 l 320 -240 q 324 -224 324 -200 l 324 -200 q 324 -177 320 -160 l 320 -160 q 324 -144 324 -120 l 324 -120 q 324 -97 320 -80 l 320 -80 q 324 -64 324 -40 l 324 -40 q 324 -17 320 0 l 320 0 l 240 0 q 236 -17 236 -40 l 236 -40 q 236 -64 240 -80 l 240 -80 q 236 -97 236 -120 l 236 -120 q 236 -144 240 -160 l 240 -160 q 236 -177 236 -200 l 236 -200 q 236 -224 240 -240 l 240 -240 l 160 -240 q 164 -224 164 -200 l 164 -200 q 164 -177 160 -160 l 160 -160 q 164 -144 164 -120 l 164 -120 q 164 -97 160 -80 l 160 -80 q 164 -64 164 -40 l 164 -40 q 164 -17 160 0 l 160 0 l 80 0 q 76 -17 76 -40 l 76 -40 q 76 -64 80 -80 l 80 -80 q 76 -97 76 -120 l 76 -120 q 76 -144 80 -160 l 80 -160 q 76 -177 76 -200 l 76 -200 q 76 -224 80 -240 l 80 -240 q 76 -257 76 -280 l 76 -280 q 76 -304 80 -320 l 80 -320 q 76 -337 76 -360 l 76 -360 q 76 -384 80 -400 l 80 -400 l 40 -400 q 36 -417 36 -440 l 36 -440 q 36 -464 40 -480 l 40 -480 l 80 -480 q 76 -497 76 -520 l 76 -520 q 76 -544 80 -560 l 80 -560 l 160 -560 q 164 -544 164 -520 l 164 -520 q 164 -497 160 -480 l 160 -480 l 240 -480 q 236 -497 236 -520 l 236 -520 q 236 -544 240 -560 l 240 -560 l 320 -560 q 324 -544 324 -520 l 324 -520 q 324 -497 320 -480 l 320 -480 l 360 -480 q 364 -464 364 -440 l 364 -440 m 240 -320 q 236 -337 236 -360 l 236 -360 q 236 -384 240 -400 l 240 -400 l 160 -400 q 164 -384 164 -360 l 164 -360 q 164 -337 160 -320 l 160 -320 l 240 -320"},"Ĥ":{"ha":400,"x_min":36,"x_max":364,"o":"m 360 -480 q 364 -464 364 -440 l 364 -440 q 364 -417 360 -400 l 360 -400 q 364 -384 364 -360 l 364 -360 q 364 -337 360 -320 l 360 -320 q 364 -304 364 -280 l 364 -280 q 364 -257 360 -240 l 360 -240 q 364 -224 364 -200 l 364 -200 q 364 -177 360 -160 l 360 -160 q 364 -144 364 -120 l 364 -120 q 364 -97 360 -80 l 360 -80 q 364 -64 364 -40 l 364 -40 q 364 -17 360 0 l 360 0 l 280 0 q 276 -17 276 -40 l 276 -40 q 276 -64 280 -80 l 280 -80 q 276 -97 276 -120 l 276 -120 q 276 -144 280 -160 l 280 -160 q 276 -177 276 -200 l 276 -200 q 276 -224 280 -240 l 280 -240 l 120 -240 q 124 -224 124 -200 l 124 -200 q 124 -177 120 -160 l 120 -160 q 124 -144 124 -120 l 124 -120 q 124 -97 120 -80 l 120 -80 q 124 -64 124 -40 l 124 -40 q 124 -17 120 0 l 120 0 l 40 0 q 36 -17 36 -40 l 36 -40 q 36 -64 40 -80 l 40 -80 q 36 -97 36 -120 l 36 -120 q 36 -144 40 -160 l 40 -160 q 36 -177 36 -200 l 36 -200 q 36 -224 40 -240 l 40 -240 q 36 -257 36 -280 l 36 -280 q 36 -304 40 -320 l 40 -320 q 36 -337 36 -360 l 36 -360 q 36 -384 40 -400 l 40 -400 q 36 -417 36 -440 l 36 -440 q 36 -464 40 -480 l 40 -480 q 36 -497 36 -520 l 36 -520 q 36 -544 40 -560 l 40 -560 l 120 -560 q 124 -544 124 -520 l 124 -520 q 124 -497 120 -480 l 120 -480 q 124 -464 124 -440 l 124 -440 q 124 -417 120 -400 l 120 -400 q 124 -384 124 -360 l 124 -360 q 124 -337 120 -320 l 120 -320 l 280 -320 q 276 -337 276 -360 l 276 -360 q 276 -384 280 -400 l 280 -400 q 276 -417 276 -440 l 276 -440 q 276 -464 280 -480 l 280 -480 q 276 -497 276 -520 l 276 -520 q 276 -544 280 -560 l 280 -560 l 360 -560 q 364 -544 364 -520 l 364 -520 q 364 -497 360 -480 l 360 -480 m 310 -720 q 314 -704 314 -680 l 314 -680 q 314 -657 310 -640 l 310 -640 l 230 -640 q 226 -657 226 -680 l 226 -680 q 226 -704 230 -720 l 230 -720 l 170 -720 q 174 -704 174 -680 l 174 -680 q 174 -657 170 -640 l 170 -640 l 90 -640 q 86 -657 86 -680 l 86 -680 q 86 -704 90 -720 l 90 -720 l 140 -720 q 136 -737 136 -760 l 136 -760 q 136 -784 140 -800 l 140 -800 l 260 -800 q 264 -784 264 -760 l 264 -760 q 264 -737 260 -720 l 260 -720 l 310 -720"},"I":{"ha":400,"x_min":96,"x_max":304,"o":"m 240 -80 l 300 -80 q 304 -64 304 -40 l 304 -40 q 304 -17 300 0 l 300 0 l 100 0 q 96 -17 96 -40 l 96 -40 q 96 -64 100 -80 l 100 -80 l 160 -80 q 156 -97 156 -120 l 156 -120 q 156 -144 160 -160 l 160 -160 q 156 -177 156 -200 l 156 -200 q 156 -224 160 -240 l 160 -240 q 156 -257 156 -280 l 156 -280 q 156 -304 160 -320 l 160 -320 q 156 -337 156 -360 l 156 -360 q 156 -384 160 -400 l 160 -400 q 156 -417 156 -440 l 156 -440 q 156 -464 160 -480 l 160 -480 l 100 -480 q 96 -497 96 -520 l 96 -520 q 96 -544 100 -560 l 100 -560 l 300 -560 q 304 -544 304 -520 l 304 -520 q 304 -497 300 -480 l 300 -480 l 240 -480 q 244 -464 244 -440 l 244 -440 q 244 -417 240 -400 l 240 -400 q 244 -384 244 -360 l 244 -360 q 244 -337 240 -320 l 240 -320 q 244 -304 244 -280 l 244 -280 q 244 -257 240 -240 l 240 -240 q 244 -224 244 -200 l 244 -200 q 244 -177 240 -160 l 240 -160 q 244 -144 244 -120 l 244 -120 q 244 -97 240 -80 l 240 -80"},"Ĳ":{"ha":400,"x_min":36,"x_max":364,"o":"m 120 -560 q 124 -544 124 -520 l 124 -520 q 124 -497 120 -480 l 120 -480 q 124 -464 124 -440 l 124 -440 q 124 -417 120 -400 l 120 -400 q 124 -384 124 -360 l 124 -360 q 124 -337 120 -320 l 120 -320 q 124 -304 124 -280 l 124 -280 q 124 -257 120 -240 l 120 -240 q 124 -224 124 -200 l 124 -200 q 124 -177 120 -160 l 120 -160 q 124 -144 124 -120 l 124 -120 q 124 -97 120 -80 l 120 -80 q 124 -64 124 -40 l 124 -40 q 124 -17 120 0 l 120 0 l 40 0 q 36 -17 36 -40 l 36 -40 q 36 -64 40 -80 l 40 -80 q 36 -97 36 -120 l 36 -120 q 36 -144 40 -160 l 40 -160 q 36 -177 36 -200 l 36 -200 q 36 -224 40 -240 l 40 -240 q 36 -257 36 -280 l 36 -280 q 36 -304 40 -320 l 40 -320 q 36 -337 36 -360 l 36 -360 q 36 -384 40 -400 l 40 -400 q 36 -417 36 -440 l 36 -440 q 36 -464 40 -480 l 40 -480 q 36 -497 36 -520 l 36 -520 q 36 -544 40 -560 l 40 -560 l 120 -560 m 360 -480 q 364 -464 364 -440 l 364 -440 q 364 -417 360 -400 l 360 -400 q 364 -384 364 -360 l 364 -360 q 364 -337 360 -320 l 360 -320 q 364 -304 364 -280 l 364 -280 q 364 -257 360 -240 l 360 -240 q 364 -224 364 -200 l 364 -200 q 364 -177 360 -160 l 360 -160 q 364 -144 364 -120 l 364 -120 q 364 -97 360 -80 l 360 -80 l 320 -80 q 324 -64 324 -40 l 324 -40 q 324 -17 320 0 l 320 0 l 180 0 q 176 -17 176 -40 l 176 -40 q 176 -64 180 -80 l 180 -80 l 280 -80 q 276 -97 276 -120 l 276 -120 q 276 -144 280 -160 l 280 -160 q 276 -177 276 -200 l 276 -200 q 276 -224 280 -240 l 280 -240 q 276 -257 276 -280 l 276 -280 q 276 -304 280 -320 l 280 -320 q 276 -337 276 -360 l 276 -360 q 276 -384 280 -400 l 280 -400 q 276 -417 276 -440 l 276 -440 q 276 -464 280 -480 l 280 -480 q 276 -497 276 -520 l 276 -520 q 276 -544 280 -560 l 280 -560 l 360 -560 q 364 -544 364 -520 l 364 -520 q 364 -497 360 -480 l 360 -480"},"Í":{"ha":400,"x_min":96,"x_max":304,"o":"m 240 -640 l 160 -640 q 156 -657 156 -680 l 156 -680 q 156 -704 160 -720 l 160 -720 l 200 -720 q 196 -737 196 -760 l 196 -760 q 196 -784 200 -800 l 200 -800 l 280 -800 q 284 -784 284 -760 l 284 -760 q 284 -737 280 -720 l 280 -720 l 240 -720 q 244 -704 244 -680 l 244 -680 q 244 -657 240 -640 l 240 -640 m 240 -80 l 300 -80 q 304 -64 304 -40 l 304 -40 q 304 -17 300 0 l 300 0 l 100 0 q 96 -17 96 -40 l 96 -40 q 96 -64 100 -80 l 100 -80 l 160 -80 q 156 -97 156 -120 l 156 -120 q 156 -144 160 -160 l 160 -160 q 156 -177 156 -200 l 156 -200 q 156 -224 160 -240 l 160 -240 q 156 -257 156 -280 l 156 -280 q 156 -304 160 -320 l 160 -320 q 156 -337 156 -360 l 156 -360 q 156 -384 160 -400 l 160 -400 q 156 -417 156 -440 l 156 -440 q 156 -464 160 -480 l 160 -480 l 100 -480 q 96 -497 96 -520 l 96 -520 q 96 -544 100 -560 l 100 -560 l 300 -560 q 304 -544 304 -520 l 304 -520 q 304 -497 300 -480 l 300 -480 l 240 -480 q 244 -464 244 -440 l 244 -440 q 244 -417 240 -400 l 240 -400 q 244 -384 244 -360 l 244 -360 q 244 -337 240 -320 l 240 -320 q 244 -304 244 -280 l 244 -280 q 244 -257 240 -240 l 240 -240 q 244 -224 244 -200 l 244 -200 q 244 -177 240 -160 l 240 -160 q 244 -144 244 -120 l 244 -120 q 244 -97 240 -80 l 240 -80"},"Ĭ":{"ha":400,"x_min":36,"x_max":364,"o":"m 240 -80 l 300 -80 q 304 -64 304 -40 l 304 -40 q 304 -17 300 0 l 300 0 l 100 0 q 96 -17 96 -40 l 96 -40 q 96 -64 100 -80 l 100 -80 l 160 -80 q 156 -97 156 -120 l 156 -120 q 156 -144 160 -160 l 160 -160 q 156 -177 156 -200 l 156 -200 q 156 -224 160 -240 l 160 -240 q 156 -257 156 -280 l 156 -280 q 156 -304 160 -320 l 160 -320 q 156 -337 156 -360 l 156 -360 q 156 -384 160 -400 l 160 -400 q 156 -417 156 -440 l 156 -440 q 156 -464 160 -480 l 160 -480 l 100 -480 q 96 -497 96 -520 l 96 -520 q 96 -544 100 -560 l 100 -560 l 300 -560 q 304 -544 304 -520 l 304 -520 q 304 -497 300 -480 l 300 -480 l 240 -480 q 244 -464 244 -440 l 244 -440 q 244 -417 240 -400 l 240 -400 q 244 -384 244 -360 l 244 -360 q 244 -337 240 -320 l 240 -320 q 244 -304 244 -280 l 244 -280 q 244 -257 240 -240 l 240 -240 q 244 -224 244 -200 l 244 -200 q 244 -177 240 -160 l 240 -160 q 244 -144 244 -120 l 244 -120 q 244 -97 240 -80 l 240 -80 m 40 -800 l 120 -800 q 124 -784 124 -760 l 124 -760 q 124 -737 120 -720 l 120 -720 l 40 -720 q 36 -737 36 -760 l 36 -760 q 36 -784 40 -800 l 40 -800 m 280 -800 l 360 -800 q 364 -784 364 -760 l 364 -760 q 364 -737 360 -720 l 360 -720 l 280 -720 q 276 -737 276 -760 l 276 -760 q 276 -784 280 -800 l 280 -800 m 120 -720 l 280 -720 q 284 -704 284 -680 l 284 -680 q 284 -657 280 -640 l 280 -640 l 120 -640 q 116 -657 116 -680 l 116 -680 q 116 -704 120 -720 l 120 -720"},"Î":{"ha":400,"x_min":86,"x_max":314,"o":"m 240 -80 l 300 -80 q 304 -64 304 -40 l 304 -40 q 304 -17 300 0 l 300 0 l 100 0 q 96 -17 96 -40 l 96 -40 q 96 -64 100 -80 l 100 -80 l 160 -80 q 156 -97 156 -120 l 156 -120 q 156 -144 160 -160 l 160 -160 q 156 -177 156 -200 l 156 -200 q 156 -224 160 -240 l 160 -240 q 156 -257 156 -280 l 156 -280 q 156 -304 160 -320 l 160 -320 q 156 -337 156 -360 l 156 -360 q 156 -384 160 -400 l 160 -400 q 156 -417 156 -440 l 156 -440 q 156 -464 160 -480 l 160 -480 l 100 -480 q 96 -497 96 -520 l 96 -520 q 96 -544 100 -560 l 100 -560 l 300 -560 q 304 -544 304 -520 l 304 -520 q 304 -497 300 -480 l 300 -480 l 240 -480 q 244 -464 244 -440 l 244 -440 q 244 -417 240 -400 l 240 -400 q 244 -384 244 -360 l 244 -360 q 244 -337 240 -320 l 240 -320 q 244 -304 244 -280 l 244 -280 q 244 -257 240 -240 l 240 -240 q 244 -224 244 -200 l 244 -200 q 244 -177 240 -160 l 240 -160 q 244 -144 244 -120 l 244 -120 q 244 -97 240 -80 l 240 -80 m 310 -720 q 314 -704 314 -680 l 314 -680 q 314 -657 310 -640 l 310 -640 l 230 -640 q 226 -657 226 -680 l 226 -680 q 226 -704 230 -720 l 230 -720 l 170 -720 q 174 -704 174 -680 l 174 -680 q 174 -657 170 -640 l 170 -640 l 90 -640 q 86 -657 86 -680 l 86 -680 q 86 -704 90 -720 l 90 -720 l 140 -720 q 136 -737 136 -760 l 136 -760 q 136 -784 140 -800 l 140 -800 l 260 -800 q 264 -784 264 -760 l 264 -760 q 264 -737 260 -720 l 260 -720 l 310 -720"},"Ȉ":{"ha":400,"x_min":76,"x_max":304,"o":"m 240 -80 l 300 -80 q 304 -64 304 -40 l 304 -40 q 304 -17 300 0 l 300 0 l 100 0 q 96 -17 96 -40 l 96 -40 q 96 -64 100 -80 l 100 -80 l 160 -80 q 156 -97 156 -120 l 156 -120 q 156 -144 160 -160 l 160 -160 q 156 -177 156 -200 l 156 -200 q 156 -224 160 -240 l 160 -240 q 156 -257 156 -280 l 156 -280 q 156 -304 160 -320 l 160 -320 q 156 -337 156 -360 l 156 -360 q 156 -384 160 -400 l 160 -400 q 156 -417 156 -440 l 156 -440 q 156 -464 160 -480 l 160 -480 l 100 -480 q 96 -497 96 -520 l 96 -520 q 96 -544 100 -560 l 100 -560 l 300 -560 q 304 -544 304 -520 l 304 -520 q 304 -497 300 -480 l 300 -480 l 240 -480 q 244 -464 244 -440 l 244 -440 q 244 -417 240 -400 l 240 -400 q 244 -384 244 -360 l 244 -360 q 244 -337 240 -320 l 240 -320 q 244 -304 244 -280 l 244 -280 q 244 -257 240 -240 l 240 -240 q 244 -224 244 -200 l 244 -200 q 244 -177 240 -160 l 240 -160 q 244 -144 244 -120 l 244 -120 q 244 -97 240 -80 l 240 -80 m 140 -720 l 170 -720 q 174 -704 174 -680 l 174 -680 q 174 -657 170 -640 l 170 -640 l 110 -640 q 106 -657 106 -680 l 106 -680 q 106 -704 110 -720 l 110 -720 l 80 -720 q 76 -737 76 -760 l 76 -760 q 76 -784 80 -800 l 80 -800 l 140 -800 q 144 -784 144 -760 l 144 -760 q 144 -737 140 -720 l 140 -720 m 290 -720 q 294 -704 294 -680 l 294 -680 q 294 -657 290 -640 l 290 -640 l 230 -640 q 226 -657 226 -680 l 226 -680 q 226 -704 230 -720 l 230 -720 l 200 -720 q 196 -737 196 -760 l 196 -760 q 196 -784 200 -800 l 200 -800 l 260 -800 q 264 -784 264 -760 l 264 -760 q 264 -737 260 -720 l 260 -720 l 290 -720"},"Ï":{"ha":400,"x_min":76,"x_max":324,"o":"m 164 -680 q 164 -657 160 -640 l 160 -640 l 80 -640 q 76 -657 76 -680 l 76 -680 q 76 -704 80 -720 l 80 -720 l 160 -720 q 164 -704 164 -680 l 164 -680 m 320 -720 q 324 -704 324 -680 l 324 -680 q 324 -657 320 -640 l 320 -640 l 240 -640 q 236 -657 236 -680 l 236 -680 q 236 -704 240 -720 l 240 -720 l 320 -720 m 304 -520 q 304 -497 300 -480 l 300 -480 l 240 -480 q 244 -464 244 -440 l 244 -440 q 244 -417 240 -400 l 240 -400 q 244 -384 244 -360 l 244 -360 q 244 -337 240 -320 l 240 -320 q 244 -304 244 -280 l 244 -280 q 244 -257 240 -240 l 240 -240 q 244 -224 244 -200 l 244 -200 q 244 -177 240 -160 l 240 -160 q 244 -144 244 -120 l 244 -120 q 244 -97 240 -80 l 240 -80 l 300 -80 q 304 -64 304 -40 l 304 -40 q 304 -17 300 0 l 300 0 l 100 0 q 96 -17 96 -40 l 96 -40 q 96 -64 100 -80 l 100 -80 l 160 -80 q 156 -97 156 -120 l 156 -120 q 156 -144 160 -160 l 160 -160 q 156 -177 156 -200 l 156 -200 q 156 -224 160 -240 l 160 -240 q 156 -257 156 -280 l 156 -280 q 156 -304 160 -320 l 160 -320 q 156 -337 156 -360 l 156 -360 q 156 -384 160 -400 l 160 -400 q 156 -417 156 -440 l 156 -440 q 156 -464 160 -480 l 160 -480 l 100 -480 q 96 -497 96 -520 l 96 -520 q 96 -544 100 -560 l 100 -560 l 300 -560 q 304 -544 304 -520 l 304 -520"},"İ":{"ha":400,"x_min":96,"x_max":304,"o":"m 240 -80 l 300 -80 q 304 -64 304 -40 l 304 -40 q 304 -17 300 0 l 300 0 l 100 0 q 96 -17 96 -40 l 96 -40 q 96 -64 100 -80 l 100 -80 l 160 -80 q 156 -97 156 -120 l 156 -120 q 156 -144 160 -160 l 160 -160 q 156 -177 156 -200 l 156 -200 q 156 -224 160 -240 l 160 -240 q 156 -257 156 -280 l 156 -280 q 156 -304 160 -320 l 160 -320 q 156 -337 156 -360 l 156 -360 q 156 -384 160 -400 l 160 -400 q 156 -417 156 -440 l 156 -440 q 156 -464 160 -480 l 160 -480 l 100 -480 q 96 -497 96 -520 l 96 -520 q 96 -544 100 -560 l 100 -560 l 300 -560 q 304 -544 304 -520 l 304 -520 q 304 -497 300 -480 l 300 -480 l 240 -480 q 244 -464 244 -440 l 244 -440 q 244 -417 240 -400 l 240 -400 q 244 -384 244 -360 l 244 -360 q 244 -337 240 -320 l 240 -320 q 244 -304 244 -280 l 244 -280 q 244 -257 240 -240 l 240 -240 q 244 -224 244 -200 l 244 -200 q 244 -177 240 -160 l 240 -160 q 244 -144 244 -120 l 244 -120 q 244 -97 240 -80 l 240 -80 m 160 -720 l 240 -720 q 244 -704 244 -680 l 244 -680 q 244 -657 240 -640 l 240 -640 l 160 -640 q 156 -657 156 -680 l 156 -680 q 156 -704 160 -720 l 160 -720"},"Ị":{"ha":400,"x_min":96,"x_max":304,"o":"m 240 -80 l 300 -80 q 304 -64 304 -40 l 304 -40 q 304 -17 300 0 l 300 0 l 100 0 q 96 -17 96 -40 l 96 -40 q 96 -64 100 -80 l 100 -80 l 160 -80 q 156 -97 156 -120 l 156 -120 q 156 -144 160 -160 l 160 -160 q 156 -177 156 -200 l 156 -200 q 156 -224 160 -240 l 160 -240 q 156 -257 156 -280 l 156 -280 q 156 -304 160 -320 l 160 -320 q 156 -337 156 -360 l 156 -360 q 156 -384 160 -400 l 160 -400 q 156 -417 156 -440 l 156 -440 q 156 -464 160 -480 l 160 -480 l 100 -480 q 96 -497 96 -520 l 96 -520 q 96 -544 100 -560 l 100 -560 l 300 -560 q 304 -544 304 -520 l 304 -520 q 304 -497 300 -480 l 300 -480 l 240 -480 q 244 -464 244 -440 l 244 -440 q 244 -417 240 -400 l 240 -400 q 244 -384 244 -360 l 244 -360 q 244 -337 240 -320 l 240 -320 q 244 -304 244 -280 l 244 -280 q 244 -257 240 -240 l 240 -240 q 244 -224 244 -200 l 244 -200 q 244 -177 240 -160 l 240 -160 q 244 -144 244 -120 l 244 -120 q 244 -97 240 -80 l 240 -80 m 160 80 l 240 80 q 244 96 244 120 l 244 120 q 244 143 240 160 l 240 160 l 160 160 q 156 143 156 120 l 156 120 q 156 96 160 80 l 160 80"},"Ì":{"ha":400,"x_min":96,"x_max":304,"o":"m 160 -720 l 120 -720 q 116 -737 116 -760 l 116 -760 q 116 -784 120 -800 l 120 -800 l 200 -800 q 204 -784 204 -760 l 204 -760 q 204 -737 200 -720 l 200 -720 l 240 -720 q 244 -704 244 -680 l 244 -680 q 244 -657 240 -640 l 240 -640 l 160 -640 q 156 -657 156 -680 l 156 -680 q 156 -704 160 -720 l 160 -720 m 240 -80 l 300 -80 q 304 -64 304 -40 l 304 -40 q 304 -17 300 0 l 300 0 l 100 0 q 96 -17 96 -40 l 96 -40 q 96 -64 100 -80 l 100 -80 l 160 -80 q 156 -97 156 -120 l 156 -120 q 156 -144 160 -160 l 160 -160 q 156 -177 156 -200 l 156 -200 q 156 -224 160 -240 l 160 -240 q 156 -257 156 -280 l 156 -280 q 156 -304 160 -320 l 160 -320 q 156 -337 156 -360 l 156 -360 q 156 -384 160 -400 l 160 -400 q 156 -417 156 -440 l 156 -440 q 156 -464 160 -480 l 160 -480 l 100 -480 q 96 -497 96 -520 l 96 -520 q 96 -544 100 -560 l 100 -560 l 300 -560 q 304 -544 304 -520 l 304 -520 q 304 -497 300 -480 l 300 -480 l 240 -480 q 244 -464 244 -440 l 244 -440 q 244 -417 240 -400 l 240 -400 q 244 -384 244 -360 l 244 -360 q 244 -337 240 -320 l 240 -320 q 244 -304 244 -280 l 244 -280 q 244 -257 240 -240 l 240 -240 q 244 -224 244 -200 l 244 -200 q 244 -177 240 -160 l 240 -160 q 244 -144 244 -120 l 244 -120 q 244 -97 240 -80 l 240 -80"},"Ỉ":{"ha":400,"x_min":96,"x_max":304,"o":"m 240 -80 l 300 -80 q 304 -64 304 -40 l 304 -40 q 304 -17 300 0 l 300 0 l 100 0 q 96 -17 96 -40 l 96 -40 q 96 -64 100 -80 l 100 -80 l 160 -80 q 156 -97 156 -120 l 156 -120 q 156 -144 160 -160 l 160 -160 q 156 -177 156 -200 l 156 -200 q 156 -224 160 -240 l 160 -240 q 156 -257 156 -280 l 156 -280 q 156 -304 160 -320 l 160 -320 q 156 -337 156 -360 l 156 -360 q 156 -384 160 -400 l 160 -400 q 156 -417 156 -440 l 156 -440 q 156 -464 160 -480 l 160 -480 l 100 -480 q 96 -497 96 -520 l 96 -520 q 96 -544 100 -560 l 100 -560 l 300 -560 q 304 -544 304 -520 l 304 -520 q 304 -497 300 -480 l 300 -480 l 240 -480 q 244 -464 244 -440 l 244 -440 q 244 -417 240 -400 l 240 -400 q 244 -384 244 -360 l 244 -360 q 244 -337 240 -320 l 240 -320 q 244 -304 244 -280 l 244 -280 q 244 -257 240 -240 l 240 -240 q 244 -224 244 -200 l 244 -200 q 244 -177 240 -160 l 240 -160 q 244 -144 244 -120 l 244 -120 q 244 -97 240 -80 l 240 -80 m 244 -760 q 244 -737 240 -720 l 240 -720 q 244 -704 244 -680 l 244 -680 q 244 -657 240 -640 l 240 -640 l 200 -640 q 196 -657 196 -680 l 196 -680 q 196 -704 200 -720 l 200 -720 l 160 -720 q 156 -737 156 -760 l 156 -760 q 156 -784 160 -800 l 160 -800 l 240 -800 q 244 -784 244 -760 l 244 -760"},"Ȋ":{"ha":400,"x_min":36,"x_max":364,"o":"m 240 -80 l 300 -80 q 304 -64 304 -40 l 304 -40 q 304 -17 300 0 l 300 0 l 100 0 q 96 -17 96 -40 l 96 -40 q 96 -64 100 -80 l 100 -80 l 160 -80 q 156 -97 156 -120 l 156 -120 q 156 -144 160 -160 l 160 -160 q 156 -177 156 -200 l 156 -200 q 156 -224 160 -240 l 160 -240 q 156 -257 156 -280 l 156 -280 q 156 -304 160 -320 l 160 -320 q 156 -337 156 -360 l 156 -360 q 156 -384 160 -400 l 160 -400 q 156 -417 156 -440 l 156 -440 q 156 -464 160 -480 l 160 -480 l 100 -480 q 96 -497 96 -520 l 96 -520 q 96 -544 100 -560 l 100 -560 l 300 -560 q 304 -544 304 -520 l 304 -520 q 304 -497 300 -480 l 300 -480 l 240 -480 q 244 -464 244 -440 l 244 -440 q 244 -417 240 -400 l 240 -400 q 244 -384 244 -360 l 244 -360 q 244 -337 240 -320 l 240 -320 q 244 -304 244 -280 l 244 -280 q 244 -257 240 -240 l 240 -240 q 244 -224 244 -200 l 244 -200 q 244 -177 240 -160 l 240 -160 q 244 -144 244 -120 l 244 -120 q 244 -97 240 -80 l 240 -80 m 120 -800 l 280 -800 q 284 -784 284 -760 l 284 -760 q 284 -737 280 -720 l 280 -720 l 120 -720 q 116 -737 116 -760 l 116 -760 q 116 -784 120 -800 l 120 -800 m 40 -720 l 120 -720 q 124 -704 124 -680 l 124 -680 q 124 -657 120 -640 l 120 -640 l 40 -640 q 36 -657 36 -680 l 36 -680 q 36 -704 40 -720 l 40 -720 m 280 -720 l 360 -720 q 364 -704 364 -680 l 364 -680 q 364 -657 360 -640 l 360 -640 l 280 -640 q 276 -657 276 -680 l 276 -680 q 276 -704 280 -720 l 280 -720"},"Ī":{"ha":400,"x_min":76,"x_max":324,"o":"m 240 -80 l 300 -80 q 304 -64 304 -40 l 304 -40 q 304 -17 300 0 l 300 0 l 100 0 q 96 -17 96 -40 l 96 -40 q 96 -64 100 -80 l 100 -80 l 160 -80 q 156 -97 156 -120 l 156 -120 q 156 -144 160 -160 l 160 -160 q 156 -177 156 -200 l 156 -200 q 156 -224 160 -240 l 160 -240 q 156 -257 156 -280 l 156 -280 q 156 -304 160 -320 l 160 -320 q 156 -337 156 -360 l 156 -360 q 156 -384 160 -400 l 160 -400 q 156 -417 156 -440 l 156 -440 q 156 -464 160 -480 l 160 -480 l 100 -480 q 96 -497 96 -520 l 96 -520 q 96 -544 100 -560 l 100 -560 l 300 -560 q 304 -544 304 -520 l 304 -520 q 304 -497 300 -480 l 300 -480 l 240 -480 q 244 -464 244 -440 l 244 -440 q 244 -417 240 -400 l 240 -400 q 244 -384 244 -360 l 244 -360 q 244 -337 240 -320 l 240 -320 q 244 -304 244 -280 l 244 -280 q 244 -257 240 -240 l 240 -240 q 244 -224 244 -200 l 244 -200 q 244 -177 240 -160 l 240 -160 q 244 -144 244 -120 l 244 -120 q 244 -97 240 -80 l 240 -80 m 320 -720 q 324 -704 324 -680 l 324 -680 q 324 -657 320 -640 l 320 -640 l 80 -640 q 76 -657 76 -680 l 76 -680 q 76 -704 80 -720 l 80 -720 l 320 -720"},"Į":{"ha":400,"x_min":96,"x_max":304,"o":"m 240 -80 l 300 -80 q 304 -64 304 -40 l 304 -40 q 304 -17 300 0 l 300 0 l 100 0 q 96 -17 96 -40 l 96 -40 q 96 -64 100 -80 l 100 -80 l 160 -80 q 156 -97 156 -120 l 156 -120 q 156 -144 160 -160 l 160 -160 q 156 -177 156 -200 l 156 -200 q 156 -224 160 -240 l 160 -240 q 156 -257 156 -280 l 156 -280 q 156 -304 160 -320 l 160 -320 q 156 -337 156 -360 l 156 -360 q 156 -384 160 -400 l 160 -400 q 156 -417 156 -440 l 156 -440 q 156 -464 160 -480 l 160 -480 l 100 -480 q 96 -497 96 -520 l 96 -520 q 96 -544 100 -560 l 100 -560 l 300 -560 q 304 -544 304 -520 l 304 -520 q 304 -497 300 -480 l 300 -480 l 240 -480 q 244 -464 244 -440 l 244 -440 q 244 -417 240 -400 l 240 -400 q 244 -384 244 -360 l 244 -360 q 244 -337 240 -320 l 240 -320 q 244 -304 244 -280 l 244 -280 q 244 -257 240 -240 l 240 -240 q 244 -224 244 -200 l 244 -200 q 244 -177 240 -160 l 240 -160 q 244 -144 244 -120 l 244 -120 q 244 -97 240 -80 l 240 -80 m 280 80 q 284 96 284 120 l 284 120 q 284 143 280 160 l 280 160 l 200 160 q 196 143 196 120 l 196 120 q 196 96 200 80 l 200 80 l 170 80 q 166 63 166 40 l 166 40 q 166 16 170 0 l 170 0 l 230 0 q 234 16 234 40 l 234 40 q 234 63 230 80 l 230 80 l 280 80"},"Ĩ":{"ha":400,"x_min":36,"x_max":364,"o":"m 240 -80 l 300 -80 q 304 -64 304 -40 l 304 -40 q 304 -17 300 0 l 300 0 l 100 0 q 96 -17 96 -40 l 96 -40 q 96 -64 100 -80 l 100 -80 l 160 -80 q 156 -97 156 -120 l 156 -120 q 156 -144 160 -160 l 160 -160 q 156 -177 156 -200 l 156 -200 q 156 -224 160 -240 l 160 -240 q 156 -257 156 -280 l 156 -280 q 156 -304 160 -320 l 160 -320 q 156 -337 156 -360 l 156 -360 q 156 -384 160 -400 l 160 -400 q 156 -417 156 -440 l 156 -440 q 156 -464 160 -480 l 160 -480 l 100 -480 q 96 -497 96 -520 l 96 -520 q 96 -544 100 -560 l 100 -560 l 300 -560 q 304 -544 304 -520 l 304 -520 q 304 -497 300 -480 l 300 -480 l 240 -480 q 244 -464 244 -440 l 244 -440 q 244 -417 240 -400 l 240 -400 q 244 -384 244 -360 l 244 -360 q 244 -337 240 -320 l 240 -320 q 244 -304 244 -280 l 244 -280 q 244 -257 240 -240 l 240 -240 q 244 -224 244 -200 l 244 -200 q 244 -177 240 -160 l 240 -160 q 244 -144 244 -120 l 244 -120 q 244 -97 240 -80 l 240 -80 m 224 -760 q 224 -737 220 -720 l 220 -720 l 300 -720 q 304 -704 304 -680 l 304 -680 q 304 -657 300 -640 l 300 -640 l 180 -640 q 176 -657 176 -680 l 176 -680 q 176 -704 180 -720 l 180 -720 l 100 -720 q 96 -737 96 -760 l 96 -760 q 96 -784 100 -800 l 100 -800 l 220 -800 q 224 -784 224 -760 l 224 -760 m 364 -760 q 364 -737 360 -720 l 360 -720 l 300 -720 q 296 -737 296 -760 l 296 -760 q 296 -784 300 -800 l 300 -800 l 360 -800 q 364 -784 364 -760 l 364 -760 m 36 -680 q 36 -704 40 -720 l 40 -720 l 100 -720 q 104 -704 104 -680 l 104 -680 q 104 -657 100 -640 l 100 -640 l 40 -640 q 36 -657 36 -680 l 36 -680"},"J":{"ha":400,"x_min":36,"x_max":344,"o":"m 344 -520 q 344 -497 340 -480 l 340 -480 l 280 -480 q 284 -464 284 -440 l 284 -440 q 284 -417 280 -400 l 280 -400 q 284 -384 284 -360 l 284 -360 q 284 -337 280 -320 l 280 -320 q 284 -304 284 -280 l 284 -280 q 284 -257 280 -240 l 280 -240 q 284 -224 284 -200 l 284 -200 q 284 -177 280 -160 l 280 -160 q 284 -144 284 -120 l 284 -120 q 284 -97 280 -80 l 280 -80 l 240 -80 q 244 -64 244 -40 l 244 -40 q 244 -17 240 0 l 240 0 l 80 0 q 76 -17 76 -40 l 76 -40 q 76 -64 80 -80 l 80 -80 l 40 -80 q 36 -97 36 -120 l 36 -120 q 36 -144 40 -160 l 40 -160 l 120 -160 q 124 -144 124 -120 l 124 -120 q 124 -97 120 -80 l 120 -80 l 200 -80 q 196 -97 196 -120 l 196 -120 q 196 -144 200 -160 l 200 -160 q 196 -177 196 -200 l 196 -200 q 196 -224 200 -240 l 200 -240 q 196 -257 196 -280 l 196 -280 q 196 -304 200 -320 l 200 -320 q 196 -337 196 -360 l 196 -360 q 196 -384 200 -400 l 200 -400 q 196 -417 196 -440 l 196 -440 q 196 -464 200 -480 l 200 -480 l 140 -480 q 136 -497 136 -520 l 136 -520 q 136 -544 140 -560 l 140 -560 l 340 -560 q 344 -544 344 -520 l 344 -520"},"Ĵ":{"ha":400,"x_min":36,"x_max":354,"o":"m 344 -520 q 344 -497 340 -480 l 340 -480 l 280 -480 q 284 -464 284 -440 l 284 -440 q 284 -417 280 -400 l 280 -400 q 284 -384 284 -360 l 284 -360 q 284 -337 280 -320 l 280 -320 q 284 -304 284 -280 l 284 -280 q 284 -257 280 -240 l 280 -240 q 284 -224 284 -200 l 284 -200 q 284 -177 280 -160 l 280 -160 q 284 -144 284 -120 l 284 -120 q 284 -97 280 -80 l 280 -80 l 240 -80 q 244 -64 244 -40 l 244 -40 q 244 -17 240 0 l 240 0 l 80 0 q 76 -17 76 -40 l 76 -40 q 76 -64 80 -80 l 80 -80 l 40 -80 q 36 -97 36 -120 l 36 -120 q 36 -144 40 -160 l 40 -160 l 120 -160 q 124 -144 124 -120 l 124 -120 q 124 -97 120 -80 l 120 -80 l 200 -80 q 196 -97 196 -120 l 196 -120 q 196 -144 200 -160 l 200 -160 q 196 -177 196 -200 l 196 -200 q 196 -224 200 -240 l 200 -240 q 196 -257 196 -280 l 196 -280 q 196 -304 200 -320 l 200 -320 q 196 -337 196 -360 l 196 -360 q 196 -384 200 -400 l 200 -400 q 196 -417 196 -440 l 196 -440 q 196 -464 200 -480 l 200 -480 l 140 -480 q 136 -497 136 -520 l 136 -520 q 136 -544 140 -560 l 140 -560 l 340 -560 q 344 -544 344 -520 l 344 -520 m 350 -720 q 354 -704 354 -680 l 354 -680 q 354 -657 350 -640 l 350 -640 l 270 -640 q 266 -657 266 -680 l 266 -680 q 266 -704 270 -720 l 270 -720 l 210 -720 q 214 -704 214 -680 l 214 -680 q 214 -657 210 -640 l 210 -640 l 130 -640 q 126 -657 126 -680 l 126 -680 q 126 -704 130 -720 l 130 -720 l 180 -720 q 176 -737 176 -760 l 176 -760 q 176 -784 180 -800 l 180 -800 l 300 -800 q 304 -784 304 -760 l 304 -760 q 304 -737 300 -720 l 300 -720 l 350 -720"},"K":{"ha":400,"x_min":36,"x_max":364,"o":"m 330 -80 l 360 -80 q 364 -64 364 -40 l 364 -40 q 364 -17 360 0 l 360 0 l 280 0 q 276 -17 276 -40 l 276 -40 q 276 -64 280 -80 l 280 -80 l 250 -80 q 246 -97 246 -120 l 246 -120 q 246 -144 250 -160 l 250 -160 l 190 -160 q 186 -177 186 -200 l 186 -200 q 186 -224 190 -240 l 190 -240 l 120 -240 q 124 -224 124 -200 l 124 -200 q 124 -177 120 -160 l 120 -160 q 124 -144 124 -120 l 124 -120 q 124 -97 120 -80 l 120 -80 q 124 -64 124 -40 l 124 -40 q 124 -17 120 0 l 120 0 l 40 0 q 36 -17 36 -40 l 36 -40 q 36 -64 40 -80 l 40 -80 q 36 -97 36 -120 l 36 -120 q 36 -144 40 -160 l 40 -160 q 36 -177 36 -200 l 36 -200 q 36 -224 40 -240 l 40 -240 q 36 -257 36 -280 l 36 -280 q 36 -304 40 -320 l 40 -320 q 36 -337 36 -360 l 36 -360 q 36 -384 40 -400 l 40 -400 q 36 -417 36 -440 l 36 -440 q 36 -464 40 -480 l 40 -480 q 36 -497 36 -520 l 36 -520 q 36 -544 40 -560 l 40 -560 l 120 -560 q 124 -544 124 -520 l 124 -520 q 124 -497 120 -480 l 120 -480 q 124 -464 124 -440 l 124 -440 q 124 -417 120 -400 l 120 -400 q 124 -384 124 -360 l 124 -360 q 124 -337 120 -320 l 120 -320 l 190 -320 q 186 -337 186 -360 l 186 -360 q 186 -384 190 -400 l 190 -400 l 250 -400 q 246 -417 246 -440 l 246 -440 q 246 -464 250 -480 l 250 -480 l 280 -480 q 276 -497 276 -520 l 276 -520 q 276 -544 280 -560 l 280 -560 l 360 -560 q 364 -544 364 -520 l 364 -520 q 364 -497 360 -480 l 360 -480 l 330 -480 q 334 -464 334 -440 l 334 -440 q 334 -417 330 -400 l 330 -400 l 270 -400 q 274 -384 274 -360 l 274 -360 q 274 -337 270 -320 l 270 -320 l 220 -320 q 224 -304 224 -280 l 224 -280 q 224 -257 220 -240 l 220 -240 l 270 -240 q 274 -224 274 -200 l 274 -200 q 274 -177 270 -160 l 270 -160 l 330 -160 q 334 -144 334 -120 l 334 -120 q 334 -97 330 -80 l 330 -80"},"Ķ":{"ha":400,"x_min":36,"x_max":364,"o":"m 330 -80 l 360 -80 q 364 -64 364 -40 l 364 -40 q 364 -17 360 0 l 360 0 l 280 0 q 276 -17 276 -40 l 276 -40 q 276 -64 280 -80 l 280 -80 l 250 -80 q 246 -97 246 -120 l 246 -120 q 246 -144 250 -160 l 250 -160 l 190 -160 q 186 -177 186 -200 l 186 -200 q 186 -224 190 -240 l 190 -240 l 120 -240 q 124 -224 124 -200 l 124 -200 q 124 -177 120 -160 l 120 -160 q 124 -144 124 -120 l 124 -120 q 124 -97 120 -80 l 120 -80 q 124 -64 124 -40 l 124 -40 q 124 -17 120 0 l 120 0 l 40 0 q 36 -17 36 -40 l 36 -40 q 36 -64 40 -80 l 40 -80 q 36 -97 36 -120 l 36 -120 q 36 -144 40 -160 l 40 -160 q 36 -177 36 -200 l 36 -200 q 36 -224 40 -240 l 40 -240 q 36 -257 36 -280 l 36 -280 q 36 -304 40 -320 l 40 -320 q 36 -337 36 -360 l 36 -360 q 36 -384 40 -400 l 40 -400 q 36 -417 36 -440 l 36 -440 q 36 -464 40 -480 l 40 -480 q 36 -497 36 -520 l 36 -520 q 36 -544 40 -560 l 40 -560 l 120 -560 q 124 -544 124 -520 l 124 -520 q 124 -497 120 -480 l 120 -480 q 124 -464 124 -440 l 124 -440 q 124 -417 120 -400 l 120 -400 q 124 -384 124 -360 l 124 -360 q 124 -337 120 -320 l 120 -320 l 190 -320 q 186 -337 186 -360 l 186 -360 q 186 -384 190 -400 l 190 -400 l 250 -400 q 246 -417 246 -440 l 246 -440 q 246 -464 250 -480 l 250 -480 l 280 -480 q 276 -497 276 -520 l 276 -520 q 276 -544 280 -560 l 280 -560 l 360 -560 q 364 -544 364 -520 l 364 -520 q 364 -497 360 -480 l 360 -480 l 330 -480 q 334 -464 334 -440 l 334 -440 q 334 -417 330 -400 l 330 -400 l 270 -400 q 274 -384 274 -360 l 274 -360 q 274 -337 270 -320 l 270 -320 l 220 -320 q 224 -304 224 -280 l 224 -280 q 224 -257 220 -240 l 220 -240 l 270 -240 q 274 -224 274 -200 l 274 -200 q 274 -177 270 -160 l 270 -160 l 330 -160 q 334 -144 334 -120 l 334 -120 q 334 -97 330 -80 l 330 -80 m 244 120 q 244 143 240 160 l 240 160 q 244 176 244 200 l 244 200 q 244 223 240 240 l 240 240 l 200 240 q 196 223 196 200 l 196 200 q 196 176 200 160 l 200 160 l 160 160 q 156 143 156 120 l 156 120 q 156 96 160 80 l 160 80 l 240 80 q 244 96 244 120 l 244 120"},"L":{"ha":400,"x_min":76,"x_max":364,"o":"m 360 -80 q 364 -64 364 -40 l 364 -40 q 364 -17 360 0 l 360 0 l 80 0 q 76 -17 76 -40 l 76 -40 q 76 -64 80 -80 l 80 -80 q 76 -97 76 -120 l 76 -120 q 76 -144 80 -160 l 80 -160 q 76 -177 76 -200 l 76 -200 q 76 -224 80 -240 l 80 -240 q 76 -257 76 -280 l 76 -280 q 76 -304 80 -320 l 80 -320 q 76 -337 76 -360 l 76 -360 q 76 -384 80 -400 l 80 -400 q 76 -417 76 -440 l 76 -440 q 76 -464 80 -480 l 80 -480 q 76 -497 76 -520 l 76 -520 q 76 -544 80 -560 l 80 -560 l 160 -560 q 164 -544 164 -520 l 164 -520 q 164 -497 160 -480 l 160 -480 q 164 -464 164 -440 l 164 -440 q 164 -417 160 -400 l 160 -400 q 164 -384 164 -360 l 164 -360 q 164 -337 160 -320 l 160 -320 q 164 -304 164 -280 l 164 -280 q 164 -257 160 -240 l 160 -240 q 164 -224 164 -200 l 164 -200 q 164 -177 160 -160 l 160 -160 q 164 -144 164 -120 l 164 -120 q 164 -97 160 -80 l 160 -80 l 360 -80"},"Ǉ":{"ha":400,"x_min":36,"x_max":364,"o":"m 120 -80 l 190 -80 q 194 -64 194 -40 l 194 -40 q 194 -17 190 0 l 190 0 l 40 0 q 36 -17 36 -40 l 36 -40 q 36 -64 40 -80 l 40 -80 q 36 -97 36 -120 l 36 -120 q 36 -144 40 -160 l 40 -160 q 36 -177 36 -200 l 36 -200 q 36 -224 40 -240 l 40 -240 q 36 -257 36 -280 l 36 -280 q 36 -304 40 -320 l 40 -320 q 36 -337 36 -360 l 36 -360 q 36 -384 40 -400 l 40 -400 q 36 -417 36 -440 l 36 -440 q 36 -464 40 -480 l 40 -480 q 36 -497 36 -520 l 36 -520 q 36 -544 40 -560 l 40 -560 l 120 -560 q 124 -544 124 -520 l 124 -520 q 124 -497 120 -480 l 120 -480 q 124 -464 124 -440 l 124 -440 q 124 -417 120 -400 l 120 -400 q 124 -384 124 -360 l 124 -360 q 124 -337 120 -320 l 120 -320 q 124 -304 124 -280 l 124 -280 q 124 -257 120 -240 l 120 -240 q 124 -224 124 -200 l 124 -200 q 124 -177 120 -160 l 120 -160 q 124 -144 124 -120 l 124 -120 q 124 -97 120 -80 l 120 -80 m 360 -480 q 364 -464 364 -440 l 364 -440 q 364 -417 360 -400 l 360 -400 q 364 -384 364 -360 l 364 -360 q 364 -337 360 -320 l 360 -320 q 364 -304 364 -280 l 364 -280 q 364 -257 360 -240 l 360 -240 q 364 -224 364 -200 l 364 -200 q 364 -177 360 -160 l 360 -160 q 364 -144 364 -120 l 364 -120 q 364 -97 360 -80 l 360 -80 l 320 -80 q 324 -64 324 -40 l 324 -40 q 324 -17 320 0 l 320 0 l 240 0 q 236 -17 236 -40 l 236 -40 q 236 -64 240 -80 l 240 -80 l 280 -80 q 276 -97 276 -120 l 276 -120 q 276 -144 280 -160 l 280 -160 q 276 -177 276 -200 l 276 -200 q 276 -224 280 -240 l 280 -240 q 276 -257 276 -280 l 276 -280 q 276 -304 280 -320 l 280 -320 q 276 -337 276 -360 l 276 -360 q 276 -384 280 -400 l 280 -400 q 276 -417 276 -440 l 276 -440 q 276 -464 280 -480 l 280 -480 q 276 -497 276 -520 l 276 -520 q 276 -544 280 -560 l 280 -560 l 360 -560 q 364 -544 364 -520 l 364 -520 q 364 -497 360 -480 l 360 -480"},"Ĺ":{"ha":400,"x_min":76,"x_max":364,"o":"m 240 -640 l 160 -640 q 156 -657 156 -680 l 156 -680 q 156 -704 160 -720 l 160 -720 l 200 -720 q 196 -737 196 -760 l 196 -760 q 196 -784 200 -800 l 200 -800 l 280 -800 q 284 -784 284 -760 l 284 -760 q 284 -737 280 -720 l 280 -720 l 240 -720 q 244 -704 244 -680 l 244 -680 q 244 -657 240 -640 l 240 -640 m 360 -80 q 364 -64 364 -40 l 364 -40 q 364 -17 360 0 l 360 0 l 80 0 q 76 -17 76 -40 l 76 -40 q 76 -64 80 -80 l 80 -80 q 76 -97 76 -120 l 76 -120 q 76 -144 80 -160 l 80 -160 q 76 -177 76 -200 l 76 -200 q 76 -224 80 -240 l 80 -240 q 76 -257 76 -280 l 76 -280 q 76 -304 80 -320 l 80 -320 q 76 -337 76 -360 l 76 -360 q 76 -384 80 -400 l 80 -400 q 76 -417 76 -440 l 76 -440 q 76 -464 80 -480 l 80 -480 q 76 -497 76 -520 l 76 -520 q 76 -544 80 -560 l 80 -560 l 160 -560 q 164 -544 164 -520 l 164 -520 q 164 -497 160 -480 l 160 -480 q 164 -464 164 -440 l 164 -440 q 164 -417 160 -400 l 160 -400 q 164 -384 164 -360 l 164 -360 q 164 -337 160 -320 l 160 -320 q 164 -304 164 -280 l 164 -280 q 164 -257 160 -240 l 160 -240 q 164 -224 164 -200 l 164 -200 q 164 -177 160 -160 l 160 -160 q 164 -144 164 -120 l 164 -120 q 164 -97 160 -80 l 160 -80 l 360 -80"},"Ľ":{"ha":400,"x_min":76,"x_max":364,"o":"m 360 -80 q 364 -64 364 -40 l 364 -40 q 364 -17 360 0 l 360 0 l 80 0 q 76 -17 76 -40 l 76 -40 q 76 -64 80 -80 l 80 -80 q 76 -97 76 -120 l 76 -120 q 76 -144 80 -160 l 80 -160 q 76 -177 76 -200 l 76 -200 q 76 -224 80 -240 l 80 -240 q 76 -257 76 -280 l 76 -280 q 76 -304 80 -320 l 80 -320 q 76 -337 76 -360 l 76 -360 q 76 -384 80 -400 l 80 -400 q 76 -417 76 -440 l 76 -440 q 76 -464 80 -480 l 80 -480 q 76 -497 76 -520 l 76 -520 q 76 -544 80 -560 l 80 -560 l 160 -560 q 164 -544 164 -520 l 164 -520 q 164 -497 160 -480 l 160 -480 q 164 -464 164 -440 l 164 -440 q 164 -417 160 -400 l 160 -400 q 164 -384 164 -360 l 164 -360 q 164 -337 160 -320 l 160 -320 q 164 -304 164 -280 l 164 -280 q 164 -257 160 -240 l 160 -240 q 164 -224 164 -200 l 164 -200 q 164 -177 160 -160 l 160 -160 q 164 -144 164 -120 l 164 -120 q 164 -97 160 -80 l 160 -80 l 360 -80 m 344 -520 q 344 -497 340 -480 l 340 -480 q 344 -464 344 -440 l 344 -440 q 344 -417 340 -400 l 340 -400 l 280 -400 q 276 -417 276 -440 l 276 -440 q 276 -464 280 -480 l 280 -480 q 276 -497 276 -520 l 276 -520 q 276 -544 280 -560 l 280 -560 l 340 -560 q 344 -544 344 -520 l 344 -520"},"Ļ":{"ha":400,"x_min":76,"x_max":364,"o":"m 360 -80 q 364 -64 364 -40 l 364 -40 q 364 -17 360 0 l 360 0 l 80 0 q 76 -17 76 -40 l 76 -40 q 76 -64 80 -80 l 80 -80 q 76 -97 76 -120 l 76 -120 q 76 -144 80 -160 l 80 -160 q 76 -177 76 -200 l 76 -200 q 76 -224 80 -240 l 80 -240 q 76 -257 76 -280 l 76 -280 q 76 -304 80 -320 l 80 -320 q 76 -337 76 -360 l 76 -360 q 76 -384 80 -400 l 80 -400 q 76 -417 76 -440 l 76 -440 q 76 -464 80 -480 l 80 -480 q 76 -497 76 -520 l 76 -520 q 76 -544 80 -560 l 80 -560 l 160 -560 q 164 -544 164 -520 l 164 -520 q 164 -497 160 -480 l 160 -480 q 164 -464 164 -440 l 164 -440 q 164 -417 160 -400 l 160 -400 q 164 -384 164 -360 l 164 -360 q 164 -337 160 -320 l 160 -320 q 164 -304 164 -280 l 164 -280 q 164 -257 160 -240 l 160 -240 q 164 -224 164 -200 l 164 -200 q 164 -177 160 -160 l 160 -160 q 164 -144 164 -120 l 164 -120 q 164 -97 160 -80 l 160 -80 l 360 -80 m 264 120 q 264 143 260 160 l 260 160 q 264 176 264 200 l 264 200 q 264 223 260 240 l 260 240 l 220 240 q 216 223 216 200 l 216 200 q 216 176 220 160 l 220 160 l 180 160 q 176 143 176 120 l 176 120 q 176 96 180 80 l 180 80 l 260 80 q 264 96 264 120 l 264 120"},"Ŀ":{"ha":400,"x_min":76,"x_max":364,"o":"m 360 -80 q 364 -64 364 -40 l 364 -40 q 364 -17 360 0 l 360 0 l 80 0 q 76 -17 76 -40 l 76 -40 q 76 -64 80 -80 l 80 -80 q 76 -97 76 -120 l 76 -120 q 76 -144 80 -160 l 80 -160 q 76 -177 76 -200 l 76 -200 q 76 -224 80 -240 l 80 -240 q 76 -257 76 -280 l 76 -280 q 76 -304 80 -320 l 80 -320 q 76 -337 76 -360 l 76 -360 q 76 -384 80 -400 l 80 -400 q 76 -417 76 -440 l 76 -440 q 76 -464 80 -480 l 80 -480 q 76 -497 76 -520 l 76 -520 q 76 -544 80 -560 l 80 -560 l 160 -560 q 164 -544 164 -520 l 164 -520 q 164 -497 160 -480 l 160 -480 q 164 -464 164 -440 l 164 -440 q 164 -417 160 -400 l 160 -400 q 164 -384 164 -360 l 164 -360 q 164 -337 160 -320 l 160 -320 q 164 -304 164 -280 l 164 -280 q 164 -257 160 -240 l 160 -240 q 164 -224 164 -200 l 164 -200 q 164 -177 160 -160 l 160 -160 q 164 -144 164 -120 l 164 -120 q 164 -97 160 -80 l 160 -80 l 360 -80 m 320 -240 l 240 -240 q 236 -257 236 -280 l 236 -280 q 236 -304 240 -320 l 240 -320 l 320 -320 q 324 -304 324 -280 l 324 -280 q 324 -257 320 -240 l 320 -240"},"ǈ":{"ha":400,"x_min":36,"x_max":364,"o":"m 204 -40 q 204 -17 200 0 l 200 0 l 40 0 q 36 -17 36 -40 l 36 -40 q 36 -64 40 -80 l 40 -80 q 36 -97 36 -120 l 36 -120 q 36 -144 40 -160 l 40 -160 q 36 -177 36 -200 l 36 -200 q 36 -224 40 -240 l 40 -240 q 36 -257 36 -280 l 36 -280 q 36 -304 40 -320 l 40 -320 q 36 -337 36 -360 l 36 -360 q 36 -384 40 -400 l 40 -400 q 36 -417 36 -440 l 36 -440 q 36 -464 40 -480 l 40 -480 q 36 -497 36 -520 l 36 -520 q 36 -544 40 -560 l 40 -560 l 120 -560 q 124 -544 124 -520 l 124 -520 q 124 -497 120 -480 l 120 -480 q 124 -464 124 -440 l 124 -440 q 124 -417 120 -400 l 120 -400 q 124 -384 124 -360 l 124 -360 q 124 -337 120 -320 l 120 -320 q 124 -304 124 -280 l 124 -280 q 124 -257 120 -240 l 120 -240 q 124 -224 124 -200 l 124 -200 q 124 -177 120 -160 l 120 -160 q 124 -144 124 -120 l 124 -120 q 124 -97 120 -80 l 120 -80 l 200 -80 q 204 -64 204 -40 l 204 -40 m 360 -480 l 280 -480 q 276 -497 276 -520 l 276 -520 q 276 -544 280 -560 l 280 -560 l 360 -560 q 364 -544 364 -520 l 364 -520 q 364 -497 360 -480 l 360 -480 m 360 -400 q 364 -384 364 -360 l 364 -360 q 364 -337 360 -320 l 360 -320 q 364 -304 364 -280 l 364 -280 q 364 -257 360 -240 l 360 -240 q 364 -224 364 -200 l 364 -200 q 364 -177 360 -160 l 360 -160 q 364 -144 364 -120 l 364 -120 q 364 -97 360 -80 l 360 -80 q 364 -64 364 -40 l 364 -40 q 364 -17 360 0 l 360 0 l 320 0 q 324 16 324 40 l 324 40 q 324 63 320 80 l 320 80 l 280 80 q 284 96 284 120 l 284 120 q 284 143 280 160 l 280 160 l 160 160 q 156 143 156 120 l 156 120 q 156 96 160 80 l 160 80 l 240 80 q 236 63 236 40 l 236 40 q 236 16 240 0 l 240 0 l 280 0 q 276 -17 276 -40 l 276 -40 q 276 -64 280 -80 l 280 -80 q 276 -97 276 -120 l 276 -120 q 276 -144 280 -160 l 280 -160 q 276 -177 276 -200 l 276 -200 q 276 -224 280 -240 l 280 -240 q 276 -257 276 -280 l 276 -280 q 276 -304 280 -320 l 280 -320 l 240 -320 q 236 -337 236 -360 l 236 -360 q 236 -384 240 -400 l 240 -400 l 360 -400"},"Ł":{"ha":400,"x_min":36,"x_max":364,"o":"m 360 -80 q 364 -64 364 -40 l 364 -40 q 364 -17 360 0 l 360 0 l 80 0 q 76 -17 76 -40 l 76 -40 q 76 -64 80 -80 l 80 -80 q 76 -97 76 -120 l 76 -120 q 76 -144 80 -160 l 80 -160 l 40 -160 q 36 -177 36 -200 l 36 -200 q 36 -224 40 -240 l 40 -240 l 80 -240 q 76 -257 76 -280 l 76 -280 q 76 -304 80 -320 l 80 -320 q 76 -337 76 -360 l 76 -360 q 76 -384 80 -400 l 80 -400 q 76 -417 76 -440 l 76 -440 q 76 -464 80 -480 l 80 -480 q 76 -497 76 -520 l 76 -520 q 76 -544 80 -560 l 80 -560 l 160 -560 q 164 -544 164 -520 l 164 -520 q 164 -497 160 -480 l 160 -480 q 164 -464 164 -440 l 164 -440 q 164 -417 160 -400 l 160 -400 q 164 -384 164 -360 l 164 -360 q 164 -337 160 -320 l 160 -320 l 200 -320 q 204 -304 204 -280 l 204 -280 q 204 -257 200 -240 l 200 -240 l 160 -240 q 164 -224 164 -200 l 164 -200 q 164 -177 160 -160 l 160 -160 q 164 -144 164 -120 l 164 -120 q 164 -97 160 -80 l 160 -80 l 360 -80 m 264 -360 q 264 -337 260 -320 l 260 -320 l 200 -320 q 196 -337 196 -360 l 196 -360 q 196 -384 200 -400 l 200 -400 l 260 -400 q 264 -384 264 -360 l 264 -360"},"M":{"ha":400,"x_min":36,"x_max":364,"o":"m 360 -480 q 364 -464 364 -440 l 364 -440 q 364 -417 360 -400 l 360 -400 q 364 -384 364 -360 l 364 -360 q 364 -337 360 -320 l 360 -320 q 364 -304 364 -280 l 364 -280 q 364 -257 360 -240 l 360 -240 q 364 -224 364 -200 l 364 -200 q 364 -177 360 -160 l 360 -160 q 364 -144 364 -120 l 364 -120 q 364 -97 360 -80 l 360 -80 q 364 -64 364 -40 l 364 -40 q 364 -17 360 0 l 360 0 l 280 0 q 276 -17 276 -40 l 276 -40 q 276 -64 280 -80 l 280 -80 q 276 -97 276 -120 l 276 -120 q 276 -144 280 -160 l 280 -160 q 276 -177 276 -200 l 276 -200 q 276 -224 280 -240 l 280 -240 q 276 -257 276 -280 l 276 -280 q 276 -304 280 -320 l 280 -320 q 276 -337 276 -360 l 276 -360 q 276 -384 280 -400 l 280 -400 l 250 -400 q 254 -384 254 -360 l 254 -360 q 254 -337 250 -320 l 250 -320 q 254 -304 254 -280 l 254 -280 q 254 -257 250 -240 l 250 -240 l 230 -240 q 234 -224 234 -200 l 234 -200 q 234 -177 230 -160 l 230 -160 q 234 -144 234 -120 l 234 -120 q 234 -97 230 -80 l 230 -80 l 170 -80 q 166 -97 166 -120 l 166 -120 q 166 -144 170 -160 l 170 -160 q 166 -177 166 -200 l 166 -200 q 166 -224 170 -240 l 170 -240 l 150 -240 q 146 -257 146 -280 l 146 -280 q 146 -304 150 -320 l 150 -320 q 146 -337 146 -360 l 146 -360 q 146 -384 150 -400 l 150 -400 l 120 -400 q 124 -384 124 -360 l 124 -360 q 124 -337 120 -320 l 120 -320 q 124 -304 124 -280 l 124 -280 q 124 -257 120 -240 l 120 -240 q 124 -224 124 -200 l 124 -200 q 124 -177 120 -160 l 120 -160 q 124 -144 124 -120 l 124 -120 q 124 -97 120 -80 l 120 -80 q 124 -64 124 -40 l 124 -40 q 124 -17 120 0 l 120 0 l 40 0 q 36 -17 36 -40 l 36 -40 q 36 -64 40 -80 l 40 -80 q 36 -97 36 -120 l 36 -120 q 36 -144 40 -160 l 40 -160 q 36 -177 36 -200 l 36 -200 q 36 -224 40 -240 l 40 -240 q 36 -257 36 -280 l 36 -280 q 36 -304 40 -320 l 40 -320 q 36 -337 36 -360 l 36 -360 q 36 -384 40 -400 l 40 -400 q 36 -417 36 -440 l 36 -440 q 36 -464 40 -480 l 40 -480 q 36 -497 36 -520 l 36 -520 q 36 -544 40 -560 l 40 -560 l 140 -560 q 144 -544 144 -520 l 144 -520 q 144 -497 140 -480 l 140 -480 l 170 -480 q 174 -464 174 -440 l 174 -440 q 174 -417 170 -400 l 170 -400 l 185 -400 q 189 -384 189 -360 l 189 -360 q 189 -337 185 -320 l 185 -320 l 215 -320 q 211 -337 211 -360 l 211 -360 q 211 -384 215 -400 l 215 -400 l 230 -400 q 226 -417 226 -440 l 226 -440 q 226 -464 230 -480 l 230 -480 l 260 -480 q 256 -497 256 -520 l 256 -520 q 256 -544 260 -560 l 260 -560 l 360 -560 q 364 -544 364 -520 l 364 -520 q 364 -497 360 -480 l 360 -480"},"N":{"ha":400,"x_min":36,"x_max":364,"o":"m 360 -480 q 364 -464 364 -440 l 364 -440 q 364 -417 360 -400 l 360 -400 q 364 -384 364 -360 l 364 -360 q 364 -337 360 -320 l 360 -320 q 364 -304 364 -280 l 364 -280 q 364 -257 360 -240 l 360 -240 q 364 -224 364 -200 l 364 -200 q 364 -177 360 -160 l 360 -160 q 364 -144 364 -120 l 364 -120 q 364 -97 360 -80 l 360 -80 q 364 -64 364 -40 l 364 -40 q 364 -17 360 0 l 360 0 l 280 0 q 276 -17 276 -40 l 276 -40 q 276 -64 280 -80 l 280 -80 l 230 -80 q 226 -97 226 -120 l 226 -120 q 226 -144 230 -160 l 230 -160 l 200 -160 q 196 -177 196 -200 l 196 -200 q 196 -224 200 -240 l 200 -240 l 160 -240 q 156 -257 156 -280 l 156 -280 q 156 -304 160 -320 l 160 -320 l 120 -320 q 124 -304 124 -280 l 124 -280 q 124 -257 120 -240 l 120 -240 q 124 -224 124 -200 l 124 -200 q 124 -177 120 -160 l 120 -160 q 124 -144 124 -120 l 124 -120 q 124 -97 120 -80 l 120 -80 q 124 -64 124 -40 l 124 -40 q 124 -17 120 0 l 120 0 l 40 0 q 36 -17 36 -40 l 36 -40 q 36 -64 40 -80 l 40 -80 q 36 -97 36 -120 l 36 -120 q 36 -144 40 -160 l 40 -160 q 36 -177 36 -200 l 36 -200 q 36 -224 40 -240 l 40 -240 q 36 -257 36 -280 l 36 -280 q 36 -304 40 -320 l 40 -320 q 36 -337 36 -360 l 36 -360 q 36 -384 40 -400 l 40 -400 q 36 -417 36 -440 l 36 -440 q 36 -464 40 -480 l 40 -480 q 36 -497 36 -520 l 36 -520 q 36 -544 40 -560 l 40 -560 l 140 -560 q 144 -544 144 -520 l 144 -520 q 144 -497 140 -480 l 140 -480 l 170 -480 q 174 -464 174 -440 l 174 -440 q 174 -417 170 -400 l 170 -400 l 200 -400 q 204 -384 204 -360 l 204 -360 q 204 -337 200 -320 l 200 -320 l 240 -320 q 244 -304 244 -280 l 244 -280 q 244 -257 240 -240 l 240 -240 l 280 -240 q 276 -257 276 -280 l 276 -280 q 276 -304 280 -320 l 280 -320 q 276 -337 276 -360 l 276 -360 q 276 -384 280 -400 l 280 -400 q 276 -417 276 -440 l 276 -440 q 276 -464 280 -480 l 280 -480 q 276 -497 276 -520 l 276 -520 q 276 -544 280 -560 l 280 -560 l 360 -560 q 364 -544 364 -520 l 364 -520 q 364 -497 360 -480 l 360 -480"},"Ǌ":{"ha":400,"x_min":36,"x_max":364,"o":"m 230 -560 q 234 -544 234 -520 l 234 -520 q 234 -497 230 -480 l 230 -480 q 234 -464 234 -440 l 234 -440 q 234 -417 230 -400 l 230 -400 q 234 -384 234 -360 l 234 -360 q 234 -337 230 -320 l 230 -320 q 234 -304 234 -280 l 234 -280 q 234 -257 230 -240 l 230 -240 q 234 -224 234 -200 l 234 -200 q 234 -177 230 -160 l 230 -160 q 234 -144 234 -120 l 234 -120 q 234 -97 230 -80 l 230 -80 q 234 -64 234 -40 l 234 -40 q 234 -17 230 0 l 230 0 l 170 0 q 166 -17 166 -40 l 166 -40 q 166 -64 170 -80 l 170 -80 q 166 -97 166 -120 l 166 -120 q 166 -144 170 -160 l 170 -160 q 166 -177 166 -200 l 166 -200 q 166 -224 170 -240 l 170 -240 l 150 -240 q 146 -257 146 -280 l 146 -280 q 146 -304 150 -320 l 150 -320 l 115 -320 q 111 -337 111 -360 l 111 -360 q 111 -384 115 -400 l 115 -400 l 90 -400 q 94 -384 94 -360 l 94 -360 q 94 -337 90 -320 l 90 -320 l 100 -320 q 104 -304 104 -280 l 104 -280 q 104 -257 100 -240 l 100 -240 q 104 -224 104 -200 l 104 -200 q 104 -177 100 -160 l 100 -160 q 104 -144 104 -120 l 104 -120 q 104 -97 100 -80 l 100 -80 q 104 -64 104 -40 l 104 -40 q 104 -17 100 0 l 100 0 l 40 0 q 36 -17 36 -40 l 36 -40 q 36 -64 40 -80 l 40 -80 q 36 -97 36 -120 l 36 -120 q 36 -144 40 -160 l 40 -160 q 36 -177 36 -200 l 36 -200 q 36 -224 40 -240 l 40 -240 q 36 -257 36 -280 l 36 -280 q 36 -304 40 -320 l 40 -320 q 36 -337 36 -360 l 36 -360 q 36 -384 40 -400 l 40 -400 q 36 -417 36 -440 l 36 -440 q 36 -464 40 -480 l 40 -480 q 36 -497 36 -520 l 36 -520 q 36 -544 40 -560 l 40 -560 l 100 -560 q 104 -544 104 -520 l 104 -520 q 104 -497 100 -480 l 100 -480 l 120 -480 q 124 -464 124 -440 l 124 -440 q 124 -417 120 -400 l 120 -400 l 155 -400 q 159 -384 159 -360 l 159 -360 q 159 -337 155 -320 l 155 -320 l 180 -320 q 176 -337 176 -360 l 176 -360 q 176 -384 180 -400 l 180 -400 l 170 -400 q 166 -417 166 -440 l 166 -440 q 166 -464 170 -480 l 170 -480 q 166 -497 166 -520 l 166 -520 q 166 -544 170 -560 l 170 -560 l 230 -560 m 360 -480 q 364 -464 364 -440 l 364 -440 q 364 -417 360 -400 l 360 -400 q 364 -384 364 -360 l 364 -360 q 364 -337 360 -320 l 360 -320 q 364 -304 364 -280 l 364 -280 q 364 -257 360 -240 l 360 -240 q 364 -224 364 -200 l 364 -200 q 364 -177 360 -160 l 360 -160 q 364 -144 364 -120 l 364 -120 q 364 -97 360 -80 l 360 -80 l 332 -80 q 336 -64 336 -40 l 336 -40 q 336 -17 332 0 l 332 0 l 272 0 q 268 -17 268 -40 l 268 -40 q 268 -64 272 -80 l 272 -80 l 300 -80 q 296 -97 296 -120 l 296 -120 q 296 -144 300 -160 l 300 -160 q 296 -177 296 -200 l 296 -200 q 296 -224 300 -240 l 300 -240 q 296 -257 296 -280 l 296 -280 q 296 -304 300 -320 l 300 -320 q 296 -337 296 -360 l 296 -360 q 296 -384 300 -400 l 300 -400 q 296 -417 296 -440 l 296 -440 q 296 -464 300 -480 l 300 -480 l 280 -480 q 276 -497 276 -520 l 276 -520 q 276 -544 280 -560 l 280 -560 l 360 -560 q 364 -544 364 -520 l 364 -520 q 364 -497 360 -480 l 360 -480"},"Ń":{"ha":400,"x_min":36,"x_max":364,"o":"m 240 -640 l 160 -640 q 156 -657 156 -680 l 156 -680 q 156 -704 160 -720 l 160 -720 l 200 -720 q 196 -737 196 -760 l 196 -760 q 196 -784 200 -800 l 200 -800 l 280 -800 q 284 -784 284 -760 l 284 -760 q 284 -737 280 -720 l 280 -720 l 240 -720 q 244 -704 244 -680 l 244 -680 q 244 -657 240 -640 l 240 -640 m 360 -480 q 364 -464 364 -440 l 364 -440 q 364 -417 360 -400 l 360 -400 q 364 -384 364 -360 l 364 -360 q 364 -337 360 -320 l 360 -320 q 364 -304 364 -280 l 364 -280 q 364 -257 360 -240 l 360 -240 q 364 -224 364 -200 l 364 -200 q 364 -177 360 -160 l 360 -160 q 364 -144 364 -120 l 364 -120 q 364 -97 360 -80 l 360 -80 q 364 -64 364 -40 l 364 -40 q 364 -17 360 0 l 360 0 l 280 0 q 276 -17 276 -40 l 276 -40 q 276 -64 280 -80 l 280 -80 l 230 -80 q 226 -97 226 -120 l 226 -120 q 226 -144 230 -160 l 230 -160 l 200 -160 q 196 -177 196 -200 l 196 -200 q 196 -224 200 -240 l 200 -240 l 160 -240 q 156 -257 156 -280 l 156 -280 q 156 -304 160 -320 l 160 -320 l 120 -320 q 124 -304 124 -280 l 124 -280 q 124 -257 120 -240 l 120 -240 q 124 -224 124 -200 l 124 -200 q 124 -177 120 -160 l 120 -160 q 124 -144 124 -120 l 124 -120 q 124 -97 120 -80 l 120 -80 q 124 -64 124 -40 l 124 -40 q 124 -17 120 0 l 120 0 l 40 0 q 36 -17 36 -40 l 36 -40 q 36 -64 40 -80 l 40 -80 q 36 -97 36 -120 l 36 -120 q 36 -144 40 -160 l 40 -160 q 36 -177 36 -200 l 36 -200 q 36 -224 40 -240 l 40 -240 q 36 -257 36 -280 l 36 -280 q 36 -304 40 -320 l 40 -320 q 36 -337 36 -360 l 36 -360 q 36 -384 40 -400 l 40 -400 q 36 -417 36 -440 l 36 -440 q 36 -464 40 -480 l 40 -480 q 36 -497 36 -520 l 36 -520 q 36 -544 40 -560 l 40 -560 l 140 -560 q 144 -544 144 -520 l 144 -520 q 144 -497 140 -480 l 140 -480 l 170 -480 q 174 -464 174 -440 l 174 -440 q 174 -417 170 -400 l 170 -400 l 200 -400 q 204 -384 204 -360 l 204 -360 q 204 -337 200 -320 l 200 -320 l 240 -320 q 244 -304 244 -280 l 244 -280 q 244 -257 240 -240 l 240 -240 l 280 -240 q 276 -257 276 -280 l 276 -280 q 276 -304 280 -320 l 280 -320 q 276 -337 276 -360 l 276 -360 q 276 -384 280 -400 l 280 -400 q 276 -417 276 -440 l 276 -440 q 276 -464 280 -480 l 280 -480 q 276 -497 276 -520 l 276 -520 q 276 -544 280 -560 l 280 -560 l 360 -560 q 364 -544 364 -520 l 364 -520 q 364 -497 360 -480 l 360 -480"},"Ň":{"ha":400,"x_min":36,"x_max":364,"o":"m 360 -480 q 364 -464 364 -440 l 364 -440 q 364 -417 360 -400 l 360 -400 q 364 -384 364 -360 l 364 -360 q 364 -337 360 -320 l 360 -320 q 364 -304 364 -280 l 364 -280 q 364 -257 360 -240 l 360 -240 q 364 -224 364 -200 l 364 -200 q 364 -177 360 -160 l 360 -160 q 364 -144 364 -120 l 364 -120 q 364 -97 360 -80 l 360 -80 q 364 -64 364 -40 l 364 -40 q 364 -17 360 0 l 360 0 l 280 0 q 276 -17 276 -40 l 276 -40 q 276 -64 280 -80 l 280 -80 l 230 -80 q 226 -97 226 -120 l 226 -120 q 226 -144 230 -160 l 230 -160 l 200 -160 q 196 -177 196 -200 l 196 -200 q 196 -224 200 -240 l 200 -240 l 160 -240 q 156 -257 156 -280 l 156 -280 q 156 -304 160 -320 l 160 -320 l 120 -320 q 124 -304 124 -280 l 124 -280 q 124 -257 120 -240 l 120 -240 q 124 -224 124 -200 l 124 -200 q 124 -177 120 -160 l 120 -160 q 124 -144 124 -120 l 124 -120 q 124 -97 120 -80 l 120 -80 q 124 -64 124 -40 l 124 -40 q 124 -17 120 0 l 120 0 l 40 0 q 36 -17 36 -40 l 36 -40 q 36 -64 40 -80 l 40 -80 q 36 -97 36 -120 l 36 -120 q 36 -144 40 -160 l 40 -160 q 36 -177 36 -200 l 36 -200 q 36 -224 40 -240 l 40 -240 q 36 -257 36 -280 l 36 -280 q 36 -304 40 -320 l 40 -320 q 36 -337 36 -360 l 36 -360 q 36 -384 40 -400 l 40 -400 q 36 -417 36 -440 l 36 -440 q 36 -464 40 -480 l 40 -480 q 36 -497 36 -520 l 36 -520 q 36 -544 40 -560 l 40 -560 l 140 -560 q 144 -544 144 -520 l 144 -520 q 144 -497 140 -480 l 140 -480 l 170 -480 q 174 -464 174 -440 l 174 -440 q 174 -417 170 -400 l 170 -400 l 200 -400 q 204 -384 204 -360 l 204 -360 q 204 -337 200 -320 l 200 -320 l 240 -320 q 244 -304 244 -280 l 244 -280 q 244 -257 240 -240 l 240 -240 l 280 -240 q 276 -257 276 -280 l 276 -280 q 276 -304 280 -320 l 280 -320 q 276 -337 276 -360 l 276 -360 q 276 -384 280 -400 l 280 -400 q 276 -417 276 -440 l 276 -440 q 276 -464 280 -480 l 280 -480 q 276 -497 276 -520 l 276 -520 q 276 -544 280 -560 l 280 -560 l 360 -560 q 364 -544 364 -520 l 364 -520 q 364 -497 360 -480 l 360 -480 m 314 -760 q 314 -737 310 -720 l 310 -720 l 260 -720 q 264 -704 264 -680 l 264 -680 q 264 -657 260 -640 l 260 -640 l 140 -640 q 136 -657 136 -680 l 136 -680 q 136 -704 140 -720 l 140 -720 l 90 -720 q 86 -737 86 -760 l 86 -760 q 86 -784 90 -800 l 90 -800 l 170 -800 q 174 -784 174 -760 l 174 -760 q 174 -737 170 -720 l 170 -720 l 230 -720 q 226 -737 226 -760 l 226 -760 q 226 -784 230 -800 l 230 -800 l 310 -800 q 314 -784 314 -760 l 314 -760"},"Ņ":{"ha":400,"x_min":36,"x_max":364,"o":"m 360 -480 q 364 -464 364 -440 l 364 -440 q 364 -417 360 -400 l 360 -400 q 364 -384 364 -360 l 364 -360 q 364 -337 360 -320 l 360 -320 q 364 -304 364 -280 l 364 -280 q 364 -257 360 -240 l 360 -240 q 364 -224 364 -200 l 364 -200 q 364 -177 360 -160 l 360 -160 q 364 -144 364 -120 l 364 -120 q 364 -97 360 -80 l 360 -80 q 364 -64 364 -40 l 364 -40 q 364 -17 360 0 l 360 0 l 280 0 q 276 -17 276 -40 l 276 -40 q 276 -64 280 -80 l 280 -80 l 230 -80 q 226 -97 226 -120 l 226 -120 q 226 -144 230 -160 l 230 -160 l 200 -160 q 196 -177 196 -200 l 196 -200 q 196 -224 200 -240 l 200 -240 l 160 -240 q 156 -257 156 -280 l 156 -280 q 156 -304 160 -320 l 160 -320 l 120 -320 q 124 -304 124 -280 l 124 -280 q 124 -257 120 -240 l 120 -240 q 124 -224 124 -200 l 124 -200 q 124 -177 120 -160 l 120 -160 q 124 -144 124 -120 l 124 -120 q 124 -97 120 -80 l 120 -80 q 124 -64 124 -40 l 124 -40 q 124 -17 120 0 l 120 0 l 40 0 q 36 -17 36 -40 l 36 -40 q 36 -64 40 -80 l 40 -80 q 36 -97 36 -120 l 36 -120 q 36 -144 40 -160 l 40 -160 q 36 -177 36 -200 l 36 -200 q 36 -224 40 -240 l 40 -240 q 36 -257 36 -280 l 36 -280 q 36 -304 40 -320 l 40 -320 q 36 -337 36 -360 l 36 -360 q 36 -384 40 -400 l 40 -400 q 36 -417 36 -440 l 36 -440 q 36 -464 40 -480 l 40 -480 q 36 -497 36 -520 l 36 -520 q 36 -544 40 -560 l 40 -560 l 140 -560 q 144 -544 144 -520 l 144 -520 q 144 -497 140 -480 l 140 -480 l 170 -480 q 174 -464 174 -440 l 174 -440 q 174 -417 170 -400 l 170 -400 l 200 -400 q 204 -384 204 -360 l 204 -360 q 204 -337 200 -320 l 200 -320 l 240 -320 q 244 -304 244 -280 l 244 -280 q 244 -257 240 -240 l 240 -240 l 280 -240 q 276 -257 276 -280 l 276 -280 q 276 -304 280 -320 l 280 -320 q 276 -337 276 -360 l 276 -360 q 276 -384 280 -400 l 280 -400 q 276 -417 276 -440 l 276 -440 q 276 -464 280 -480 l 280 -480 q 276 -497 276 -520 l 276 -520 q 276 -544 280 -560 l 280 -560 l 360 -560 q 364 -544 364 -520 l 364 -520 q 364 -497 360 -480 l 360 -480 m 244 120 q 244 143 240 160 l 240 160 q 244 176 244 200 l 244 200 q 244 223 240 240 l 240 240 l 200 240 q 196 223 196 200 l 196 200 q 196 176 200 160 l 200 160 l 160 160 q 156 143 156 120 l 156 120 q 156 96 160 80 l 160 80 l 240 80 q 244 96 244 120 l 244 120"},"Ŋ":{"ha":400,"x_min":36,"x_max":364,"o":"m 360 -480 q 364 -464 364 -440 l 364 -440 q 364 -417 360 -400 l 360 -400 q 364 -384 364 -360 l 364 -360 q 364 -337 360 -320 l 360 -320 q 364 -304 364 -280 l 364 -280 q 364 -257 360 -240 l 360 -240 q 364 -224 364 -200 l 364 -200 q 364 -177 360 -160 l 360 -160 q 364 -144 364 -120 l 364 -120 q 364 -97 360 -80 l 360 -80 q 364 -64 364 -40 l 364 -40 q 364 -17 360 0 l 360 0 q 364 16 364 40 l 364 40 q 364 63 360 80 l 360 80 l 320 80 q 324 96 324 120 l 324 120 q 324 143 320 160 l 320 160 l 180 160 q 176 143 176 120 l 176 120 q 176 96 180 80 l 180 80 l 280 80 q 276 63 276 40 l 276 40 q 276 16 280 0 l 280 0 q 276 -17 276 -40 l 276 -40 q 276 -64 280 -80 l 280 -80 l 230 -80 q 226 -97 226 -120 l 226 -120 q 226 -144 230 -160 l 230 -160 l 200 -160 q 196 -177 196 -200 l 196 -200 q 196 -224 200 -240 l 200 -240 l 160 -240 q 156 -257 156 -280 l 156 -280 q 156 -304 160 -320 l 160 -320 l 120 -320 q 124 -304 124 -280 l 124 -280 q 124 -257 120 -240 l 120 -240 q 124 -224 124 -200 l 124 -200 q 124 -177 120 -160 l 120 -160 q 124 -144 124 -120 l 124 -120 q 124 -97 120 -80 l 120 -80 q 124 -64 124 -40 l 124 -40 q 124 -17 120 0 l 120 0 l 40 0 q 36 -17 36 -40 l 36 -40 q 36 -64 40 -80 l 40 -80 q 36 -97 36 -120 l 36 -120 q 36 -144 40 -160 l 40 -160 q 36 -177 36 -200 l 36 -200 q 36 -224 40 -240 l 40 -240 q 36 -257 36 -280 l 36 -280 q 36 -304 40 -320 l 40 -320 q 36 -337 36 -360 l 36 -360 q 36 -384 40 -400 l 40 -400 q 36 -417 36 -440 l 36 -440 q 36 -464 40 -480 l 40 -480 q 36 -497 36 -520 l 36 -520 q 36 -544 40 -560 l 40 -560 l 140 -560 q 144 -544 144 -520 l 144 -520 q 144 -497 140 -480 l 140 -480 l 170 -480 q 174 -464 174 -440 l 174 -440 q 174 -417 170 -400 l 170 -400 l 200 -400 q 204 -384 204 -360 l 204 -360 q 204 -337 200 -320 l 200 -320 l 240 -320 q 244 -304 244 -280 l 244 -280 q 244 -257 240 -240 l 240 -240 l 280 -240 q 276 -257 276 -280 l 276 -280 q 276 -304 280 -320 l 280 -320 q 276 -337 276 -360 l 276 -360 q 276 -384 280 -400 l 280 -400 q 276 -417 276 -440 l 276 -440 q 276 -464 280 -480 l 280 -480 q 276 -497 276 -520 l 276 -520 q 276 -544 280 -560 l 280 -560 l 360 -560 q 364 -544 364 -520 l 364 -520 q 364 -497 360 -480 l 360 -480"},"ǋ":{"ha":400,"x_min":36,"x_max":366,"o":"m 234 -40 q 234 -17 230 0 l 230 0 l 170 0 q 166 -17 166 -40 l 166 -40 q 166 -64 170 -80 l 170 -80 q 166 -97 166 -120 l 166 -120 q 166 -144 170 -160 l 170 -160 q 166 -177 166 -200 l 166 -200 q 166 -224 170 -240 l 170 -240 l 150 -240 q 146 -257 146 -280 l 146 -280 q 146 -304 150 -320 l 150 -320 l 115 -320 q 111 -337 111 -360 l 111 -360 q 111 -384 115 -400 l 115 -400 l 90 -400 q 94 -384 94 -360 l 94 -360 q 94 -337 90 -320 l 90 -320 l 100 -320 q 104 -304 104 -280 l 104 -280 q 104 -257 100 -240 l 100 -240 q 104 -224 104 -200 l 104 -200 q 104 -177 100 -160 l 100 -160 q 104 -144 104 -120 l 104 -120 q 104 -97 100 -80 l 100 -80 q 104 -64 104 -40 l 104 -40 q 104 -17 100 0 l 100 0 l 40 0 q 36 -17 36 -40 l 36 -40 q 36 -64 40 -80 l 40 -80 q 36 -97 36 -120 l 36 -120 q 36 -144 40 -160 l 40 -160 q 36 -177 36 -200 l 36 -200 q 36 -224 40 -240 l 40 -240 q 36 -257 36 -280 l 36 -280 q 36 -304 40 -320 l 40 -320 q 36 -337 36 -360 l 36 -360 q 36 -384 40 -400 l 40 -400 q 36 -417 36 -440 l 36 -440 q 36 -464 40 -480 l 40 -480 q 36 -497 36 -520 l 36 -520 q 36 -544 40 -560 l 40 -560 l 100 -560 q 104 -544 104 -520 l 104 -520 q 104 -497 100 -480 l 100 -480 l 120 -480 q 124 -464 124 -440 l 124 -440 q 124 -417 120 -400 l 120 -400 l 155 -400 q 159 -384 159 -360 l 159 -360 q 159 -337 155 -320 l 155 -320 l 180 -320 q 176 -337 176 -360 l 176 -360 q 176 -384 180 -400 l 180 -400 l 170 -400 q 166 -417 166 -440 l 166 -440 q 166 -464 170 -480 l 170 -480 q 166 -497 166 -520 l 166 -520 q 166 -544 170 -560 l 170 -560 l 230 -560 q 234 -544 234 -520 l 234 -520 q 234 -497 230 -480 l 230 -480 q 234 -464 234 -440 l 234 -440 q 234 -417 230 -400 l 230 -400 q 234 -384 234 -360 l 234 -360 q 234 -337 230 -320 l 230 -320 q 234 -304 234 -280 l 234 -280 q 234 -257 230 -240 l 230 -240 q 234 -224 234 -200 l 234 -200 q 234 -177 230 -160 l 230 -160 q 234 -144 234 -120 l 234 -120 q 234 -97 230 -80 l 230 -80 q 234 -64 234 -40 l 234 -40 m 362 -480 l 302 -480 q 298 -497 298 -520 l 298 -520 q 298 -544 302 -560 l 302 -560 l 362 -560 q 366 -544 366 -520 l 366 -520 q 366 -497 362 -480 l 362 -480 m 360 -400 q 364 -384 364 -360 l 364 -360 q 364 -337 360 -320 l 360 -320 q 364 -304 364 -280 l 364 -280 q 364 -257 360 -240 l 360 -240 q 364 -224 364 -200 l 364 -200 q 364 -177 360 -160 l 360 -160 q 364 -144 364 -120 l 364 -120 q 364 -97 360 -80 l 360 -80 q 364 -64 364 -40 l 364 -40 q 364 -17 360 0 l 360 0 l 332 0 q 336 16 336 40 l 336 40 q 336 63 332 80 l 332 80 l 312 80 q 316 96 316 120 l 316 120 q 316 143 312 160 l 312 160 l 232 160 q 228 143 228 120 l 228 120 q 228 96 232 80 l 232 80 l 272 80 q 268 63 268 40 l 268 40 q 268 16 272 0 l 272 0 l 300 0 q 296 -17 296 -40 l 296 -40 q 296 -64 300 -80 l 300 -80 q 296 -97 296 -120 l 296 -120 q 296 -144 300 -160 l 300 -160 q 296 -177 296 -200 l 296 -200 q 296 -224 300 -240 l 300 -240 q 296 -257 296 -280 l 296 -280 q 296 -304 300 -320 l 300 -320 q 296 -337 296 -360 l 296 -360 q 296 -384 300 -400 l 300 -400 l 360 -400"},"Ñ":{"ha":400,"x_min":36,"x_max":364,"o":"m 360 -480 q 364 -464 364 -440 l 364 -440 q 364 -417 360 -400 l 360 -400 q 364 -384 364 -360 l 364 -360 q 364 -337 360 -320 l 360 -320 q 364 -304 364 -280 l 364 -280 q 364 -257 360 -240 l 360 -240 q 364 -224 364 -200 l 364 -200 q 364 -177 360 -160 l 360 -160 q 364 -144 364 -120 l 364 -120 q 364 -97 360 -80 l 360 -80 q 364 -64 364 -40 l 364 -40 q 364 -17 360 0 l 360 0 l 280 0 q 276 -17 276 -40 l 276 -40 q 276 -64 280 -80 l 280 -80 l 230 -80 q 226 -97 226 -120 l 226 -120 q 226 -144 230 -160 l 230 -160 l 200 -160 q 196 -177 196 -200 l 196 -200 q 196 -224 200 -240 l 200 -240 l 160 -240 q 156 -257 156 -280 l 156 -280 q 156 -304 160 -320 l 160 -320 l 120 -320 q 124 -304 124 -280 l 124 -280 q 124 -257 120 -240 l 120 -240 q 124 -224 124 -200 l 124 -200 q 124 -177 120 -160 l 120 -160 q 124 -144 124 -120 l 124 -120 q 124 -97 120 -80 l 120 -80 q 124 -64 124 -40 l 124 -40 q 124 -17 120 0 l 120 0 l 40 0 q 36 -17 36 -40 l 36 -40 q 36 -64 40 -80 l 40 -80 q 36 -97 36 -120 l 36 -120 q 36 -144 40 -160 l 40 -160 q 36 -177 36 -200 l 36 -200 q 36 -224 40 -240 l 40 -240 q 36 -257 36 -280 l 36 -280 q 36 -304 40 -320 l 40 -320 q 36 -337 36 -360 l 36 -360 q 36 -384 40 -400 l 40 -400 q 36 -417 36 -440 l 36 -440 q 36 -464 40 -480 l 40 -480 q 36 -497 36 -520 l 36 -520 q 36 -544 40 -560 l 40 -560 l 140 -560 q 144 -544 144 -520 l 144 -520 q 144 -497 140 -480 l 140 -480 l 170 -480 q 174 -464 174 -440 l 174 -440 q 174 -417 170 -400 l 170 -400 l 200 -400 q 204 -384 204 -360 l 204 -360 q 204 -337 200 -320 l 200 -320 l 240 -320 q 244 -304 244 -280 l 244 -280 q 244 -257 240 -240 l 240 -240 l 280 -240 q 276 -257 276 -280 l 276 -280 q 276 -304 280 -320 l 280 -320 q 276 -337 276 -360 l 276 -360 q 276 -384 280 -400 l 280 -400 q 276 -417 276 -440 l 276 -440 q 276 -464 280 -480 l 280 -480 q 276 -497 276 -520 l 276 -520 q 276 -544 280 -560 l 280 -560 l 360 -560 q 364 -544 364 -520 l 364 -520 q 364 -497 360 -480 l 360 -480 m 224 -760 q 224 -737 220 -720 l 220 -720 l 300 -720 q 304 -704 304 -680 l 304 -680 q 304 -657 300 -640 l 300 -640 l 180 -640 q 176 -657 176 -680 l 176 -680 q 176 -704 180 -720 l 180 -720 l 100 -720 q 96 -737 96 -760 l 96 -760 q 96 -784 100 -800 l 100 -800 l 220 -800 q 224 -784 224 -760 l 224 -760 m 364 -760 q 364 -737 360 -720 l 360 -720 l 300 -720 q 296 -737 296 -760 l 296 -760 q 296 -784 300 -800 l 300 -800 l 360 -800 q 364 -784 364 -760 l 364 -760 m 36 -680 q 36 -704 40 -720 l 40 -720 l 100 -720 q 104 -704 104 -680 l 104 -680 q 104 -657 100 -640 l 100 -640 l 40 -640 q 36 -657 36 -680 l 36 -680"},"O":{"ha":400,"x_min":36,"x_max":364,"o":"m 360 -320 q 364 -304 364 -280 l 364 -280 q 364 -257 360 -240 l 360 -240 q 364 -224 364 -200 l 364 -200 q 364 -177 360 -160 l 360 -160 l 330 -160 q 334 -144 334 -120 l 334 -120 q 334 -97 330 -80 l 330 -80 l 280 -80 q 284 -64 284 -40 l 284 -40 q 284 -17 280 0 l 280 0 l 120 0 q 116 -17 116 -40 l 116 -40 q 116 -64 120 -80 l 120 -80 l 70 -80 q 66 -97 66 -120 l 66 -120 q 66 -144 70 -160 l 70 -160 l 40 -160 q 36 -177 36 -200 l 36 -200 q 36 -224 40 -240 l 40 -240 q 36 -257 36 -280 l 36 -280 q 36 -304 40 -320 l 40 -320 q 36 -337 36 -360 l 36 -360 q 36 -384 40 -400 l 40 -400 l 70 -400 q 66 -417 66 -440 l 66 -440 q 66 -464 70 -480 l 70 -480 l 120 -480 q 116 -497 116 -520 l 116 -520 q 116 -544 120 -560 l 120 -560 l 280 -560 q 284 -544 284 -520 l 284 -520 q 284 -497 280 -480 l 280 -480 l 330 -480 q 334 -464 334 -440 l 334 -440 q 334 -417 330 -400 l 330 -400 l 360 -400 q 364 -384 364 -360 l 364 -360 q 364 -337 360 -320 l 360 -320 m 280 -160 q 276 -177 276 -200 l 276 -200 q 276 -224 280 -240 l 280 -240 q 276 -257 276 -280 l 276 -280 q 276 -304 280 -320 l 280 -320 q 276 -337 276 -360 l 276 -360 q 276 -384 280 -400 l 280 -400 l 250 -400 q 246 -417 246 -440 l 246 -440 q 246 -464 250 -480 l 250 -480 l 150 -480 q 154 -464 154 -440 l 154 -440 q 154 -417 150 -400 l 150 -400 l 120 -400 q 124 -384 124 -360 l 124 -360 q 124 -337 120 -320 l 120 -320 q 124 -304 124 -280 l 124 -280 q 124 -257 120 -240 l 120 -240 q 124 -224 124 -200 l 124 -200 q 124 -177 120 -160 l 120 -160 l 150 -160 q 154 -144 154 -120 l 154 -120 q 154 -97 150 -80 l 150 -80 l 250 -80 q 246 -97 246 -120 l 246 -120 q 246 -144 250 -160 l 250 -160 l 280 -160"},"Ó":{"ha":400,"x_min":36,"x_max":364,"o":"m 240 -640 l 160 -640 q 156 -657 156 -680 l 156 -680 q 156 -704 160 -720 l 160 -720 l 200 -720 q 196 -737 196 -760 l 196 -760 q 196 -784 200 -800 l 200 -800 l 280 -800 q 284 -784 284 -760 l 284 -760 q 284 -737 280 -720 l 280 -720 l 240 -720 q 244 -704 244 -680 l 244 -680 q 244 -657 240 -640 l 240 -640 m 360 -320 q 364 -304 364 -280 l 364 -280 q 364 -257 360 -240 l 360 -240 q 364 -224 364 -200 l 364 -200 q 364 -177 360 -160 l 360 -160 l 330 -160 q 334 -144 334 -120 l 334 -120 q 334 -97 330 -80 l 330 -80 l 280 -80 q 284 -64 284 -40 l 284 -40 q 284 -17 280 0 l 280 0 l 120 0 q 116 -17 116 -40 l 116 -40 q 116 -64 120 -80 l 120 -80 l 70 -80 q 66 -97 66 -120 l 66 -120 q 66 -144 70 -160 l 70 -160 l 40 -160 q 36 -177 36 -200 l 36 -200 q 36 -224 40 -240 l 40 -240 q 36 -257 36 -280 l 36 -280 q 36 -304 40 -320 l 40 -320 q 36 -337 36 -360 l 36 -360 q 36 -384 40 -400 l 40 -400 l 70 -400 q 66 -417 66 -440 l 66 -440 q 66 -464 70 -480 l 70 -480 l 120 -480 q 116 -497 116 -520 l 116 -520 q 116 -544 120 -560 l 120 -560 l 280 -560 q 284 -544 284 -520 l 284 -520 q 284 -497 280 -480 l 280 -480 l 330 -480 q 334 -464 334 -440 l 334 -440 q 334 -417 330 -400 l 330 -400 l 360 -400 q 364 -384 364 -360 l 364 -360 q 364 -337 360 -320 l 360 -320 m 280 -160 q 276 -177 276 -200 l 276 -200 q 276 -224 280 -240 l 280 -240 q 276 -257 276 -280 l 276 -280 q 276 -304 280 -320 l 280 -320 q 276 -337 276 -360 l 276 -360 q 276 -384 280 -400 l 280 -400 l 250 -400 q 246 -417 246 -440 l 246 -440 q 246 -464 250 -480 l 250 -480 l 150 -480 q 154 -464 154 -440 l 154 -440 q 154 -417 150 -400 l 150 -400 l 120 -400 q 124 -384 124 -360 l 124 -360 q 124 -337 120 -320 l 120 -320 q 124 -304 124 -280 l 124 -280 q 124 -257 120 -240 l 120 -240 q 124 -224 124 -200 l 124 -200 q 124 -177 120 -160 l 120 -160 l 150 -160 q 154 -144 154 -120 l 154 -120 q 154 -97 150 -80 l 150 -80 l 250 -80 q 246 -97 246 -120 l 246 -120 q 246 -144 250 -160 l 250 -160 l 280 -160"}}}
